<svg width="25" height="25" viewBox="0 0 25 25" fill="none" xmlns="http://www.w3.org/2000/svg">
<g id="healthicons:i-training-class">
<path id="Vector" fill-rule="evenodd" clip-rule="evenodd" d="M3.09424 3.43848H18.5942V5.93848H17.5942V4.43848H4.09424V15.9385H14.7877V16.9385H3.09424V3.43848ZM18.0942 9.93848C18.4921 9.93848 18.8736 9.78044 19.1549 9.49914C19.4362 9.21783 19.5942 8.8363 19.5942 8.43848C19.5942 8.04065 19.4362 7.65912 19.1549 7.37782C18.8736 7.09651 18.4921 6.93848 18.0942 6.93848C17.6964 6.93848 17.3149 7.09651 17.0336 7.37782C16.7523 7.65912 16.5942 8.04065 16.5942 8.43848C16.5942 8.8363 16.7523 9.21783 17.0336 9.49914C17.3149 9.78044 17.6964 9.93848 18.0942 9.93848ZM19.1097 10.9435C19.7592 10.9435 20.2732 11.2355 20.6097 11.6865C20.9242 12.109 21.0572 12.6315 21.0872 13.114C21.1166 13.6089 21.0492 14.1048 20.8887 14.574C20.7387 15.009 20.4852 15.459 20.0942 15.7675V20.6885C20.0946 20.8769 20.024 21.0586 19.8965 21.1973C19.769 21.3361 19.594 21.4218 19.4062 21.4374C19.2184 21.4529 19.0316 21.3972 18.883 21.2813C18.7344 21.1655 18.6349 20.9979 18.6042 20.812L17.9592 16.9385H17.8102L17.0812 20.8265C17.0466 21.01 16.9448 21.174 16.7957 21.2864C16.6466 21.3988 16.4609 21.4515 16.2749 21.4342C16.089 21.417 15.9162 21.331 15.7903 21.1931C15.6644 21.0551 15.5945 20.8752 15.5942 20.6885V13.555C15.4942 13.7073 15.3956 13.8605 15.2982 14.0145L15.2592 14.076L15.2492 14.092L15.2467 14.0965C15.1794 14.2047 15.0855 14.2939 14.974 14.3558C14.8626 14.4176 14.7372 14.45 14.6097 14.45H12.1097C11.9108 14.45 11.7201 14.371 11.5794 14.2303C11.4388 14.0897 11.3597 13.8989 11.3597 13.7C11.3597 13.5011 11.4388 13.3103 11.5794 13.1696C11.7201 13.029 11.9108 12.95 12.1097 12.95H14.1982C14.3197 12.762 14.4797 12.518 14.6477 12.273C14.8227 12.0175 15.0157 11.747 15.1877 11.535C15.2712 11.4315 15.3647 11.3235 15.4587 11.235C15.5047 11.1915 15.5687 11.135 15.6467 11.085C15.7844 10.9946 15.9451 10.9457 16.1097 10.944L19.1097 10.9435Z" fill="black" fill-opacity="0.5"/>
</g>
</svg>
