<svg width="606" height="605" viewBox="0 0 606 605" fill="none" xmlns="http://www.w3.org/2000/svg">
<path d="M278.579 61.3511C280.212 67.8207 279.408 55.9115 282.61 41.3417C285.814 26.7707 291.297 32.6806 291.297 32.6806" stroke="#263238" stroke-width="0.882872" stroke-miterlimit="10" stroke-linecap="round" stroke-linejoin="round"/>
<path d="M277.573 46.4649L287.612 42.3477" stroke="#263238" stroke-width="0.882872" stroke-miterlimit="10" stroke-linecap="round" stroke-linejoin="round"/>
<path d="M295.915 37.4141C295.915 37.4141 289.913 49.8225 298.96 55.0977" stroke="#263238" stroke-width="0.882872" stroke-miterlimit="10" stroke-linecap="round" stroke-linejoin="round"/>
<path d="M304.427 33.9248C304.427 33.9248 314.332 39.4273 308.127 51.3401" stroke="#263238" stroke-width="0.882872" stroke-miterlimit="10" stroke-linecap="round" stroke-linejoin="round"/>
<path d="M297.638 41.6182L304.735 46.8003" stroke="#263238" stroke-width="0.882872" stroke-miterlimit="10" stroke-linecap="round" stroke-linejoin="round"/>
<path d="M303.204 39.335L297.65 48.175" stroke="#263238" stroke-width="0.882872" stroke-miterlimit="10" stroke-linecap="round" stroke-linejoin="round"/>
<path d="M86.9967 353.524C86.9967 353.524 70.1592 353.275 70.1362 367.812" stroke="#263238" stroke-width="0.882872" stroke-miterlimit="10" stroke-linecap="round" stroke-linejoin="round"/>
<path d="M85.6052 362.673C85.2534 360.536 77.9196 357.888 76.6552 363.429C75.3896 368.969 84.4871 365.656 87.3048 363.048C87.3048 363.048 82.0876 368.129 83.7267 369.559" stroke="#263238" stroke-width="0.882872" stroke-miterlimit="10" stroke-linecap="round" stroke-linejoin="round"/>
<path d="M86.6521 371.166C86.6521 371.166 84.434 373.94 82.0405 372.624" stroke="#263238" stroke-width="0.882872" stroke-miterlimit="10" stroke-linecap="round" stroke-linejoin="round"/>
<path d="M101.362 361.421L88.7363 374.308C88.7363 374.308 95.0499 367.865 98.7743 369.912C103.363 372.434 97.412 379.322 92.5054 374.383" stroke="#263238" stroke-width="0.882872" stroke-miterlimit="10" stroke-linecap="round" stroke-linejoin="round"/>
<path d="M107.747 364.93C107.747 364.93 111.089 380.277 93.813 380.826" stroke="#263238" stroke-width="0.882872" stroke-miterlimit="10" stroke-linecap="round" stroke-linejoin="round"/>
<path d="M333.263 104.16L339.351 105.161L339.441 119.005L352.781 94.6641L373.834 98.1285" stroke="#263238" stroke-width="0.882872" stroke-miterlimit="10" stroke-linecap="round" stroke-linejoin="round"/>
<path d="M355.091 105.324L364.354 121.671" stroke="#263238" stroke-width="0.882872" stroke-miterlimit="10" stroke-linecap="round" stroke-linejoin="round"/>
<path d="M366.729 107.238L350.157 119.334" stroke="#263238" stroke-width="0.882872" stroke-miterlimit="10" stroke-linecap="round" stroke-linejoin="round"/>
<path d="M250.011 128.791C248.451 126.807 239.474 128.218 241.293 134.588C243.111 140.957 250.542 132.465 251.957 128.218C251.957 128.218 249.48 136.337 251.957 136.877" stroke="#263238" stroke-width="0.882872" stroke-miterlimit="10" stroke-linecap="round" stroke-linejoin="round"/>
<path d="M256.892 122.256L254.884 129.437C254.884 129.437 255.887 125.847 257.645 125.847C259.808 125.847 259.025 129.527 256.264 128.715" stroke="#263238" stroke-width="0.882872" stroke-miterlimit="10" stroke-linecap="round" stroke-linejoin="round"/>
<path d="M426.215 210.163L421.981 225.455L431.237 235.575" stroke="#263238" stroke-width="0.882872" stroke-miterlimit="10" stroke-linecap="round" stroke-linejoin="round"/>
<path d="M431.51 216.375L442.107 225.236" stroke="#263238" stroke-width="0.882872" stroke-miterlimit="10" stroke-linecap="round" stroke-linejoin="round"/>
<path d="M438.805 214.193L434.222 225.445" stroke="#263238" stroke-width="0.882872" stroke-miterlimit="10" stroke-linecap="round" stroke-linejoin="round"/>
<path d="M446.248 223.997C446.248 223.997 446.343 227.191 444.963 227.603" stroke="#263238" stroke-width="0.882872" stroke-miterlimit="10" stroke-linecap="round" stroke-linejoin="round"/>
<path d="M447.595 212.854L453.981 217.603" stroke="#263238" stroke-width="0.882872" stroke-miterlimit="10" stroke-linecap="round" stroke-linejoin="round"/>
<path d="M456.358 208.943L450.045 231.668" stroke="#263238" stroke-width="0.882872" stroke-miterlimit="10" stroke-linecap="round" stroke-linejoin="round"/>
<path d="M456.664 201.057L466.916 212.661L462.549 225.353" stroke="#263238" stroke-width="0.882872" stroke-miterlimit="10" stroke-linecap="round" stroke-linejoin="round"/>
<path d="M174.363 500.5L189.189 456.357L207.178 476.432L174.363 500.5Z" stroke="#263238" stroke-width="0.882872" stroke-miterlimit="10" stroke-linecap="round" stroke-linejoin="round"/>
<path d="M202.774 479.662L198.976 475.317L203.02 471.812" stroke="#263238" stroke-width="0.882872" stroke-miterlimit="10" stroke-linecap="round" stroke-linejoin="round"/>
<path d="M86.6944 252.482C94.4008 249.29 98.0602 240.455 94.8681 232.748C91.676 225.042 82.841 221.382 75.1347 224.575C67.4284 227.767 63.7689 236.602 66.961 244.308C70.1532 252.014 78.9881 255.674 86.6944 252.482Z" stroke="#263238" stroke-width="0.882872" stroke-miterlimit="10" stroke-linecap="round" stroke-linejoin="round"/>
<path d="M97.6681 242.066C106.924 242.066 114.427 234.563 114.427 225.307C114.427 216.051 106.924 208.548 97.6681 208.548C88.4124 208.548 80.9092 216.051 80.9092 225.307C80.9092 234.563 88.4124 242.066 97.6681 242.066Z" stroke="#263238" stroke-width="0.882872" stroke-miterlimit="10" stroke-linecap="round" stroke-linejoin="round"/>
<path d="M83.8827 223.715L81.8398 230.82" stroke="#263238" stroke-width="0.882872" stroke-miterlimit="10" stroke-linecap="round" stroke-linejoin="round"/>
<path d="M86.7779 224.605L83.8828 234.833" stroke="#263238" stroke-width="0.882872" stroke-miterlimit="10" stroke-linecap="round" stroke-linejoin="round"/>
<path d="M89.8011 226.319L86.7778 237.884" stroke="#263238" stroke-width="0.882872" stroke-miterlimit="10" stroke-linecap="round" stroke-linejoin="round"/>
<path d="M93.1748 229.718L91.0171 240.69" stroke="#263238" stroke-width="0.882872" stroke-miterlimit="10" stroke-linecap="round" stroke-linejoin="round"/>
<path d="M95.0811 233.294L93.1748 241.451" stroke="#263238" stroke-width="0.882872" stroke-miterlimit="10" stroke-linecap="round" stroke-linejoin="round"/>
<path d="M66.4808 219.181C65.1583 218.771 61.5476 222.204 64.352 224.512C67.1565 226.819 67.8648 220.673 67.1807 218.315C67.1807 218.315 68.5913 222.751 69.8775 222.224" stroke="#263238" stroke-width="0.882872" stroke-miterlimit="10" stroke-linecap="round" stroke-linejoin="round"/>
<path d="M85.9634 199.793L90.7672 208.597C90.7672 208.597 88.3653 204.194 90.0576 202.547C92.1428 200.516 94.8397 204.797 91.4187 206.605" stroke="#263238" stroke-width="0.882872" stroke-miterlimit="10" stroke-linecap="round" stroke-linejoin="round"/>
<path d="M174.313 198.747L181.143 205.209" stroke="#263238" stroke-width="0.882872" stroke-miterlimit="10" stroke-linecap="round" stroke-linejoin="round"/>
<path d="M181.143 197.059L175.424 205.601" stroke="#263238" stroke-width="0.882872" stroke-miterlimit="10" stroke-linecap="round" stroke-linejoin="round"/>
<path d="M187.86 199.51L194.691 196.971" stroke="#263238" stroke-width="0.882872" stroke-miterlimit="10" stroke-linecap="round" stroke-linejoin="round"/>
<path d="M197.968 189.848L202.123 193.525" stroke="#263238" stroke-width="0.882872" stroke-miterlimit="10" stroke-linecap="round" stroke-linejoin="round"/>
<path d="M205.307 185.428L200.045 203.486" stroke="#263238" stroke-width="0.882872" stroke-miterlimit="10" stroke-linecap="round" stroke-linejoin="round"/>
<path d="M503.829 181.797L503.549 167.997H513.978C513.978 167.997 508.199 171.181 510.852 178.612C513.506 186.042 517.798 181.796 517.798 181.796" stroke="#263238" stroke-width="0.882872" stroke-miterlimit="10" stroke-linecap="round" stroke-linejoin="round"/>
<path d="M486.16 417.284L498.028 409.118L513.746 410.219L514.729 430.142L503.192 438.391L488.955 437.354L486.16 417.284Z" stroke="#263238" stroke-width="0.882872" stroke-miterlimit="10" stroke-linecap="round" stroke-linejoin="round"/>
<path d="M488.955 437.353L500.444 429.08L514.729 430.141" stroke="#263238" stroke-width="0.882872" stroke-miterlimit="10" stroke-linecap="round" stroke-linejoin="round"/>
<path d="M500.444 429.08L498.028 409.118" stroke="#263238" stroke-width="0.882872" stroke-miterlimit="10" stroke-linecap="round" stroke-linejoin="round"/>
<path d="M486.16 417.283L501.844 419.099L513.746 410.219" stroke="#263238" stroke-width="0.882872" stroke-miterlimit="10" stroke-linecap="round" stroke-linejoin="round"/>
<path d="M501.844 419.1L503.192 438.391" stroke="#263238" stroke-width="0.882872" stroke-miterlimit="10" stroke-linecap="round" stroke-linejoin="round"/>
<path d="M488.32 267.658L487.815 294.223L511.089 283.652L488.32 267.658Z" stroke="#263238" stroke-width="0.882872" stroke-miterlimit="10" stroke-linecap="round" stroke-linejoin="round"/>
<path d="M488.32 267.658L499.409 288.797" stroke="#263238" stroke-width="0.882872" stroke-miterlimit="10" stroke-linecap="round" stroke-linejoin="round"/>
<path d="M497.633 285.409L500.333 284.105L502.142 287.716" stroke="#263238" stroke-width="0.882872" stroke-miterlimit="10" stroke-linecap="round" stroke-linejoin="round"/>
<path d="M285.438 265.143L295.061 275.455" stroke="#263238" stroke-width="0.882872" stroke-miterlimit="10" stroke-linecap="round" stroke-linejoin="round"/>
<path d="M295.138 263.756L287.051 274.825" stroke="#263238" stroke-width="0.882872" stroke-miterlimit="10" stroke-linecap="round" stroke-linejoin="round"/>
<path d="M299.07 258.356C299.07 258.356 301.311 257.487 301.783 259.805C302.254 262.124 298.445 265.143 298.445 265.143H303.878" stroke="#263238" stroke-width="0.882872" stroke-miterlimit="10" stroke-linecap="round" stroke-linejoin="round"/>
<path d="M135.627 110.651C136.614 98.3038 143.888 87.9661 154.057 82.5312" stroke="#263238" stroke-width="0.882872" stroke-miterlimit="10" stroke-linecap="round" stroke-linejoin="round"/>
<path d="M162.364 147.498C153.36 145.348 145.805 139.762 141.026 132.297" stroke="#263238" stroke-width="0.882872" stroke-miterlimit="10" stroke-linecap="round" stroke-linejoin="round"/>
<path d="M205.452 116.226C203.912 135.507 187.033 149.89 167.753 148.35" stroke="#263238" stroke-width="0.882872" stroke-miterlimit="10" stroke-linecap="round" stroke-linejoin="round"/>
<path d="M173.327 78.5254C190.038 79.8599 203.071 92.718 205.244 108.677" stroke="#263238" stroke-width="0.882872" stroke-miterlimit="10" stroke-linecap="round" stroke-linejoin="round"/>
<path d="M185.647 140.396C180.482 143.297 174.429 144.746 168.081 144.24C151.069 142.881 138.38 127.991 139.739 110.979" stroke="#263238" stroke-width="0.882872" stroke-miterlimit="10" stroke-linecap="round" stroke-linejoin="round"/>
<path d="M141.702 102.318C146.494 89.8762 159.032 81.5221 172.999 82.6366C190.011 83.9953 202.7 98.8854 201.341 115.897C200.783 122.892 197.936 129.156 193.595 134.013" stroke="#263238" stroke-width="0.882872" stroke-miterlimit="10" stroke-linecap="round" stroke-linejoin="round"/>
<path d="M167.506 91.2021L170.539 113.438L187.638 108.125" stroke="#263238" stroke-width="0.882872" stroke-miterlimit="10" stroke-linecap="round" stroke-linejoin="round"/>
<path d="M437.058 156.669C426.974 156.764 417.497 150.512 413.962 140.47C410.626 130.997 413.525 120.842 420.511 114.481" stroke="#263238" stroke-width="0.882872" stroke-miterlimit="10" stroke-linecap="round" stroke-linejoin="round"/>
<path d="M459.778 140.242C457.46 147.027 452.169 152.722 444.881 155.287" stroke="#263238" stroke-width="0.882872" stroke-miterlimit="10" stroke-linecap="round" stroke-linejoin="round"/>
<path d="M428.779 109.55C441.408 105.104 455.252 111.738 459.698 124.368" stroke="#263238" stroke-width="0.882872" stroke-miterlimit="10" stroke-linecap="round" stroke-linejoin="round"/>
<path d="M448.8 114.69C452.477 117.17 455.418 120.809 457.004 125.315C460.927 136.457 455.074 148.67 443.931 152.593C435.574 155.535 426.615 152.978 421.003 146.815" stroke="#263238" stroke-width="0.882872" stroke-miterlimit="10" stroke-linecap="round" stroke-linejoin="round"/>
<path d="M416.655 139.52C412.732 128.378 418.585 116.165 429.728 112.242C433.907 110.771 438.235 110.674 442.221 111.716" stroke="#263238" stroke-width="0.882872" stroke-miterlimit="10" stroke-linecap="round" stroke-linejoin="round"/>
<path d="M428.66 119.207L436.829 132.419L429.383 142.085" stroke="#263238" stroke-width="0.882872" stroke-miterlimit="10" stroke-linecap="round" stroke-linejoin="round"/>
<path d="M265.493 493.756C265.493 487.058 268.88 481.151 274.035 477.654" stroke="#263238" stroke-width="0.882872" stroke-miterlimit="10" stroke-linecap="round" stroke-linejoin="round"/>
<path d="M299.031 507.151C295.489 510.876 290.484 513.198 284.937 513.198C276.39 513.198 269.131 507.684 266.524 500.018" stroke="#263238" stroke-width="0.882872" stroke-miterlimit="10" stroke-linecap="round" stroke-linejoin="round"/>
<path d="M284.937 474.311C295.676 474.311 304.38 483.016 304.38 493.754" stroke="#263238" stroke-width="0.882872" stroke-miterlimit="10" stroke-linecap="round" stroke-linejoin="round"/>
<path d="M284.937 510.909C275.462 510.909 267.783 503.228 267.783 493.755" stroke="#263238" stroke-width="0.882872" stroke-miterlimit="10" stroke-linecap="round" stroke-linejoin="round"/>
<path d="M271.578 482.993C274.722 479.094 279.538 476.602 284.937 476.602C294.411 476.602 302.091 484.282 302.091 493.756C302.091 500.201 298.537 505.816 293.281 508.747" stroke="#263238" stroke-width="0.882872" stroke-miterlimit="10" stroke-linecap="round" stroke-linejoin="round"/>
<path d="M282.275 505.415L284.937 493.756L281.217 484.227" stroke="#263238" stroke-width="0.882872" stroke-miterlimit="10" stroke-linecap="round" stroke-linejoin="round"/>
<path d="M58.4785 552.407H547.529" stroke="#263238" stroke-width="0.882872" stroke-miterlimit="10" stroke-linecap="round" stroke-linejoin="round"/>
<path d="M306.614 297.5L298.651 449.178L197.729 443.875L198.57 427.799L205.693 292.197L269.243 295.534L306.614 297.5Z" fill="white"/>
<mask id="mask0_361_1782" style="mask-type:luminance" maskUnits="userSpaceOnUse" x="197" y="292" width="110" height="158">
<path d="M306.614 297.5L298.651 449.178L197.729 443.875L198.57 427.799L205.693 292.197L269.243 295.534L306.614 297.5Z" fill="white"/>
</mask>
<g mask="url(#mask0_361_1782)">
<path opacity="0.2" d="M275.117 386.364L252.38 388.238L259.012 416.875L198.569 427.799L205.693 292.197L269.242 295.534L275.117 386.364Z" fill="black" fill-opacity="0.7"/>
</g>
<path d="M306.614 297.5L298.651 449.178L197.729 443.875L198.57 427.799L205.693 292.197L269.243 295.534L306.614 297.5Z" stroke="#263238" stroke-width="0.882872" stroke-miterlimit="10" stroke-linecap="round" stroke-linejoin="round"/>
<path d="M212.819 302.574L239.081 303.953" stroke="#263238" stroke-width="1.76574" stroke-miterlimit="10" stroke-linecap="round" stroke-linejoin="round"/>
<path d="M212.554 307.616L230.412 308.554" stroke="#263238" stroke-width="1.76574" stroke-miterlimit="10" stroke-linecap="round" stroke-linejoin="round"/>
<path d="M218.328 319.853L293.871 323.821" stroke="#263238" stroke-width="1.76574" stroke-miterlimit="10" stroke-linecap="round" stroke-linejoin="round"/>
<path d="M218.063 324.895L293.606 328.863" stroke="#263238" stroke-width="1.76574" stroke-miterlimit="10" stroke-linecap="round" stroke-linejoin="round"/>
<path d="M217.754 330.776L282.184 334.161" stroke="#263238" stroke-width="1.76574" stroke-miterlimit="10" stroke-linecap="round" stroke-linejoin="round"/>
<path d="M223.93 336.473L217.78 336.149L217.457 342.299L223.607 342.622L223.93 336.473Z" stroke="#263238" stroke-width="0.882872" stroke-miterlimit="10" stroke-linecap="round" stroke-linejoin="round"/>
<path d="M235.067 337.058L228.917 336.734L228.593 342.885L234.743 343.208L235.067 337.058Z" stroke="#263238" stroke-width="0.882872" stroke-miterlimit="10" stroke-linecap="round" stroke-linejoin="round"/>
<path d="M246.229 337.623L240.079 337.3L239.756 343.45L245.907 343.773L246.229 337.623Z" stroke="#263238" stroke-width="0.882872" stroke-miterlimit="10" stroke-linecap="round" stroke-linejoin="round"/>
<path d="M257.366 338.207L251.215 337.885L250.893 344.035L257.043 344.358L257.366 338.207Z" stroke="#263238" stroke-width="0.882872" stroke-miterlimit="10" stroke-linecap="round" stroke-linejoin="round"/>
<path d="M214.306 319.643C214.261 320.493 213.537 321.145 212.687 321.1C211.839 321.055 211.186 320.331 211.231 319.481C211.275 318.633 211.999 317.98 212.849 318.025C213.699 318.069 214.351 318.793 214.306 319.643Z" fill="#263238"/>
<path d="M216.783 349.265L292.326 353.233" stroke="#263238" stroke-width="1.76574" stroke-miterlimit="10" stroke-linecap="round" stroke-linejoin="round"/>
<path d="M216.518 354.307L292.061 358.275" stroke="#263238" stroke-width="1.76574" stroke-miterlimit="10" stroke-linecap="round" stroke-linejoin="round"/>
<path d="M216.21 360.188L280.64 363.573" stroke="#263238" stroke-width="1.76574" stroke-miterlimit="10" stroke-linecap="round" stroke-linejoin="round"/>
<path d="M222.414 365.864L216.264 365.541L215.941 371.691L222.091 372.014L222.414 365.864Z" stroke="#263238" stroke-width="0.882872" stroke-miterlimit="10" stroke-linecap="round" stroke-linejoin="round"/>
<path d="M233.551 366.449L227.4 366.126L227.078 372.276L233.228 372.599L233.551 366.449Z" stroke="#263238" stroke-width="0.882872" stroke-miterlimit="10" stroke-linecap="round" stroke-linejoin="round"/>
<path d="M244.686 367.034L238.536 366.711L238.213 372.861L244.363 373.184L244.686 367.034Z" stroke="#263238" stroke-width="0.882872" stroke-miterlimit="10" stroke-linecap="round" stroke-linejoin="round"/>
<path d="M255.822 367.618L249.672 367.295L249.349 373.445L255.499 373.768L255.822 367.618Z" stroke="#263238" stroke-width="0.882872" stroke-miterlimit="10" stroke-linecap="round" stroke-linejoin="round"/>
<path d="M212.762 349.053C212.717 349.902 211.993 350.555 211.143 350.51C210.295 350.465 209.642 349.741 209.687 348.891C209.731 348.043 210.456 347.39 211.305 347.435C212.154 347.48 212.807 348.204 212.762 349.053Z" fill="#263238"/>
<path d="M215.238 378.675L290.781 382.642" stroke="#263238" stroke-width="1.76574" stroke-miterlimit="10" stroke-linecap="round" stroke-linejoin="round"/>
<path d="M214.973 383.717L290.517 387.684" stroke="#263238" stroke-width="1.76574" stroke-miterlimit="10" stroke-linecap="round" stroke-linejoin="round"/>
<path d="M214.665 389.599L279.095 392.983" stroke="#263238" stroke-width="1.76574" stroke-miterlimit="10" stroke-linecap="round" stroke-linejoin="round"/>
<path d="M220.839 395.292L214.688 394.969L214.365 401.119L220.515 401.442L220.839 395.292Z" stroke="#263238" stroke-width="0.882872" stroke-miterlimit="10" stroke-linecap="round" stroke-linejoin="round"/>
<path d="M231.975 395.878L225.825 395.555L225.501 401.705L231.652 402.028L231.975 395.878Z" stroke="#263238" stroke-width="0.882872" stroke-miterlimit="10" stroke-linecap="round" stroke-linejoin="round"/>
<path d="M243.142 396.443L236.992 396.12L236.669 402.27L242.819 402.593L243.142 396.443Z" stroke="#263238" stroke-width="0.882872" stroke-miterlimit="10" stroke-linecap="round" stroke-linejoin="round"/>
<path d="M254.247 397.049L248.097 396.726L247.773 402.875L253.924 403.198L254.247 397.049Z" stroke="#263238" stroke-width="0.882872" stroke-miterlimit="10" stroke-linecap="round" stroke-linejoin="round"/>
<path d="M211.218 378.463C211.173 379.311 210.449 379.964 209.599 379.919C208.75 379.874 208.098 379.15 208.142 378.301C208.187 377.452 208.911 376.799 209.761 376.844C210.609 376.89 211.262 377.614 211.218 378.463Z" fill="#263238"/>
<path d="M213.649 408.926L289.193 412.894" stroke="#263238" stroke-width="1.76574" stroke-miterlimit="10" stroke-linecap="round" stroke-linejoin="round"/>
<path d="M213.385 413.968L288.928 417.936" stroke="#263238" stroke-width="1.76574" stroke-miterlimit="10" stroke-linecap="round" stroke-linejoin="round"/>
<path d="M213.075 419.85L277.506 423.234" stroke="#263238" stroke-width="1.76574" stroke-miterlimit="10" stroke-linecap="round" stroke-linejoin="round"/>
<path d="M219.283 425.524L213.133 425.201L212.81 431.351L218.96 431.674L219.283 425.524Z" stroke="#263238" stroke-width="0.882872" stroke-miterlimit="10" stroke-linecap="round" stroke-linejoin="round"/>
<path d="M230.386 426.128L224.236 425.805L223.913 431.954L230.063 432.277L230.386 426.128Z" stroke="#263238" stroke-width="0.882872" stroke-miterlimit="10" stroke-linecap="round" stroke-linejoin="round"/>
<path d="M241.521 426.712L235.371 426.389L235.048 432.538L241.198 432.861L241.521 426.712Z" stroke="#263238" stroke-width="0.882872" stroke-miterlimit="10" stroke-linecap="round" stroke-linejoin="round"/>
<path d="M252.657 427.298L246.508 426.975L246.184 433.125L252.334 433.448L252.657 427.298Z" stroke="#263238" stroke-width="0.882872" stroke-miterlimit="10" stroke-linecap="round" stroke-linejoin="round"/>
<path d="M209.628 408.713C209.583 409.561 208.859 410.214 208.009 410.169C207.16 410.124 206.508 409.4 206.552 408.551C206.597 407.702 207.321 407.049 208.171 407.094C209.021 407.14 209.672 407.864 209.628 408.713Z" fill="#263238"/>
<path d="M219.875 338.715L220.673 340.09L223.946 336.474" stroke="#263238" stroke-width="1.76574" stroke-miterlimit="10" stroke-linecap="round" stroke-linejoin="round"/>
<path d="M240.622 368.926L241.419 370.301L244.693 366.685" stroke="#263238" stroke-width="1.76574" stroke-miterlimit="10" stroke-linecap="round" stroke-linejoin="round"/>
<path d="M251.028 399.961L251.827 401.335L255.1 397.72" stroke="#263238" stroke-width="1.76574" stroke-miterlimit="10" stroke-linecap="round" stroke-linejoin="round"/>
<path d="M226.37 427.667L227.167 429.042L230.441 425.427" stroke="#263238" stroke-width="1.76574" stroke-miterlimit="10" stroke-linecap="round" stroke-linejoin="round"/>
<path d="M239.556 406.252L142.187 433.31L101.523 286.962L141.837 275.762L198.893 259.912L235.787 392.693L239.556 406.252Z" fill="white"/>
<mask id="mask1_361_1782" style="mask-type:luminance" maskUnits="userSpaceOnUse" x="101" y="259" width="139" height="175">
<path d="M239.556 406.252L142.187 433.31L101.523 286.962L141.837 275.762L198.893 259.912L235.787 392.693L239.556 406.252Z" fill="white"/>
</mask>
<g mask="url(#mask1_361_1782)">
<path opacity="0.2" d="M235.786 392.693L160.499 397.562L141.836 275.762L198.892 259.912L235.786 392.693Z" fill="black" fill-opacity="0.7"/>
</g>
<path d="M239.556 406.252L142.187 433.31L101.523 286.962L141.837 275.762L198.893 259.912L235.787 392.693L239.556 406.252Z" stroke="#263238" stroke-width="0.882872" stroke-miterlimit="10" stroke-linecap="round" stroke-linejoin="round"/>
<path d="M111.573 294.537L136.91 287.496" stroke="#263238" stroke-width="1.76574" stroke-miterlimit="10" stroke-linecap="round" stroke-linejoin="round"/>
<path d="M112.924 299.401L130.155 294.613" stroke="#263238" stroke-width="1.76574" stroke-miterlimit="10" stroke-linecap="round" stroke-linejoin="round"/>
<path d="M122.29 309.17L195.176 288.916" stroke="#263238" stroke-width="1.76574" stroke-miterlimit="10" stroke-linecap="round" stroke-linejoin="round"/>
<path d="M123.641 314.034L196.528 293.78" stroke="#263238" stroke-width="1.76574" stroke-miterlimit="10" stroke-linecap="round" stroke-linejoin="round"/>
<path d="M125.219 319.707L187.382 302.435" stroke="#263238" stroke-width="1.76574" stroke-miterlimit="10" stroke-linecap="round" stroke-linejoin="round"/>
<path d="M132.889 323.147L126.955 324.796L128.603 330.73L134.537 329.081L132.889 323.147Z" stroke="#263238" stroke-width="0.882872" stroke-miterlimit="10" stroke-linecap="round" stroke-linejoin="round"/>
<path d="M143.639 320.157L137.705 321.806L139.354 327.74L145.288 326.091L143.639 320.157Z" stroke="#263238" stroke-width="0.882872" stroke-miterlimit="10" stroke-linecap="round" stroke-linejoin="round"/>
<path d="M154.383 317.171L148.449 318.819L150.098 324.753L156.032 323.105L154.383 317.171Z" stroke="#263238" stroke-width="0.882872" stroke-miterlimit="10" stroke-linecap="round" stroke-linejoin="round"/>
<path d="M165.128 314.186L159.194 315.835L160.843 321.768L166.777 320.119L165.128 314.186Z" stroke="#263238" stroke-width="0.882872" stroke-miterlimit="10" stroke-linecap="round" stroke-linejoin="round"/>
<path d="M118.409 310.247C118.636 311.066 118.158 311.915 117.338 312.142C116.519 312.369 115.67 311.891 115.443 311.071C115.215 310.251 115.694 309.403 116.514 309.176C117.333 308.948 118.182 309.428 118.409 310.247Z" fill="#263238"/>
<path d="M130.174 337.544L203.06 317.292" stroke="#263238" stroke-width="1.76574" stroke-miterlimit="10" stroke-linecap="round" stroke-linejoin="round"/>
<path d="M131.526 342.41L204.411 322.156" stroke="#263238" stroke-width="1.76574" stroke-miterlimit="10" stroke-linecap="round" stroke-linejoin="round"/>
<path d="M133.104 348.083L195.267 330.811" stroke="#263238" stroke-width="1.76574" stroke-miterlimit="10" stroke-linecap="round" stroke-linejoin="round"/>
<path d="M140.777 351.52L134.843 353.169L136.492 359.103L142.426 357.454L140.777 351.52Z" stroke="#263238" stroke-width="0.882872" stroke-miterlimit="10" stroke-linecap="round" stroke-linejoin="round"/>
<path d="M151.518 348.538L145.584 350.187L147.233 356.121L153.167 354.472L151.518 348.538Z" stroke="#263238" stroke-width="0.882872" stroke-miterlimit="10" stroke-linecap="round" stroke-linejoin="round"/>
<path d="M162.262 345.552L156.328 347.201L157.976 353.135L163.91 351.487L162.262 345.552Z" stroke="#263238" stroke-width="0.882872" stroke-miterlimit="10" stroke-linecap="round" stroke-linejoin="round"/>
<path d="M173.012 342.562L167.078 344.211L168.726 350.145L174.66 348.496L173.012 342.562Z" stroke="#263238" stroke-width="0.882872" stroke-miterlimit="10" stroke-linecap="round" stroke-linejoin="round"/>
<path d="M126.294 338.623C126.521 339.442 126.042 340.291 125.223 340.518C124.403 340.745 123.555 340.267 123.327 339.447C123.1 338.627 123.58 337.779 124.398 337.552C125.218 337.324 126.067 337.804 126.294 338.623Z" fill="#263238"/>
<path d="M138.059 365.922L210.944 345.668" stroke="#263238" stroke-width="1.76574" stroke-miterlimit="10" stroke-linecap="round" stroke-linejoin="round"/>
<path d="M139.411 370.786L212.296 350.532" stroke="#263238" stroke-width="1.76574" stroke-miterlimit="10" stroke-linecap="round" stroke-linejoin="round"/>
<path d="M140.987 376.46L203.151 359.187" stroke="#263238" stroke-width="1.76574" stroke-miterlimit="10" stroke-linecap="round" stroke-linejoin="round"/>
<path d="M148.657 379.898L142.723 381.547L144.371 387.481L150.305 385.832L148.657 379.898Z" stroke="#263238" stroke-width="0.882872" stroke-miterlimit="10" stroke-linecap="round" stroke-linejoin="round"/>
<path d="M159.405 376.91L153.471 378.559L155.12 384.492L161.054 382.843L159.405 376.91Z" stroke="#263238" stroke-width="0.882872" stroke-miterlimit="10" stroke-linecap="round" stroke-linejoin="round"/>
<path d="M170.146 373.927L164.212 375.576L165.861 381.51L171.795 379.862L170.146 373.927Z" stroke="#263238" stroke-width="0.882872" stroke-miterlimit="10" stroke-linecap="round" stroke-linejoin="round"/>
<path d="M180.89 370.942L174.956 372.591L176.605 378.525L182.539 376.876L180.89 370.942Z" stroke="#263238" stroke-width="0.882872" stroke-miterlimit="10" stroke-linecap="round" stroke-linejoin="round"/>
<path d="M134.179 366.998C134.406 367.817 133.927 368.666 133.108 368.893C132.288 369.12 131.44 368.642 131.212 367.822C130.985 367.002 131.464 366.154 132.283 365.927C133.102 365.699 133.95 366.179 134.179 366.998Z" fill="#263238"/>
<path d="M146.169 395.107L219.054 374.854" stroke="#263238" stroke-width="1.76574" stroke-miterlimit="10" stroke-linecap="round" stroke-linejoin="round"/>
<path d="M147.521 399.971L220.406 379.719" stroke="#263238" stroke-width="1.76574" stroke-miterlimit="10" stroke-linecap="round" stroke-linejoin="round"/>
<path d="M149.097 405.646L211.261 388.373" stroke="#263238" stroke-width="1.76574" stroke-miterlimit="10" stroke-linecap="round" stroke-linejoin="round"/>
<path d="M156.769 409.082L150.836 410.73L152.485 416.665L158.418 415.016L156.769 409.082Z" stroke="#263238" stroke-width="0.882872" stroke-miterlimit="10" stroke-linecap="round" stroke-linejoin="round"/>
<path d="M167.514 406.096L161.58 407.745L163.228 413.679L169.162 412.03L167.514 406.096Z" stroke="#263238" stroke-width="0.882872" stroke-miterlimit="10" stroke-linecap="round" stroke-linejoin="round"/>
<path d="M178.258 403.11L172.325 404.759L173.973 410.693L179.906 409.044L178.258 403.11Z" stroke="#263238" stroke-width="0.882872" stroke-miterlimit="10" stroke-linecap="round" stroke-linejoin="round"/>
<path d="M189.003 400.125L183.069 401.773L184.718 407.708L190.652 406.059L189.003 400.125Z" stroke="#263238" stroke-width="0.882872" stroke-miterlimit="10" stroke-linecap="round" stroke-linejoin="round"/>
<path d="M142.289 396.186C142.516 397.006 142.036 397.854 141.218 398.082C140.398 398.309 139.55 397.83 139.323 397.01C139.095 396.191 139.574 395.342 140.394 395.115C141.213 394.888 142.062 395.367 142.289 396.186Z" fill="#263238"/>
<path d="M139.868 323.733L141.062 324.783L143.015 320.314" stroke="#263238" stroke-width="1.76574" stroke-miterlimit="10" stroke-linecap="round" stroke-linejoin="round"/>
<path d="M136.95 355.395L138.144 356.446L140.097 351.977" stroke="#263238" stroke-width="1.76574" stroke-miterlimit="10" stroke-linecap="round" stroke-linejoin="round"/>
<path d="M144.827 383.476L146.021 384.527L147.976 380.057" stroke="#263238" stroke-width="1.76574" stroke-miterlimit="10" stroke-linecap="round" stroke-linejoin="round"/>
<path d="M174.413 406.48L175.607 407.53L177.561 403.062" stroke="#263238" stroke-width="1.76574" stroke-miterlimit="10" stroke-linecap="round" stroke-linejoin="round"/>
<path d="M249.055 226.125L148.462 235.786L162.982 386.974L263.575 377.313L249.055 226.125Z" fill="white" stroke="#263238" stroke-width="0.882872" stroke-miterlimit="10" stroke-linecap="round" stroke-linejoin="round"/>
<path d="M157.043 244.996L183.22 242.481" stroke="#263238" stroke-width="1.76574" stroke-miterlimit="10" stroke-linecap="round" stroke-linejoin="round"/>
<path d="M157.526 250.023L175.327 248.312" stroke="#263238" stroke-width="1.76574" stroke-miterlimit="10" stroke-linecap="round" stroke-linejoin="round"/>
<path d="M165.044 261.275L240.345 254.041" stroke="#263238" stroke-width="1.76574" stroke-miterlimit="10" stroke-linecap="round" stroke-linejoin="round"/>
<path d="M165.527 266.3L240.827 259.067" stroke="#263238" stroke-width="1.76574" stroke-miterlimit="10" stroke-linecap="round" stroke-linejoin="round"/>
<path d="M166.09 272.163L230.314 265.993" stroke="#263238" stroke-width="1.76574" stroke-miterlimit="10" stroke-linecap="round" stroke-linejoin="round"/>
<path d="M173.042 276.88L166.913 277.469L167.502 283.599L173.631 283.011L173.042 276.88Z" stroke="#263238" stroke-width="0.882872" stroke-miterlimit="10" stroke-linecap="round" stroke-linejoin="round"/>
<path d="M184.149 275.81L178.019 276.398L178.607 282.529L184.738 281.94L184.149 275.81Z" stroke="#263238" stroke-width="0.882872" stroke-miterlimit="10" stroke-linecap="round" stroke-linejoin="round"/>
<path d="M195.249 274.743L189.119 275.332L189.708 281.463L195.837 280.874L195.249 274.743Z" stroke="#263238" stroke-width="0.882872" stroke-miterlimit="10" stroke-linecap="round" stroke-linejoin="round"/>
<path d="M206.35 273.678L200.219 274.267L200.808 280.396L206.938 279.807L206.35 273.678Z" stroke="#263238" stroke-width="0.882872" stroke-miterlimit="10" stroke-linecap="round" stroke-linejoin="round"/>
<path d="M161.036 261.659C161.117 262.505 160.497 263.257 159.651 263.339C158.805 263.42 158.053 262.8 157.972 261.954C157.891 261.108 158.511 260.356 159.357 260.275C160.202 260.193 160.954 260.813 161.036 261.659Z" fill="#263238"/>
<path d="M167.86 290.59L243.16 283.356" stroke="#263238" stroke-width="1.76574" stroke-miterlimit="10" stroke-linecap="round" stroke-linejoin="round"/>
<path d="M168.342 295.615L243.644 288.383" stroke="#263238" stroke-width="1.76574" stroke-miterlimit="10" stroke-linecap="round" stroke-linejoin="round"/>
<path d="M168.905 301.478L233.129 295.309" stroke="#263238" stroke-width="1.76574" stroke-miterlimit="10" stroke-linecap="round" stroke-linejoin="round"/>
<path d="M175.865 306.191L169.735 306.78L170.324 312.911L176.454 312.322L175.865 306.191Z" stroke="#263238" stroke-width="0.882872" stroke-miterlimit="10" stroke-linecap="round" stroke-linejoin="round"/>
<path d="M186.966 305.126L180.835 305.715L181.424 311.845L187.554 311.257L186.966 305.126Z" stroke="#263238" stroke-width="0.882872" stroke-miterlimit="10" stroke-linecap="round" stroke-linejoin="round"/>
<path d="M198.07 304.056L191.94 304.645L192.529 310.775L198.659 310.186L198.07 304.056Z" stroke="#263238" stroke-width="0.882872" stroke-miterlimit="10" stroke-linecap="round" stroke-linejoin="round"/>
<path d="M209.16 302.999L203.03 303.588L203.618 309.717L209.749 309.128L209.16 302.999Z" stroke="#263238" stroke-width="0.882872" stroke-miterlimit="10" stroke-linecap="round" stroke-linejoin="round"/>
<path d="M163.851 290.974C163.932 291.821 163.312 292.572 162.466 292.655C161.62 292.736 160.868 292.116 160.786 291.269C160.705 290.423 161.325 289.671 162.171 289.589C163.019 289.508 163.77 290.128 163.851 290.974Z" fill="#263238"/>
<path d="M170.677 319.906L245.977 312.673" stroke="#263238" stroke-width="1.76574" stroke-miterlimit="10" stroke-linecap="round" stroke-linejoin="round"/>
<path d="M171.159 324.931L246.46 317.697" stroke="#263238" stroke-width="1.76574" stroke-miterlimit="10" stroke-linecap="round" stroke-linejoin="round"/>
<path d="M171.722 330.794L235.945 324.625" stroke="#263238" stroke-width="1.76574" stroke-miterlimit="10" stroke-linecap="round" stroke-linejoin="round"/>
<path d="M178.678 335.509L172.548 336.098L173.137 342.228L179.266 341.64L178.678 335.509Z" stroke="#263238" stroke-width="0.882872" stroke-miterlimit="10" stroke-linecap="round" stroke-linejoin="round"/>
<path d="M189.772 334.446L183.643 335.034L184.232 341.165L190.361 340.576L189.772 334.446Z" stroke="#263238" stroke-width="0.882872" stroke-miterlimit="10" stroke-linecap="round" stroke-linejoin="round"/>
<path d="M200.886 333.37L194.756 333.959L195.345 340.09L201.475 339.501L200.886 333.37Z" stroke="#263238" stroke-width="0.882872" stroke-miterlimit="10" stroke-linecap="round" stroke-linejoin="round"/>
<path d="M211.981 332.31L205.85 332.898L206.439 339.029L212.569 338.44L211.981 332.31Z" stroke="#263238" stroke-width="0.882872" stroke-miterlimit="10" stroke-linecap="round" stroke-linejoin="round"/>
<path d="M166.668 320.291C166.749 321.137 166.129 321.889 165.283 321.971C164.437 322.052 163.685 321.432 163.603 320.586C163.522 319.74 164.142 318.988 164.988 318.906C165.834 318.825 166.586 319.445 166.668 320.291Z" fill="#263238"/>
<path d="M173.573 350.058L248.873 342.825" stroke="#263238" stroke-width="1.76574" stroke-miterlimit="10" stroke-linecap="round" stroke-linejoin="round"/>
<path d="M174.055 355.083L249.356 347.85" stroke="#263238" stroke-width="1.76574" stroke-miterlimit="10" stroke-linecap="round" stroke-linejoin="round"/>
<path d="M174.618 360.946L238.841 354.777" stroke="#263238" stroke-width="1.76574" stroke-miterlimit="10" stroke-linecap="round" stroke-linejoin="round"/>
<path d="M181.575 365.661L175.445 366.25L176.033 372.379L182.164 371.791L181.575 365.661Z" stroke="#263238" stroke-width="0.882872" stroke-miterlimit="10" stroke-linecap="round" stroke-linejoin="round"/>
<path d="M192.676 364.595L186.545 365.184L187.134 371.314L193.265 370.725L192.676 364.595Z" stroke="#263238" stroke-width="0.882872" stroke-miterlimit="10" stroke-linecap="round" stroke-linejoin="round"/>
<path d="M203.776 363.529L197.646 364.118L198.234 370.249L204.365 369.66L203.776 363.529Z" stroke="#263238" stroke-width="0.882872" stroke-miterlimit="10" stroke-linecap="round" stroke-linejoin="round"/>
<path d="M214.884 362.458L208.753 363.047L209.342 369.177L215.473 368.589L214.884 362.458Z" stroke="#263238" stroke-width="0.882872" stroke-miterlimit="10" stroke-linecap="round" stroke-linejoin="round"/>
<path d="M169.564 350.445C169.645 351.292 169.025 352.043 168.179 352.124C167.333 352.205 166.581 351.585 166.499 350.739C166.418 349.893 167.038 349.141 167.884 349.059C168.73 348.978 169.482 349.599 169.564 350.445Z" fill="#263238"/>
<path d="M169.359 279.697L170.351 280.94L173.055 276.881" stroke="#263238" stroke-width="1.76574" stroke-miterlimit="10" stroke-linecap="round" stroke-linejoin="round"/>
<path d="M194.34 306.514L195.334 307.756L198.037 303.697" stroke="#263238" stroke-width="1.76574" stroke-miterlimit="10" stroke-linecap="round" stroke-linejoin="round"/>
<path d="M186.116 337.507L187.108 338.75L189.811 334.689" stroke="#263238" stroke-width="1.76574" stroke-miterlimit="10" stroke-linecap="round" stroke-linejoin="round"/>
<path d="M211.051 365.298L212.043 366.54L214.746 362.48" stroke="#263238" stroke-width="1.76574" stroke-miterlimit="10" stroke-linecap="round" stroke-linejoin="round"/>
<path d="M372.084 166.509H309.634C305.041 166.509 301.317 170.233 301.317 174.825V228.468C301.317 233.061 305.042 236.785 309.634 236.785H337.315L353.171 255.904L349.196 236.785H372.084C376.677 236.785 380.4 233.061 380.4 228.468V174.825C380.4 170.232 376.677 166.509 372.084 166.509Z" fill="white" stroke="#263238" stroke-width="0.882872" stroke-miterlimit="10" stroke-linecap="round" stroke-linejoin="round"/>
<path d="M345.852 195.957V190.276L341.596 189.91C341.342 189.011 340.991 188.157 340.543 187.359L343.291 184.094L339.274 180.077L336.009 182.825C335.211 182.377 334.357 182.026 333.459 181.772L333.092 177.516H327.411L327.045 181.772C326.146 182.026 325.292 182.377 324.494 182.825L321.229 180.077L317.212 184.094L319.96 187.359C319.513 188.157 319.161 189.011 318.908 189.91L314.652 190.276V195.957L318.908 196.324C319.162 197.222 319.514 198.076 319.96 198.874L317.212 202.139L321.229 206.156L324.494 203.408C325.292 203.856 326.146 204.207 327.045 204.46L327.411 208.716H333.092L333.459 204.46C334.357 204.206 335.211 203.854 336.009 203.408L339.274 206.156L343.291 202.139L340.543 198.874C340.991 198.076 341.342 197.222 341.596 196.324L345.852 195.957ZM330.25 199.718C326.605 199.718 323.649 196.762 323.649 193.115C323.649 189.47 326.605 186.513 330.25 186.513C333.896 186.513 336.853 189.468 336.853 193.115C336.853 196.762 333.897 199.718 330.25 199.718Z" fill="#FFE26D"/>
<path d="M364.65 208.638V204.596L361.622 204.335C361.442 203.696 361.192 203.088 360.873 202.521L362.828 200.197L359.969 197.339L357.645 199.293C357.078 198.975 356.469 198.725 355.831 198.544L355.57 195.516H351.528L351.266 198.544C350.627 198.724 350.019 198.974 349.452 199.293L347.129 197.339L344.27 200.197L346.225 202.521C345.907 203.088 345.656 203.697 345.476 204.335L342.448 204.596V208.638L345.476 208.9C345.656 209.539 345.907 210.147 346.225 210.714L344.27 213.037L347.129 215.896L349.452 213.942C350.019 214.259 350.628 214.51 351.266 214.69L351.528 217.718H355.57L355.831 214.69C356.47 214.51 357.078 214.259 357.645 213.942L359.969 215.896L362.828 213.037L360.873 210.714C361.191 210.147 361.441 209.538 361.622 208.9L364.65 208.638ZM353.549 211.315C350.955 211.315 348.851 209.211 348.851 206.617C348.851 204.023 350.955 201.92 353.549 201.92C356.143 201.92 358.246 204.023 358.246 206.617C358.246 209.211 356.143 211.315 353.549 211.315Z" fill="#FFE26D"/>
<path d="M344.873 218.055V215.178L342.718 214.992C342.59 214.537 342.411 214.105 342.185 213.701L343.576 212.047L341.542 210.013L339.888 211.404C339.484 211.178 339.052 210.999 338.597 210.871L338.411 208.716H335.534L335.348 210.871C334.893 210.999 334.461 211.178 334.057 211.404L332.403 210.013L330.369 212.047L331.76 213.701C331.534 214.105 331.355 214.537 331.227 214.992L329.072 215.178V218.055L331.227 218.241C331.355 218.696 331.534 219.129 331.76 219.532L330.369 221.186L332.403 223.22L334.057 221.829C334.461 222.055 334.893 222.234 335.348 222.362L335.534 224.517H338.411L338.597 222.362C339.052 222.234 339.484 222.056 339.888 221.829L341.542 223.22L343.576 221.186L342.185 219.532C342.411 219.129 342.59 218.696 342.718 218.241L344.873 218.055ZM336.974 219.959C335.128 219.959 333.631 218.462 333.631 216.617C333.631 214.771 335.128 213.274 336.974 213.274C338.82 213.274 340.316 214.771 340.316 216.617C340.316 218.462 338.821 219.959 336.974 219.959Z" fill="#FFE26D"/>
<path d="M339.188 372.797L387.875 552.406H395.156L346.47 372.797H339.188Z" fill="#757575" stroke="#263238" stroke-width="0.882872" stroke-miterlimit="10" stroke-linecap="round" stroke-linejoin="round"/>
<path d="M448.846 501.488H356.551V509.002H448.846V501.488Z" fill="#999999" stroke="#263238" stroke-width="0.882872" stroke-miterlimit="10" stroke-linecap="round" stroke-linejoin="round"/>
<path d="M498.078 332.45L438.456 552.406H431.174L490.797 332.45C492.995 324.338 487.953 317.744 479.55 317.744H428.173C419.785 317.744 411.153 324.338 408.954 332.45L349.332 552.406H342.051L401.673 332.45C404.928 320.443 417.642 310.715 430.079 310.715H481.456C493.892 310.715 501.333 320.445 498.078 332.45Z" fill="#757575" stroke="#263238" stroke-width="0.882872" stroke-miterlimit="10" stroke-linecap="round" stroke-linejoin="round"/>
<path d="M499.025 332.523L484.229 387.137C483.008 391.646 478.233 395.296 473.567 395.296H389.144C384.478 395.296 381.686 391.646 382.907 387.137L397.715 332.523C398.936 328.026 403.71 324.363 408.376 324.363H492.788C497.454 324.363 500.246 328.026 499.025 332.523Z" fill="#FFE26D"/>
<mask id="mask2_361_1782" style="mask-type:luminance" maskUnits="userSpaceOnUse" x="382" y="324" width="118" height="72">
<path d="M499.025 332.523L484.229 387.137C483.008 391.646 478.233 395.296 473.567 395.296H389.144C384.478 395.296 381.686 391.646 382.907 387.137L397.715 332.523C398.936 328.026 403.71 324.363 408.376 324.363H492.788C497.454 324.363 500.246 328.026 499.025 332.523Z" fill="white"/>
</mask>
<g mask="url(#mask2_361_1782)">
<path opacity="0.2" d="M499.025 332.523L484.23 387.137C483.009 391.646 478.234 395.296 473.568 395.296H389.145C384.479 395.296 381.686 391.646 382.907 387.137L397.715 332.523C398.936 328.026 403.711 324.363 408.377 324.363H452.027C470.896 343.741 468.491 379.352 467.258 390.11C471.126 389.192 474.656 386.013 475.683 382.229L490.491 327.615C490.806 326.455 490.854 325.355 490.673 324.363H492.788C497.454 324.363 500.246 328.026 499.025 332.523Z" fill="black" fill-opacity="0.7"/>
</g>
<path d="M499.025 332.523L484.229 387.137C483.008 391.646 478.233 395.296 473.567 395.296H389.144C384.478 395.296 381.686 391.646 382.907 387.137L397.715 332.523C398.936 328.026 403.71 324.363 408.376 324.363H492.788C497.454 324.363 500.246 328.026 499.025 332.523Z" stroke="#263238" stroke-width="0.882872" stroke-miterlimit="10" stroke-linecap="round" stroke-linejoin="round"/>
<path d="M449.395 450.571L476.999 552.405H484.28L456.676 450.571H449.395Z" fill="#757575" stroke="#263238" stroke-width="0.882872" stroke-miterlimit="10" stroke-linecap="round" stroke-linejoin="round"/>
<path d="M456.704 438.887V448.847H348.008V438.887C348.008 434.837 351.284 431.562 355.334 431.562H449.367C452.752 431.562 455.604 433.846 456.451 436.965C456.62 437.569 456.704 438.222 456.704 438.887Z" fill="#FFE26D"/>
<mask id="mask3_361_1782" style="mask-type:luminance" maskUnits="userSpaceOnUse" x="348" y="431" width="109" height="18">
<path d="M456.704 438.888V448.848H348.008V438.888C348.008 434.838 351.284 431.562 355.334 431.562H449.367C452.752 431.562 455.604 433.847 456.451 436.966C456.62 437.57 456.704 438.223 456.704 438.888Z" fill="white"/>
</mask>
<g mask="url(#mask3_361_1782)">
<path opacity="0.2" d="M456.451 436.966C452.933 441.1 446.623 445.307 435.768 448.848H348.008V438.888C348.008 434.838 351.284 431.562 355.334 431.562H449.367C452.752 431.563 455.604 433.847 456.451 436.966Z" fill="black" fill-opacity="0.7"/>
</g>
<path d="M456.704 438.887V448.847H348.008V438.887C348.008 434.837 351.284 431.562 355.334 431.562H449.367C452.752 431.562 455.604 433.846 456.451 436.965C456.62 437.569 456.704 438.222 456.704 438.887Z" stroke="#263238" stroke-width="0.882872" stroke-miterlimit="10" stroke-linecap="round" stroke-linejoin="round"/>
<path d="M460.397 455.139H345.262C344.123 455.139 343.2 454.216 343.2 453.077V447.856C343.2 446.717 344.123 445.794 345.262 445.794H460.397C461.536 445.794 462.46 446.717 462.46 447.856V453.077C462.46 454.216 461.536 455.139 460.397 455.139Z" fill="#999999" stroke="#263238" stroke-width="0.882872" stroke-miterlimit="10" stroke-linecap="round" stroke-linejoin="round"/>
<path d="M344.478 446.141C339.268 451.448 364.52 534.831 364.52 534.831C361.764 537.225 357.702 538.361 353.858 538.869C348.298 539.606 343.209 539.026 343.209 539.026C343.209 539.026 307.017 451.242 316.978 429.459C326.938 407.677 388.745 397.704 388.745 397.704L391.38 391.176L423.353 386.68L428.635 425.833C428.635 425.833 423.389 426.341 415.496 427.356C394.329 430.076 354.052 436.398 344.478 446.141Z" fill="#263238"/>
<mask id="mask4_361_1782" style="mask-type:luminance" maskUnits="userSpaceOnUse" x="315" y="386" width="114" height="154">
<path d="M344.478 446.143C339.268 451.45 364.52 534.833 364.52 534.833C361.764 537.227 357.702 538.363 353.858 538.871C348.298 539.608 343.209 539.028 343.209 539.028C343.209 539.028 307.017 451.244 316.978 429.461C326.938 407.679 388.745 397.706 388.745 397.706L391.38 391.178L423.353 386.682L428.635 425.835C428.635 425.835 423.389 426.343 415.496 427.358C394.329 430.078 354.052 436.4 344.478 446.143Z" fill="white"/>
</mask>
<g mask="url(#mask4_361_1782)">
<path opacity="0.3" d="M364.52 534.833C361.764 537.226 357.702 538.362 353.858 538.87C346.835 512.76 328.957 443.084 335.738 434.562C344.091 424.045 385.432 414.484 385.432 414.484C385.602 409.116 400.095 404.281 400.095 404.281L415.496 427.357C394.329 430.077 354.052 436.399 344.478 446.142C339.268 451.449 364.52 534.833 364.52 534.833Z" fill="black"/>
</g>
<path d="M344.478 446.141C339.268 451.448 364.52 534.831 364.52 534.831C361.764 537.225 357.702 538.361 353.858 538.869C348.298 539.606 343.209 539.026 343.209 539.026C343.209 539.026 307.017 451.242 316.978 429.459C326.938 407.677 388.745 397.704 388.745 397.704L391.38 391.176L423.353 386.68L428.635 425.833C428.635 425.833 423.389 426.341 415.496 427.356C394.329 430.076 354.052 436.398 344.478 446.141Z" stroke="#263238" stroke-width="0.882872" stroke-miterlimit="10" stroke-linecap="round" stroke-linejoin="round"/>
<path d="M326.594 367.173C321.282 366.257 359.061 333.141 359.061 333.141L377.273 345.402C377.273 345.402 346.276 367.228 341.408 367.826C336.539 368.425 326.594 367.173 326.594 367.173Z" fill="white"/>
<mask id="mask5_361_1782" style="mask-type:luminance" maskUnits="userSpaceOnUse" x="326" y="333" width="52" height="35">
<path d="M326.594 367.173C321.282 366.257 359.061 333.141 359.061 333.141L377.273 345.402C377.273 345.402 346.276 367.228 341.408 367.826C336.539 368.425 326.594 367.173 326.594 367.173Z" fill="white"/>
</mask>
<g mask="url(#mask5_361_1782)">
<path opacity="0.2" d="M326.594 367.173C321.282 366.257 359.061 333.141 359.061 333.141L377.273 345.402C377.273 345.402 346.276 367.228 341.408 367.826C336.539 368.425 326.594 367.173 326.594 367.173Z" fill="black" fill-opacity="0.7"/>
</g>
<path d="M326.594 367.173C321.282 366.257 359.061 333.141 359.061 333.141L377.273 345.402C377.273 345.402 346.276 367.228 341.408 367.826C336.539 368.425 326.594 367.173 326.594 367.173Z" stroke="#263238" stroke-width="0.882872" stroke-miterlimit="10" stroke-linecap="round" stroke-linejoin="round"/>
<path d="M333.253 353.241C333.253 353.241 341.172 355.21 343.591 356.9C346.01 358.59 345.328 364.547 345.328 364.547C345.328 364.547 334.749 361.531 333.253 353.241Z" fill="white" stroke="#263238" stroke-width="0.882872" stroke-miterlimit="10" stroke-linecap="round" stroke-linejoin="round"/>
<path d="M328.172 338.079L342.891 366.309H344.635L330.654 336.686L328.172 338.079Z" fill="#263238"/>
<path d="M341.444 358.489C341.444 358.489 332.16 351.888 329.891 351.888C327.622 351.888 320.814 359.93 320.814 363.954C320.814 367.978 335.65 370.217 338.556 366.792C340.001 365.09 337.13 360.982 337.13 360.982C337.13 360.982 341.444 365.452 342.682 366.121C343.92 366.792 346.189 365.915 346.189 365.915C346.189 365.915 343.094 360.982 341.444 358.489Z" fill="white" stroke="#263238" stroke-width="0.882872" stroke-miterlimit="10" stroke-linecap="round" stroke-linejoin="round"/>
<path d="M337.129 367.747C337.129 367.747 333.605 363.165 329.375 360.981" stroke="#263238" stroke-width="0.882872" stroke-miterlimit="10" stroke-linecap="round" stroke-linejoin="round"/>
<path d="M337.13 360.982C337.13 360.982 333.914 358.179 331.748 357.561" stroke="#263238" stroke-width="0.882872" stroke-miterlimit="10" stroke-linecap="round" stroke-linejoin="round"/>
<path d="M327.011 364.549C327.011 364.549 332.212 367.283 333.502 368.445" stroke="#263238" stroke-width="0.882872" stroke-miterlimit="10" stroke-linecap="round" stroke-linejoin="round"/>
<path d="M370.897 318.657C366.138 321.977 344.807 343.91 344.807 343.91C344.807 343.91 354.804 355.279 363.564 356.932L387.315 345.402L370.897 318.657Z" fill="#FFE26D" stroke="#263238" stroke-width="0.882872" stroke-miterlimit="10" stroke-linecap="round" stroke-linejoin="round"/>
<path opacity="0.4" d="M370.897 318.657C366.138 321.977 344.807 343.91 344.807 343.91C344.807 343.91 354.804 355.279 363.564 356.932L387.315 345.402L370.897 318.657Z" fill="white" stroke="#263238" stroke-width="0.882872" stroke-miterlimit="10" stroke-linecap="round" stroke-linejoin="round"/>
<path d="M359.419 525.979L369.462 552.406C369.462 552.406 371.136 559.214 340.77 557.062L324.033 555.627L359.419 525.979Z" fill="#FFE26D"/>
<mask id="mask6_361_1782" style="mask-type:luminance" maskUnits="userSpaceOnUse" x="324" y="525" width="46" height="33">
<path d="M359.419 525.978L369.462 552.405C369.462 552.405 371.136 559.213 340.77 557.061L324.033 555.626L359.419 525.978Z" fill="white"/>
</mask>
<g mask="url(#mask6_361_1782)">
<path opacity="0.3" d="M359.419 525.978L369.462 552.405C369.462 552.405 371.136 559.213 340.77 557.061L324.033 555.626L359.419 525.978Z" fill="black"/>
</g>
<path d="M359.419 525.979L369.462 552.406C369.462 552.406 371.136 559.214 340.77 557.062L324.033 555.627L359.419 525.979Z" stroke="#263238" stroke-width="0.882872" stroke-miterlimit="10" stroke-linecap="round" stroke-linejoin="round"/>
<path d="M355.593 538.652C355.593 538.652 357.745 548.933 355.593 556.585C355.593 556.585 323.554 561.606 316.379 559.693C309.206 557.781 304.862 554.206 304.643 552.406C304.643 552.406 304.903 547.498 312.076 546.064C319.249 544.629 333.543 543.673 339.188 535.543C344.834 527.415 355.593 538.652 355.593 538.652Z" fill="#FFE26D" stroke="#263238" stroke-width="0.882872" stroke-miterlimit="10" stroke-linecap="round" stroke-linejoin="round"/>
<path d="M397.884 390.152C408.125 375.547 455.189 393.123 455.189 393.123C455.189 393.123 459.68 428.275 440.932 437.649C422.184 447.024 395.154 446.525 387.853 454.128L358.138 541.867C358.138 541.867 347.468 546.331 331.942 539.301C331.942 539.301 350.81 473.042 356.345 449.52C361.822 426.244 397.283 410.438 397.283 410.438C397.283 410.438 394.3 407.062 393.2 403.091" fill="#263238"/>
<path d="M397.884 390.152C408.125 375.547 455.189 393.123 455.189 393.123C455.189 393.123 459.68 428.275 440.932 437.649C422.184 447.024 395.154 446.525 387.853 454.128L358.138 541.867C358.138 541.867 347.468 546.331 331.942 539.301C331.942 539.301 350.81 473.042 356.345 449.52C361.822 426.244 397.283 410.438 397.283 410.438C397.283 410.438 394.3 407.062 393.2 403.091" stroke="#263238" stroke-width="0.882872" stroke-miterlimit="10" stroke-linecap="round" stroke-linejoin="round"/>
<path d="M445.541 423.753C444.035 425.089 442.446 426.331 440.792 427.48" stroke="white" stroke-width="0.882872" stroke-miterlimit="10" stroke-linecap="round" stroke-linejoin="round"/>
<path d="M449.395 393.982C453.233 402.318 453.535 412.915 448.152 420.634" stroke="white" stroke-width="0.882872" stroke-miterlimit="10" stroke-linecap="round" stroke-linejoin="round"/>
<path d="M438.671 395.297C438.671 395.297 437.686 401.723 440.556 404.273C443.425 406.824 452.21 408.127 452.21 408.127" stroke="white" stroke-width="0.882872" stroke-miterlimit="10" stroke-linecap="round" stroke-linejoin="round"/>
<path d="M400.079 395.607C400.079 395.607 400.481 402.02 397.884 401.712C395.285 401.405 395.155 404.273 395.155 404.273" stroke="white" stroke-width="0.882872" stroke-miterlimit="10" stroke-linecap="round" stroke-linejoin="round"/>
<path d="M371.517 323.584C371.124 321.882 370.897 320.221 370.897 318.657C370.897 318.657 385.437 306.427 404.074 306.491C426.314 306.568 439.91 313.563 445.36 323.282C453.983 338.662 455.19 393.123 455.19 393.123C455.19 393.123 399.385 401.731 391.377 391.17C389.989 389.34 391.053 376.361 391.053 376.361C391.053 376.361 384.804 359.975 383.486 347.26C383.486 347.26 381.081 344.023 378.373 339.405C376.588 336.359 374.67 332.713 373.224 328.998" fill="#FFE26D"/>
<path d="M371.517 323.584C371.124 321.882 370.897 320.221 370.897 318.657C370.897 318.657 385.437 306.427 404.074 306.491C426.314 306.568 439.91 313.563 445.36 323.282C453.983 338.662 455.19 393.123 455.19 393.123C455.19 393.123 399.385 401.731 391.377 391.17C389.989 389.34 391.053 376.361 391.053 376.361C391.053 376.361 384.804 359.975 383.486 347.26C383.486 347.26 381.081 344.023 378.373 339.405C376.588 336.359 374.67 332.713 373.224 328.998" stroke="#263238" stroke-width="0.882872" stroke-miterlimit="10" stroke-linecap="round" stroke-linejoin="round"/>
<g opacity="0.6">
<path d="M371.517 323.584C371.124 321.882 370.897 320.221 370.897 318.657C370.897 318.657 385.437 306.427 404.074 306.491C426.314 306.568 439.91 313.563 445.36 323.282C453.983 338.662 455.19 393.123 455.19 393.123C455.19 393.123 399.385 401.731 391.377 391.17C389.989 389.34 391.053 376.361 391.053 376.361C391.053 376.361 384.804 359.975 383.486 347.26C383.486 347.26 381.081 344.023 378.373 339.405C376.588 336.359 374.67 332.713 373.224 328.998" fill="white"/>
<path d="M371.517 323.584C371.124 321.882 370.897 320.221 370.897 318.657C370.897 318.657 385.437 306.427 404.074 306.491C426.314 306.568 439.91 313.563 445.36 323.282C453.983 338.662 455.19 393.123 455.19 393.123C455.19 393.123 399.385 401.731 391.377 391.17C389.989 389.34 391.053 376.361 391.053 376.361C391.053 376.361 384.804 359.975 383.486 347.26C383.486 347.26 381.081 344.023 378.373 339.405C376.588 336.359 374.67 332.713 373.224 328.998" stroke="#263238" stroke-width="0.882872" stroke-miterlimit="10" stroke-linecap="round" stroke-linejoin="round"/>
</g>
<path d="M392.893 336.684C392.893 336.684 401.415 369.747 400.102 377.016C399.453 380.614 401.343 384.351 401.343 384.351C401.343 384.351 397.453 388.179 400.102 393.275" stroke="#263238" stroke-width="0.882872" stroke-miterlimit="10" stroke-linecap="round" stroke-linejoin="round"/>
<path d="M415.501 364.033C413.837 363.893 412.313 363.496 411.219 362.684L408.691 351.611C408.691 351.611 416.485 352.468 423.658 350.564L426.369 362.684C426.369 362.684 424.36 363.27 421.73 363.687" stroke="#263238" stroke-width="0.882872" stroke-miterlimit="10" stroke-linecap="round" stroke-linejoin="round"/>
<path d="M386.838 340.982C386.838 340.982 379.635 310.085 397.884 306.492C416.131 302.899 419.946 311.453 418.865 317.248C417.427 324.967 402.263 343.911 402.263 343.911L392.891 336.684L386.838 340.982Z" fill="#FFE26D" stroke="#263238" stroke-width="0.882872" stroke-miterlimit="10" stroke-linecap="round" stroke-linejoin="round"/>
<path opacity="0.4" d="M386.838 340.982C386.838 340.982 379.635 310.085 397.884 306.492C416.131 302.899 419.946 311.453 418.865 317.248C417.427 324.967 402.263 343.911 402.263 343.911L392.891 336.684L386.838 340.982Z" fill="white" stroke="#263238" stroke-width="0.882872" stroke-miterlimit="10" stroke-linecap="round" stroke-linejoin="round"/>
<path d="M362.833 436.365C362.833 436.365 374.648 422.713 401.342 412.404C401.342 412.404 394.424 410.284 392.891 407.414" stroke="white" stroke-width="0.882872" stroke-miterlimit="10" stroke-linecap="round" stroke-linejoin="round"/>
<path d="M348.93 478.188L338.114 517.422" stroke="white" stroke-width="0.882872" stroke-miterlimit="10" stroke-linecap="round" stroke-linejoin="round"/>
<path d="M432.426 365.099C432.426 365.099 437.291 373.266 457.175 372.512C457.175 372.512 451.714 366.288 443.585 364.08C435.454 361.874 432.426 365.099 432.426 365.099Z" fill="#FFE26D" stroke="#263238" stroke-width="0.882872" stroke-miterlimit="10" stroke-linecap="round" stroke-linejoin="round"/>
<path d="M355.185 368.382C355.185 368.382 359.803 361.222 364.042 359.787C368.28 358.353 380.699 358.228 382.612 358.177C384.526 358.127 418.692 366.806 434.711 372.144L433.316 345.401L454.852 347.097C454.852 347.097 453.983 379.747 450.636 388.384C447.289 397.021 442.492 394.923 434.305 391.395C402.111 377.526 383.251 367.865 381.504 368.382C379.757 368.901 355.185 368.382 355.185 368.382Z" fill="white" stroke="#263238" stroke-width="0.882872" stroke-miterlimit="10" stroke-linecap="round" stroke-linejoin="round"/>
<path d="M427.939 329.857C427.376 332.193 427.167 334.554 427.406 336.647C428.362 345.015 432.428 365.101 432.428 365.101C432.428 365.101 452.514 367.971 457.177 372.513C457.177 372.513 460.483 345.888 453.749 332.421C447.014 318.953 440.025 317.427 440.025 317.427C435.615 316.335 431.614 320.452 429.323 325.727" fill="#FFE26D"/>
<path d="M427.939 329.857C427.376 332.193 427.167 334.554 427.406 336.647C428.362 345.015 432.428 365.101 432.428 365.101C432.428 365.101 452.514 367.971 457.177 372.513C457.177 372.513 460.483 345.888 453.749 332.421C447.014 318.953 440.025 317.427 440.025 317.427C435.615 316.335 431.614 320.452 429.323 325.727" stroke="#263238" stroke-width="0.882872" stroke-miterlimit="10" stroke-linecap="round" stroke-linejoin="round"/>
<g opacity="0.4">
<path d="M427.939 329.857C427.376 332.193 427.167 334.554 427.406 336.647C428.362 345.015 432.428 365.101 432.428 365.101C432.428 365.101 452.514 367.971 457.177 372.513C457.177 372.513 460.483 345.888 453.749 332.421C447.014 318.953 440.025 317.427 440.025 317.427C435.615 316.335 431.614 320.452 429.323 325.727" fill="white"/>
<path d="M427.939 329.857C427.376 332.193 427.167 334.554 427.406 336.647C428.362 345.015 432.428 365.101 432.428 365.101C432.428 365.101 452.514 367.971 457.177 372.513C457.177 372.513 460.483 345.888 453.749 332.421C447.014 318.953 440.025 317.427 440.025 317.427C435.615 316.335 431.614 320.452 429.323 325.727" stroke="#263238" stroke-width="0.882872" stroke-miterlimit="10" stroke-linecap="round" stroke-linejoin="round"/>
</g>
<path d="M368.944 340.195C368.944 340.195 372.887 343.755 379.225 345.403" stroke="#263238" stroke-width="0.882872" stroke-miterlimit="10" stroke-linecap="round" stroke-linejoin="round"/>
<path d="M432.426 340.195C432.426 340.195 439.723 353.903 448.844 356.933" stroke="#263238" stroke-width="0.882872" stroke-miterlimit="10" stroke-linecap="round" stroke-linejoin="round"/>
<path d="M385.437 445.795C385.437 445.795 386.776 446.808 387.315 450.468" stroke="white" stroke-width="0.882872" stroke-miterlimit="10" stroke-linecap="round" stroke-linejoin="round"/>
<path d="M380.461 450.469C380.461 450.469 384.161 450.697 386.376 453.881" stroke="white" stroke-width="0.882872" stroke-miterlimit="10" stroke-linecap="round" stroke-linejoin="round"/>
<path d="M340.489 436.365C340.489 436.365 344.362 438.321 343.522 443.867" stroke="white" stroke-width="0.882872" stroke-miterlimit="10" stroke-linecap="round" stroke-linejoin="round"/>
<path d="M336.404 441.132C336.404 441.132 341.688 444.263 342.065 447.077" stroke="white" stroke-width="0.882872" stroke-miterlimit="10" stroke-linecap="round" stroke-linejoin="round"/>
<path d="M397.628 407.308C397.628 407.308 409.393 408.96 412.023 407.308" stroke="white" stroke-width="0.882872" stroke-miterlimit="10" stroke-linecap="round" stroke-linejoin="round"/>
<path d="M392.891 335.353C392.891 335.353 391.392 331.787 391.658 326.371C391.706 325.392 391.803 324.365 391.984 323.289L389.941 320.049L387.318 315.879L390.352 303.73C390.352 303.73 409.669 307.454 411.144 312.845C412.607 318.26 392.891 335.353 392.891 335.353Z" fill="white"/>
<mask id="mask7_361_1782" style="mask-type:luminance" maskUnits="userSpaceOnUse" x="387" y="303" width="25" height="33">
<path d="M392.891 335.354C392.891 335.354 391.392 331.788 391.658 326.372C391.706 325.393 391.803 324.366 391.984 323.29L389.941 320.05L387.318 315.88L390.352 303.731C390.352 303.731 409.669 307.455 411.144 312.846C412.607 318.261 392.891 335.354 392.891 335.354Z" fill="white"/>
</mask>
<g mask="url(#mask7_361_1782)">
<path opacity="0.2" d="M391.658 326.373C391.706 325.394 391.803 324.367 391.984 323.291L389.941 320.051C393.29 319.387 396.953 317.9 399.382 314.757C399.382 314.757 400.023 323.134 391.658 326.373Z" fill="black" fill-opacity="0.7"/>
</g>
<path d="M392.891 335.353C392.891 335.353 391.392 331.787 391.658 326.371C391.706 325.392 391.803 324.365 391.984 323.289L389.941 320.049L387.318 315.879L390.352 303.73C390.352 303.73 409.669 307.454 411.144 312.845C412.607 318.26 392.891 335.353 392.891 335.353Z" stroke="#263238" stroke-width="0.882872" stroke-miterlimit="10" stroke-linecap="round" stroke-linejoin="round"/>
<path d="M405.033 304.807C411.011 289.045 407.062 262.34 378.043 267.468C360.962 270.487 358.975 291.064 364.679 300.195C370.383 309.326 364.322 309.627 372.879 316.401C376.339 319.14 379.141 323.802 383.273 324.095C388.187 324.442 394.492 319.783 399.189 314.76" fill="white"/>
<path d="M405.033 304.807C411.011 289.045 407.062 262.34 378.043 267.468C360.962 270.487 358.975 291.064 364.679 300.195C370.383 309.326 364.322 309.627 372.879 316.401C376.339 319.14 379.141 323.802 383.273 324.095C388.187 324.442 394.492 319.783 399.189 314.76" stroke="#263238" stroke-width="0.882872" stroke-miterlimit="10" stroke-linecap="round" stroke-linejoin="round"/>
<path d="M376.444 300.195C376.444 300.195 380.722 296.313 385.803 297.917" stroke="#263238" stroke-width="0.882872" stroke-miterlimit="10" stroke-linecap="round" stroke-linejoin="round"/>
<path d="M368.421 300.196C368.421 300.196 366.966 297.118 362.88 296.448" stroke="#263238" stroke-width="0.882872" stroke-miterlimit="10" stroke-linecap="round" stroke-linejoin="round"/>
<path d="M371.249 305.804C371.249 305.804 370.638 308.942 369.83 312.11C369.045 315.185 374.901 313.547 374.638 313.057" fill="white"/>
<path d="M371.249 305.804C371.249 305.804 370.638 308.942 369.83 312.11C369.045 315.185 374.901 313.547 374.638 313.057" stroke="#263238" stroke-width="0.882872" stroke-miterlimit="10" stroke-linecap="round" stroke-linejoin="round"/>
<path d="M377.695 317.079C377.695 317.079 381.446 316.182 384.062 312.903" stroke="#263238" stroke-width="0.882872" stroke-miterlimit="10" stroke-linecap="round" stroke-linejoin="round"/>
<path d="M382.394 304.177C382.633 305.056 382.272 305.92 381.585 306.106C380.899 306.294 380.148 305.733 379.909 304.854C379.669 303.975 380.031 303.111 380.718 302.925C381.403 302.737 382.154 303.298 382.394 304.177Z" fill="#263238"/>
<path d="M369.457 303.906C369.697 304.785 369.52 305.599 369.062 305.723C368.604 305.848 368.039 305.237 367.799 304.358C367.559 303.48 367.736 302.666 368.194 302.542C368.652 302.417 369.217 303.027 369.457 303.906Z" fill="#263238"/>
<path d="M387.14 284.012C387.14 284.012 382.638 295.777 371.518 295.51C371.518 295.51 375.374 292.573 376.443 289.764C376.443 289.764 367.886 298.237 359.329 293.933C350.771 289.628 354.931 269.63 368.094 261.703C381.256 253.777 394.626 255.912 399.172 263.462C399.172 263.462 408.365 262.617 412.409 276.123C416.018 288.181 410.242 306.529 404.563 306.741C395.778 307.07 394.009 297.529 394.009 297.529C394.009 297.529 388.744 292.836 387.14 284.012Z" fill="#263238" stroke="#263238" stroke-width="0.882872" stroke-miterlimit="10" stroke-linecap="round" stroke-linejoin="round"/>
<path d="M396.767 304.869C396.767 304.869 396.5 293.772 402.783 295.109C409.068 296.446 404.52 309.281 399.774 309.148" fill="white"/>
<path d="M396.767 304.869C396.767 304.869 396.5 293.772 402.783 295.109C409.068 296.446 404.52 309.281 399.774 309.148" stroke="#263238" stroke-width="0.882872" stroke-miterlimit="10" stroke-linecap="round" stroke-linejoin="round"/>
<path d="M377.255 374.506H279.782C278.695 374.506 277.812 373.624 277.812 372.536V369.142C277.812 368.054 278.694 367.173 279.782 367.173H377.255C378.343 367.173 379.224 368.054 379.224 369.142V372.536C379.224 373.624 378.343 374.506 377.255 374.506Z" fill="#FFE26D" stroke="#263238" stroke-width="0.882872" stroke-miterlimit="10" stroke-linecap="round" stroke-linejoin="round"/>
<path d="M135.936 514.828H94.8247L99.1305 552.406H131.629L135.936 514.828Z" fill="#263238" stroke="#263238" stroke-width="0.882872" stroke-miterlimit="10" stroke-linecap="round" stroke-linejoin="round"/>
<path d="M140.805 488.662C140.805 488.662 122.851 490.079 122.101 503.326C122.101 503.326 140.283 511.697 140.805 488.662Z" fill="#FFE26D" stroke="#263238" stroke-width="0.882872" stroke-miterlimit="10" stroke-linecap="round" stroke-linejoin="round"/>
<path d="M105.287 491.952C105.287 491.952 95.2561 478.39 79.0483 485.344C79.0483 485.344 88.9461 501.741 105.287 491.952Z" fill="#FFE26D" stroke="#263238" stroke-width="0.882872" stroke-miterlimit="10" stroke-linecap="round" stroke-linejoin="round"/>
<path d="M80.4217 449.134C80.4217 449.134 77.5375 475.225 101.286 468.04C101.286 468.04 93.744 448.858 80.4217 449.134Z" fill="#FFE26D" stroke="#263238" stroke-width="0.882872" stroke-miterlimit="10" stroke-linecap="round" stroke-linejoin="round"/>
<path d="M109.581 434.61C109.581 434.61 90.7994 444.739 104.609 460.108C104.609 460.108 117.781 449.131 109.581 434.61Z" fill="#FFE26D" stroke="#263238" stroke-width="0.882872" stroke-miterlimit="10" stroke-linecap="round" stroke-linejoin="round"/>
<path d="M132.69 457.925C132.69 457.925 112.27 455.866 112.27 474.769C112.27 474.769 132.69 475.573 132.69 457.925Z" fill="#FFE26D" stroke="#263238" stroke-width="0.882872" stroke-miterlimit="10" stroke-linecap="round" stroke-linejoin="round"/>
<path d="M113.433 530.309C113.433 530.309 122.743 510.771 113.807 490.872C104.87 470.972 101.848 454.216 106.518 442.403" stroke="#263238" stroke-width="0.882872" stroke-miterlimit="10" stroke-linecap="round" stroke-linejoin="round"/>
<path d="M125.982 463.006C125.982 463.006 113.741 467.869 109.581 480.478" stroke="#263238" stroke-width="0.882872" stroke-miterlimit="10" stroke-linecap="round" stroke-linejoin="round"/>
<path d="M86.8765 459.572C86.8765 459.572 93.9504 469.208 105.935 468.167" stroke="#263238" stroke-width="0.882872" stroke-miterlimit="10" stroke-linecap="round" stroke-linejoin="round"/>
<path d="M86.8765 488.117C86.8765 488.117 106.468 493.761 114.252 491.914" stroke="#263238" stroke-width="0.882872" stroke-miterlimit="10" stroke-linecap="round" stroke-linejoin="round"/>
<path d="M134.95 494.628C134.95 494.628 126.193 504.239 117.386 504.089" stroke="#263238" stroke-width="0.882872" stroke-miterlimit="10" stroke-linecap="round" stroke-linejoin="round"/>
<path d="M93.0572 519.3H137.702V513.999H93.0572V519.3Z" fill="#263238" stroke="#263238" stroke-width="0.882872" stroke-miterlimit="10" stroke-linecap="round" stroke-linejoin="round"/>
<path d="M461.649 479.905C461.649 479.905 446.671 488.748 436.028 506.52C425.386 524.292 416.949 549.289 430.053 552.407L442.51 551.937L466.494 543.699L463.981 538.832C463.981 538.832 442.978 549.962 439.388 549.962C435.798 549.962 431.13 550.86 429.155 549.424C427.18 547.988 436.061 515.675 455.048 504.903C474.036 494.134 461.649 479.905 461.649 479.905Z" fill="#FFE26D"/>
<mask id="mask8_361_1782" style="mask-type:luminance" maskUnits="userSpaceOnUse" x="423" y="479" width="44" height="74">
<path d="M461.649 479.906C461.649 479.906 446.67 488.749 436.028 506.521C425.386 524.293 416.948 549.29 430.053 552.408L442.51 551.938L466.494 543.7L463.98 538.833C463.98 538.833 442.977 549.963 439.387 549.963C435.797 549.963 431.13 550.861 429.155 549.425C427.179 547.989 436.061 515.676 455.047 504.904C474.035 494.135 461.649 479.906 461.649 479.906Z" fill="white"/>
</mask>
<g mask="url(#mask8_361_1782)">
<path opacity="0.5" d="M461.649 479.906C461.649 479.906 446.67 488.749 436.028 506.521C425.386 524.293 416.948 549.29 430.053 552.408L442.51 551.938L466.494 543.7L463.98 538.833C463.98 538.833 442.977 549.963 439.387 549.963C435.797 549.963 431.13 550.861 429.155 549.425C427.179 547.989 436.061 515.676 455.047 504.904C474.035 494.135 461.649 479.906 461.649 479.906Z" fill="black" fill-opacity="0.7"/>
</g>
<path d="M461.649 479.905C461.649 479.905 446.671 488.748 436.028 506.52C425.386 524.292 416.949 549.289 430.053 552.407L442.51 551.937L466.494 543.699L463.981 538.832C463.981 538.832 442.978 549.962 439.388 549.962C435.798 549.962 431.13 550.86 429.155 549.424C427.18 547.988 436.061 515.675 455.048 504.903C474.036 494.134 461.649 479.905 461.649 479.905Z" stroke="#263238" stroke-width="0.882872" stroke-miterlimit="10" stroke-linecap="round" stroke-linejoin="round"/>
<path d="M475.292 468.283C475.292 468.283 475.291 463.076 483.19 462.358C491.088 461.64 492.203 469.252 492.203 469.252H489.483C489.483 469.252 489.549 464.695 483.747 464.344C477.945 463.994 478.164 469.252 478.164 469.252L475.292 468.283Z" fill="#FFE26D" stroke="#263238" stroke-width="0.882872" stroke-miterlimit="10" stroke-linecap="round" stroke-linejoin="round"/>
<path d="M463.623 552.408C446.928 552.408 450.096 477.54 452.012 473.808C453.928 470.077 502.366 468.245 507.141 469.816C511.916 471.386 531.066 546.012 520.502 551.936L463.623 552.408Z" fill="#FFE26D"/>
<mask id="mask9_361_1782" style="mask-type:luminance" maskUnits="userSpaceOnUse" x="450" y="469" width="74" height="84">
<path d="M463.622 552.408C446.927 552.408 450.095 477.54 452.011 473.808C453.927 470.077 502.365 468.245 507.14 469.816C511.915 471.386 531.065 546.012 520.501 551.936L463.622 552.408Z" fill="white"/>
</mask>
<g mask="url(#mask9_361_1782)">
<path opacity="0.2" d="M463.622 552.408C446.927 552.408 450.096 477.54 452.012 473.808C453.928 470.077 502.366 468.245 507.141 469.816C511.915 471.386 531.065 546.012 520.502 551.936L463.622 552.408Z" fill="black" fill-opacity="0.7"/>
</g>
<path d="M463.623 552.408C446.928 552.408 450.096 477.54 452.012 473.808C453.928 470.077 502.366 468.245 507.141 469.816C511.916 471.386 531.066 546.012 520.502 551.936L463.623 552.408Z" stroke="#263238" stroke-width="0.882872" stroke-miterlimit="10" stroke-linecap="round" stroke-linejoin="round"/>
<path d="M452.013 473.808C458.058 475.103 461.537 499.605 469.671 505.844C477.806 512.083 516.167 510.735 520.503 505.844C524.839 500.953 516.362 473.453 510.188 469.251C504.015 465.049 499.64 469.132 482.298 467.203C456.579 464.344 452.013 473.808 452.013 473.808Z" fill="#FFE26D" stroke="#263238" stroke-width="0.882872" stroke-miterlimit="10" stroke-linecap="round" stroke-linejoin="round"/>
<path d="M496.035 487.894L503.142 493.7C503.563 494.044 503.607 494.673 503.237 495.073L497.712 501.043C497.354 501.429 496.751 501.449 496.369 501.087L489.313 494.396C488.917 494.021 488.92 493.389 489.32 493.019L494.796 487.933C495.14 487.612 495.67 487.595 496.035 487.894Z" fill="#FFE26D"/>
<mask id="mask10_361_1782" style="mask-type:luminance" maskUnits="userSpaceOnUse" x="489" y="487" width="15" height="15">
<path d="M496.035 487.895L503.142 493.701C503.564 494.045 503.607 494.674 503.237 495.074L497.712 501.044C497.354 501.43 496.751 501.45 496.369 501.088L489.313 494.397C488.918 494.022 488.92 493.39 489.32 493.02L494.796 487.934C495.141 487.613 495.67 487.596 496.035 487.895Z" fill="white"/>
</mask>
<g mask="url(#mask10_361_1782)">
<path opacity="0.2" d="M496.035 487.895L503.142 493.701C503.564 494.045 503.607 494.674 503.237 495.074L497.712 501.044C497.354 501.43 496.751 501.45 496.369 501.088L489.313 494.397C488.918 494.022 488.92 493.39 489.32 493.02L494.796 487.934C495.141 487.613 495.67 487.596 496.035 487.895Z" fill="black" fill-opacity="0.7"/>
</g>
<path d="M496.035 487.894L503.142 493.7C503.563 494.044 503.607 494.673 503.237 495.073L497.712 501.043C497.354 501.429 496.751 501.449 496.369 501.087L489.313 494.396C488.917 494.021 488.92 493.389 489.32 493.019L494.796 487.933C495.14 487.612 495.67 487.595 496.035 487.894Z" stroke="#263238" stroke-width="0.882872" stroke-miterlimit="10" stroke-linecap="round" stroke-linejoin="round"/>
<path d="M472.599 518.368C472.599 518.368 504.726 521.011 520.502 516.932C520.502 516.932 523.581 519.086 525.018 523.394C526.454 527.702 529.451 542.423 520.502 546.192C511.555 549.962 479.421 549.244 475.113 544.935C470.804 540.628 472.599 518.368 472.599 518.368Z" fill="#FFE26D"/>
<mask id="mask11_361_1782" style="mask-type:luminance" maskUnits="userSpaceOnUse" x="472" y="516" width="55" height="33">
<path d="M472.599 518.368C472.599 518.368 504.726 521.011 520.502 516.932C520.502 516.932 523.581 519.086 525.018 523.394C526.454 527.702 529.451 542.423 520.502 546.192C511.555 549.962 479.421 549.244 475.113 544.935C470.804 540.628 472.599 518.368 472.599 518.368Z" fill="white"/>
</mask>
<g mask="url(#mask11_361_1782)">
<path opacity="0.4" d="M472.599 518.368C472.599 518.368 504.726 521.011 520.502 516.932C520.502 516.932 523.581 519.086 525.018 523.394C526.454 527.702 529.451 542.423 520.502 546.192C511.555 549.962 479.421 549.244 475.113 544.935C470.804 540.628 472.599 518.368 472.599 518.368Z" fill="black" fill-opacity="0.7"/>
</g>
<path d="M472.599 518.368C472.599 518.368 504.726 521.011 520.502 516.932C520.502 516.932 523.581 519.086 525.018 523.394C526.454 527.702 529.451 542.423 520.502 546.192C511.555 549.962 479.421 549.244 475.113 544.935C470.804 540.628 472.599 518.368 472.599 518.368Z" stroke="#263238" stroke-width="0.882872" stroke-miterlimit="10" stroke-linecap="round" stroke-linejoin="round"/>
<path d="M472.599 518.368C472.599 518.368 476.369 528.539 478.343 530.096C480.319 531.653 522.05 531.653 526.675 527.882C531.3 524.112 524.962 517.291 520.502 516.932C520.502 516.932 491.268 520.343 472.599 518.368Z" fill="#FFE26D" stroke="#263238" stroke-width="0.882872" stroke-miterlimit="10" stroke-linecap="round" stroke-linejoin="round"/>
<path d="M459.136 516.213C459.136 516.213 460.213 537.575 462.367 542.422C462.367 542.422 457.457 545.294 452.014 542.422C446.57 539.55 447.467 521.146 448.544 521.193C449.622 521.239 459.136 516.213 459.136 516.213Z" fill="#FFE26D"/>
<mask id="mask12_361_1782" style="mask-type:luminance" maskUnits="userSpaceOnUse" x="447" y="516" width="16" height="28">
<path d="M459.137 516.211C459.137 516.211 460.214 537.573 462.368 542.42C462.368 542.42 457.458 545.292 452.014 542.42C446.571 539.548 447.468 521.144 448.545 521.191C449.622 521.237 459.137 516.211 459.137 516.211Z" fill="white"/>
</mask>
<g mask="url(#mask12_361_1782)">
<path opacity="0.4" d="M459.137 516.211C459.137 516.211 460.214 537.573 462.368 542.42C462.368 542.42 457.458 545.292 452.014 542.42C446.571 539.548 447.468 521.144 448.545 521.191C449.622 521.237 459.137 516.211 459.137 516.211Z" fill="black" fill-opacity="0.7"/>
</g>
<path d="M459.136 516.213C459.136 516.213 460.213 537.575 462.367 542.422C462.367 542.422 457.457 545.294 452.014 542.422C446.57 539.55 447.467 521.146 448.544 521.193C449.622 521.239 459.136 516.213 459.136 516.213Z" stroke="#263238" stroke-width="0.882872" stroke-miterlimit="10" stroke-linecap="round" stroke-linejoin="round"/>
<path d="M459.136 516.213L451.048 517.829C451.048 517.829 443.338 523.752 446.749 525.727C450.159 527.701 458.956 522.855 459.136 516.213Z" fill="#FFE26D" stroke="#263238" stroke-width="0.882872" stroke-miterlimit="10" stroke-linecap="round" stroke-linejoin="round"/>
</svg>
