<svg width="686" height="685" viewBox="0 0 686 685" fill="none" xmlns="http://www.w3.org/2000/svg">
<path d="M88.0085 190.536C124.586 119.559 192.442 65.8644 277.034 58.3025C334.604 53.1571 393.739 70.0746 439.597 105.331C462.682 123.08 483.199 145.787 496.817 171.658C512.459 201.373 517.01 235.627 533.102 265.196C553.111 301.964 590.679 317.125 615.907 348.897C636.683 375.061 643.812 410.119 641.427 443.444C637.073 504.278 601.432 562.035 549.012 593.21C504.696 619.564 451.272 626.837 399.767 624.443C320.363 620.753 241.303 594.572 178.762 545.509C116.22 496.446 71.2608 423.925 60.614 345.152C53.3779 291.614 63.8973 237.321 88.0085 190.536Z" fill="#FFF4BC"/>
<path d="M63.8906 216.485C65.5063 222.883 64.7108 211.106 67.8777 196.697C71.0446 182.286 76.4679 188.131 76.4679 188.131" stroke="#2C3E50" stroke-width="1.36918" stroke-miterlimit="10" stroke-linecap="round" stroke-linejoin="round"/>
<path d="M62.8965 201.765L72.8244 197.693" stroke="#2C3E50" stroke-width="1.36918" stroke-miterlimit="10" stroke-linecap="round" stroke-linejoin="round"/>
<path d="M81.0353 192.813C81.0353 192.813 75.0999 205.085 84.0475 210.302" stroke="#2C3E50" stroke-width="1.36918" stroke-miterlimit="10" stroke-linecap="round" stroke-linejoin="round"/>
<path d="M89.4531 189.362C89.4531 189.362 99.2496 194.804 93.1129 206.585" stroke="#2C3E50" stroke-width="1.36918" stroke-miterlimit="10" stroke-linecap="round" stroke-linejoin="round"/>
<path d="M82.7402 196.97L89.7586 202.095" stroke="#2C3E50" stroke-width="1.36918" stroke-miterlimit="10" stroke-linecap="round" stroke-linejoin="round"/>
<path d="M88.2442 194.714L82.7524 203.457" stroke="#2C3E50" stroke-width="1.36918" stroke-miterlimit="10" stroke-linecap="round" stroke-linejoin="round"/>
<path d="M119.787 325.827C121.122 317.686 115.606 310.005 107.466 308.669C99.3255 307.334 91.6439 312.85 90.3083 320.99C88.9728 329.131 94.4891 336.812 102.629 338.148C110.77 339.483 118.451 333.967 119.787 325.827Z" stroke="#2C3E50" stroke-width="1.36918" stroke-miterlimit="10" stroke-linecap="round" stroke-linejoin="round"/>
<path d="M135.004 342.704C127.569 348.044 117.214 346.344 111.874 338.91C106.534 331.475 108.233 321.12 115.668 315.78C123.103 310.44 133.458 312.14 138.797 319.574C144.137 327.009 142.438 337.364 135.004 342.704Z" stroke="#2C3E50" stroke-width="1.36918" stroke-miterlimit="10" stroke-linecap="round" stroke-linejoin="round"/>
<path d="M118.661 317.252L111.775 319.71" stroke="#2C3E50" stroke-width="1.36918" stroke-miterlimit="10" stroke-linecap="round" stroke-linejoin="round"/>
<path d="M119.616 320.09L109.73 323.665" stroke="#2C3E50" stroke-width="1.36918" stroke-miterlimit="10" stroke-linecap="round" stroke-linejoin="round"/>
<path d="M119.983 323.507L108.949 327.75" stroke="#2C3E50" stroke-width="1.36918" stroke-miterlimit="10" stroke-linecap="round" stroke-linejoin="round"/>
<path d="M119.199 328.179L109.141 332.775" stroke="#2C3E50" stroke-width="1.36918" stroke-miterlimit="10" stroke-linecap="round" stroke-linejoin="round"/>
<path d="M117.427 331.772L109.775 334.946" stroke="#2C3E50" stroke-width="1.36918" stroke-miterlimit="10" stroke-linecap="round" stroke-linejoin="round"/>
<path d="M112.266 300.657C111.833 299.359 106.991 298.439 106.755 302.022C106.519 305.606 111.864 302.628 113.364 300.72C113.364 300.72 110.614 304.412 111.781 305.141" stroke="#2C3E50" stroke-width="1.36918" stroke-miterlimit="10" stroke-linecap="round" stroke-linejoin="round"/>
<path d="M139.076 305.123L134.776 314.061C134.776 314.061 136.927 309.592 139.227 310.001C142.061 310.505 140.179 315.141 136.752 313.435" stroke="#2C3E50" stroke-width="1.36918" stroke-miterlimit="10" stroke-linecap="round" stroke-linejoin="round"/>
<path d="M606.956 451.098L613.71 457.489" stroke="#2C3E50" stroke-width="1.36918" stroke-miterlimit="10" stroke-linecap="round" stroke-linejoin="round"/>
<path d="M613.709 449.428L608.053 457.877" stroke="#2C3E50" stroke-width="1.36918" stroke-miterlimit="10" stroke-linecap="round" stroke-linejoin="round"/>
<path d="M620.353 451.853L627.11 449.342" stroke="#2C3E50" stroke-width="1.36918" stroke-miterlimit="10" stroke-linecap="round" stroke-linejoin="round"/>
<path d="M630.349 442.297L634.458 445.933" stroke="#2C3E50" stroke-width="1.36918" stroke-miterlimit="10" stroke-linecap="round" stroke-linejoin="round"/>
<path d="M637.607 437.926L632.404 455.784" stroke="#2C3E50" stroke-width="1.36918" stroke-miterlimit="10" stroke-linecap="round" stroke-linejoin="round"/>
<path d="M322.519 350.812L340.687 338.312L364.749 339.999L366.252 370.496L348.591 383.124L326.798 381.536L322.519 350.812Z" stroke="#2C3E50" stroke-width="1.36918" stroke-miterlimit="10" stroke-linecap="round" stroke-linejoin="round"/>
<path d="M326.798 381.536L344.386 368.871L366.252 370.496" stroke="#2C3E50" stroke-width="1.36918" stroke-miterlimit="10" stroke-linecap="round" stroke-linejoin="round"/>
<path d="M344.387 368.871L340.687 338.312" stroke="#2C3E50" stroke-width="1.36918" stroke-miterlimit="10" stroke-linecap="round" stroke-linejoin="round"/>
<path d="M322.519 350.811L346.528 353.592L364.749 339.999" stroke="#2C3E50" stroke-width="1.36918" stroke-miterlimit="10" stroke-linecap="round" stroke-linejoin="round"/>
<path d="M346.528 353.593L348.591 383.125" stroke="#2C3E50" stroke-width="1.36918" stroke-miterlimit="10" stroke-linecap="round" stroke-linejoin="round"/>
<path d="M534.583 248.329L526.533 273.343L551.586 269.963L534.583 248.329Z" stroke="#2C3E50" stroke-width="1.36918" stroke-miterlimit="10" stroke-linecap="round" stroke-linejoin="round"/>
<path d="M534.583 248.329L539.06 271.507" stroke="#2C3E50" stroke-width="1.36918" stroke-miterlimit="10" stroke-linecap="round" stroke-linejoin="round"/>
<path d="M538.343 267.793L541.273 267.328L541.956 271.263" stroke="#2C3E50" stroke-width="1.36918" stroke-miterlimit="10" stroke-linecap="round" stroke-linejoin="round"/>
<path d="M219.041 477.236L231.561 483.385" stroke="#2C3E50" stroke-width="1.36918" stroke-miterlimit="10" stroke-linecap="round" stroke-linejoin="round"/>
<path d="M227.519 472.544L223.938 485.62" stroke="#2C3E50" stroke-width="1.36918" stroke-miterlimit="10" stroke-linecap="round" stroke-linejoin="round"/>
<path d="M229.256 466.169C229.256 466.169 231.021 464.577 232.273 466.555C233.524 468.533 231.065 472.663 231.065 472.663L236.086 470.753" stroke="#2C3E50" stroke-width="1.36918" stroke-miterlimit="10" stroke-linecap="round" stroke-linejoin="round"/>
<path d="M317.297 46.5962C329.245 53.3106 315.554 69.7408 315.554 79.325C315.554 88.9092 329.245 87.54 336.091 90.2784C338.83 90.2784 344.306 90.2784 344.159 97.242" stroke="#2C3E50" stroke-width="1.36918" stroke-miterlimit="10" stroke-linecap="round" stroke-linejoin="round"/>
<path d="M303.976 55.2734C306.053 66.6034 319.056 62.5835 327.009 65.1712C340.679 69.6183 333.101 83.7523 329.012 92.2905C326.568 97.3962 324.134 104.531 328.503 109.374" stroke="#2C3E50" stroke-width="1.36918" stroke-miterlimit="10" stroke-linecap="round" stroke-linejoin="round"/>
<path d="M305.724 59.6678L319.975 47.8271" stroke="#2C3E50" stroke-width="1.36918" stroke-miterlimit="10" stroke-linecap="round" stroke-linejoin="round"/>
<path d="M311.315 63.2017L322.048 54.2993" stroke="#2C3E50" stroke-width="1.36918" stroke-miterlimit="10" stroke-linecap="round" stroke-linejoin="round"/>
<path d="M317.622 72.2064L326.688 65.084" stroke="#2C3E50" stroke-width="1.36918" stroke-miterlimit="10" stroke-linecap="round" stroke-linejoin="round"/>
<path d="M315.75 82.867L333.469 70.124" stroke="#2C3E50" stroke-width="1.36918" stroke-miterlimit="10" stroke-linecap="round" stroke-linejoin="round"/>
<path d="M322.536 87.8357L334.885 78.769" stroke="#2C3E50" stroke-width="1.36918" stroke-miterlimit="10" stroke-linecap="round" stroke-linejoin="round"/>
<path d="M327.791 107.098L343.227 94.5303" stroke="#2C3E50" stroke-width="1.36918" stroke-miterlimit="10" stroke-linecap="round" stroke-linejoin="round"/>
<path d="M328.173 97.2101L338.245 90.1328" stroke="#2C3E50" stroke-width="1.36918" stroke-miterlimit="10" stroke-linecap="round" stroke-linejoin="round"/>
<path d="M126.687 484.082C141.392 478.201 148.545 461.513 142.665 446.808C136.785 432.103 120.097 424.95 105.392 430.83C90.6869 436.711 83.5331 453.398 89.4135 468.103C95.2939 482.808 111.982 489.962 126.687 484.082Z" stroke="#2C3E50" stroke-width="1.36918" stroke-miterlimit="10" stroke-linecap="round" stroke-linejoin="round"/>
<path d="M123.27 429.701C133.264 417.973 141.762 411.325 145.04 413.486C150.017 416.766 141.075 439.11 125.068 463.389C109.061 487.67 92.0503 504.693 87.0747 501.413C83.7969 499.252 86.5572 488.821 93.399 475.012" stroke="#2C3E50" stroke-width="1.36918" stroke-miterlimit="10" stroke-linecap="round" stroke-linejoin="round"/>
<path d="M87.9922 463.326C74.0622 459.317 65.1612 454.637 65.7143 450.895C66.5865 444.998 90.6155 443.668 119.383 447.924C148.152 452.179 170.767 460.409 169.894 466.306C169.29 470.385 157.611 472.279 140.949 471.65" stroke="#2C3E50" stroke-width="1.36918" stroke-miterlimit="10" stroke-linecap="round" stroke-linejoin="round"/>
<path d="M91.6482 442.561C81.1356 423.587 75.878 408.782 79.4447 406.473C84.1245 403.443 102.222 423.075 119.87 450.326C137.517 477.575 148.028 502.122 143.348 505.153C140.254 507.158 131.287 499.247 120.464 485.774" stroke="#2C3E50" stroke-width="1.36918" stroke-miterlimit="10" stroke-linecap="round" stroke-linejoin="round"/>
<path d="M149.074 425.898C147.64 428.073 144.717 428.672 142.543 427.24C140.369 425.807 139.769 422.883 141.201 420.709C142.635 418.535 145.558 417.935 147.732 419.367C149.906 420.801 150.508 423.724 149.074 425.898Z" fill="#2C3E50"/>
<path d="M133.476 498.038C132.042 500.212 129.119 500.812 126.945 499.38C124.771 497.946 124.171 495.023 125.605 492.849C127.038 490.674 129.961 490.075 132.136 491.507C134.308 492.94 134.91 495.865 133.476 498.038Z" fill="#2C3E50"/>
<path d="M108.321 449.118C106.887 451.292 103.964 451.892 101.79 450.459C99.6154 449.026 99.0157 446.103 100.448 443.928C101.881 441.754 104.805 441.154 106.979 442.588C109.153 444.02 109.754 446.943 108.321 449.118Z" fill="#2C3E50"/>
<path d="M408.594 244.161H424.725L432.791 230.19L424.725 216.219H408.594L400.526 230.19L408.594 244.161Z" stroke="#2C3E50" stroke-width="1.36918" stroke-miterlimit="10" stroke-linecap="round" stroke-linejoin="round"/>
<path d="M406.251 274.808L398.184 260.837H382.052" stroke="#2C3E50" stroke-width="1.36918" stroke-miterlimit="10" stroke-linecap="round" stroke-linejoin="round"/>
<path d="M384.218 230.189H400.351L408.417 216.218L400.351 202.247H384.218L376.152 216.218L384.218 230.189Z" stroke="#2C3E50" stroke-width="1.36918" stroke-miterlimit="10" stroke-linecap="round" stroke-linejoin="round"/>
<path d="M408.594 216.219H424.725L432.791 202.247L424.725 188.276H408.594L400.526 202.247L408.594 216.219Z" stroke="#2C3E50" stroke-width="1.36918" stroke-miterlimit="10" stroke-linecap="round" stroke-linejoin="round"/>
<path d="M408.417 218.385C409.613 218.385 410.583 217.415 410.583 216.219C410.583 215.023 409.613 214.053 408.417 214.053C407.221 214.053 406.251 215.023 406.251 216.219C406.251 217.415 407.221 218.385 408.417 218.385Z" fill="#2C3E50"/>
<path d="M374.731 189.06C375.927 189.06 376.897 188.09 376.897 186.894C376.897 185.697 375.927 184.728 374.731 184.728C373.535 184.728 372.565 185.697 372.565 186.894C372.565 188.09 373.535 189.06 374.731 189.06Z" fill="#2C3E50"/>
<path d="M404.083 274.809C404.083 273.612 405.053 272.643 406.25 272.643C407.446 272.643 408.416 273.612 408.416 274.809C408.416 276.005 407.446 276.975 406.25 276.975C405.054 276.975 404.083 276.005 404.083 274.809Z" fill="#2C3E50"/>
<path d="M382.052 263.003C383.249 263.003 384.218 262.034 384.218 260.837C384.218 259.641 383.249 258.671 382.052 258.671C380.856 258.671 379.886 259.641 379.886 260.837C379.886 262.034 380.856 263.003 382.052 263.003Z" fill="#2C3E50"/>
<path d="M448.393 202.616C448.393 201.419 449.362 200.45 450.559 200.45C451.755 200.45 452.726 201.419 452.726 202.616C452.726 203.812 451.757 204.782 450.559 204.782C449.363 204.782 448.393 203.812 448.393 202.616Z" fill="#2C3E50"/>
<path d="M398.019 263.003C399.215 263.003 400.185 262.034 400.185 260.837C400.185 259.641 399.215 258.671 398.019 258.671C396.823 258.671 395.853 259.641 395.853 260.837C395.853 262.034 396.823 263.003 398.019 263.003Z" fill="#2C3E50"/>
<path d="M430.625 202.616C430.625 201.419 431.594 200.45 432.791 200.45C433.987 200.45 434.957 201.419 434.957 202.616C434.957 203.812 433.987 204.782 432.791 204.782C431.594 204.782 430.625 203.812 430.625 202.616Z" fill="#2C3E50"/>
<path d="M406.251 244.161C406.251 242.964 407.22 241.995 408.417 241.995C409.614 241.995 410.583 242.964 410.583 244.161C410.583 245.358 409.614 246.329 408.417 246.329C407.22 246.329 406.251 245.356 406.251 244.161Z" fill="#2C3E50"/>
<path d="M432.791 202.616H450.559" stroke="#2C3E50" stroke-width="1.36918" stroke-miterlimit="10" stroke-linecap="round" stroke-linejoin="round"/>
<path d="M408.417 244.161L398.019 260.838" stroke="#2C3E50" stroke-width="1.36918" stroke-miterlimit="10" stroke-linecap="round" stroke-linejoin="round"/>
<path d="M384.218 202.248L374.731 186.894" stroke="#2C3E50" stroke-width="1.36918" stroke-miterlimit="10" stroke-linecap="round" stroke-linejoin="round"/>
<path d="M498.619 147.189C502.262 134.812 513.708 125.777 527.265 125.777C541.281 125.777 553.042 135.435 556.254 148.459" stroke="#2C3E50" stroke-width="1.36918" stroke-miterlimit="10" stroke-linecap="round" stroke-linejoin="round"/>
<path d="M523.88 185.304C508.983 183.622 497.407 170.982 497.407 155.636" stroke="#2C3E50" stroke-width="1.36918" stroke-miterlimit="10" stroke-linecap="round" stroke-linejoin="round"/>
<path d="M557.122 155.636C557.122 172.125 543.755 185.494 527.265 185.494" stroke="#2C3E50" stroke-width="1.36918" stroke-miterlimit="10" stroke-linecap="round" stroke-linejoin="round"/>
<path d="M558.814 136.706C568.153 135.508 574.413 136.158 575.379 138.94C577.309 144.505 557.333 156.49 530.761 165.711C504.188 174.932 481.082 177.896 479.151 172.332C478.119 169.358 483.347 164.548 492.495 159.307" stroke="#2C3E50" stroke-width="1.36918" stroke-miterlimit="10" stroke-linecap="round" stroke-linejoin="round"/>
<path d="M398.02 116.241L400.881 122.038L407.279 122.967L402.649 127.48L403.741 133.852L398.02 130.844L392.296 133.852L393.39 127.48L388.76 122.967L395.158 122.038L398.02 116.241Z" stroke="#2C3E50" stroke-width="1.36918" stroke-miterlimit="10" stroke-linecap="round" stroke-linejoin="round"/>
<path d="M195.881 100.808C195.881 106.395 193.526 111.433 189.76 114.952C186.283 118.238 181.6 120.237 176.466 120.237C175.836 120.237 175.22 120.21 174.617 120.155C170.578 119.772 166.909 118.156 163.979 115.691C161.473 113.597 159.502 110.872 158.324 107.764C157.489 105.601 157.037 103.259 157.037 100.808C157.037 90.0878 165.731 81.3936 176.466 81.3936C179.478 81.3936 182.339 82.0781 184.9 83.3241C187.83 84.7343 190.349 86.8566 192.225 89.4717C194.525 92.6619 195.881 96.5777 195.881 100.808Z" stroke="#2C3E50" stroke-width="1.36918" stroke-miterlimit="10" stroke-linecap="round" stroke-linejoin="round"/>
<path d="M192.763 104.322C192.763 105.982 191.418 107.326 189.759 107.326C188.099 107.326 186.755 105.982 186.755 104.322C186.755 102.663 188.099 101.318 189.759 101.318C191.418 101.318 192.763 102.663 192.763 104.322Z" stroke="#2C3E50" stroke-width="1.36918" stroke-miterlimit="10" stroke-linecap="round" stroke-linejoin="round"/>
<path d="M165.731 111.953C165.731 113.459 165.046 114.801 163.978 115.691C161.473 113.596 159.501 110.872 158.324 107.764C159.049 107.312 159.912 107.065 160.829 107.065C163.54 107.065 165.731 109.256 165.731 111.953Z" stroke="#2C3E50" stroke-width="1.36918" stroke-miterlimit="10" stroke-linecap="round" stroke-linejoin="round"/>
<path d="M189.761 114.952C186.283 118.238 181.6 120.237 176.466 120.237C175.836 120.237 175.22 120.21 174.617 120.155C174.508 119.635 174.453 119.101 174.453 118.553C174.453 114.09 178.068 110.461 182.531 110.461C185.708 110.461 188.446 112.296 189.761 114.952Z" stroke="#2C3E50" stroke-width="1.36918" stroke-miterlimit="10" stroke-linecap="round" stroke-linejoin="round"/>
<path d="M171.757 93.1091C174.224 93.1091 176.224 91.1088 176.224 88.6414C176.224 86.174 174.224 84.1738 171.757 84.1738C169.289 84.1738 167.289 86.174 167.289 88.6414C167.289 91.1088 169.289 93.1091 171.757 93.1091Z" stroke="#2C3E50" stroke-width="1.36918" stroke-miterlimit="10" stroke-linecap="round" stroke-linejoin="round"/>
<path d="M175.89 101.318C175.89 102.46 174.965 103.384 173.823 103.384C172.681 103.384 171.755 102.458 171.755 101.318C171.755 100.176 172.681 99.2505 173.823 99.2505C174.965 99.2505 175.89 100.177 175.89 101.318Z" stroke="#2C3E50" stroke-width="1.36918" stroke-miterlimit="10" stroke-linecap="round" stroke-linejoin="round"/>
<path d="M192.224 89.4718C191.704 89.6498 191.129 89.732 190.54 89.732C187.391 89.732 184.858 87.1853 184.858 84.0362C184.858 83.7897 184.872 83.557 184.899 83.3242C187.829 84.7345 190.348 86.8567 192.224 89.4718Z" stroke="#2C3E50" stroke-width="1.36918" stroke-miterlimit="10" stroke-linecap="round" stroke-linejoin="round"/>
<path d="M638.637 326.264L640.732 321.556L637.339 319.683C637.46 318.845 637.484 318.007 637.408 317.181L640.888 315.488L639.04 310.676L635.32 311.75C634.824 311.086 634.245 310.479 633.594 309.937L634.86 306.274L630.151 304.18L628.278 307.572C627.44 307.452 626.602 307.427 625.776 307.504L624.083 304.023L619.271 305.872L620.345 309.592C619.681 310.088 619.074 310.667 618.532 311.318L614.87 310.053L612.775 314.762L616.168 316.635C616.047 317.473 616.022 318.311 616.099 319.136L612.619 320.83L614.467 325.641L618.186 324.568C618.681 325.232 619.261 325.839 619.912 326.381L618.647 330.043L623.356 332.138L625.229 328.747C626.067 328.867 626.905 328.89 627.73 328.815L629.424 332.296L634.235 330.447L633.162 326.727C633.826 326.231 634.432 325.652 634.975 325.002L638.637 326.264ZM624.318 323.631C621.297 322.287 619.936 318.748 621.28 315.726C622.625 312.704 626.164 311.343 629.186 312.688C632.207 314.032 633.568 317.571 632.224 320.593C630.881 323.615 627.341 324.975 624.318 323.631Z" stroke="#2C3E50" stroke-width="1.36918" stroke-miterlimit="10" stroke-linecap="round" stroke-linejoin="round"/>
<path d="M613.615 350.431L616.46 344.036L611.853 341.492C612.017 340.354 612.049 339.215 611.945 338.094L616.673 335.794L614.162 329.26L609.111 330.718C608.437 329.816 607.651 328.991 606.767 328.256L608.485 323.282L602.089 320.437L599.546 325.044C598.408 324.88 597.269 324.848 596.147 324.952L593.847 320.225L587.313 322.736L588.77 327.787C587.868 328.46 587.044 329.246 586.308 330.131L581.334 328.412L578.489 334.808L583.096 337.352C582.932 338.489 582.9 339.629 583.003 340.75L578.275 343.05L580.786 349.584L585.837 348.127C586.511 349.029 587.297 349.854 588.181 350.589L586.463 355.563L592.858 358.408L595.402 353.801C596.54 353.965 597.679 353.997 598.801 353.894L601.101 358.622L607.635 356.111L606.177 351.06C607.079 350.386 607.903 349.6 608.638 348.716L613.615 350.431ZM594.17 346.854C590.065 345.029 588.218 340.221 590.043 336.117C591.869 332.012 596.676 330.165 600.781 331.99C604.885 333.815 606.732 338.622 604.907 342.727C603.082 346.832 598.275 348.68 594.17 346.854Z" stroke="#2C3E50" stroke-width="1.36918" stroke-miterlimit="10" stroke-linecap="round" stroke-linejoin="round"/>
<path d="M572.208 586.074C564.869 592.18 508.339 630.98 427.664 624.728C423.324 588.007 406.77 437.137 425.597 413.492C425.597 413.492 471.272 391.708 513.347 400.854C555.422 410 571.797 418.763 574.796 426.348C577.069 432.085 573.824 538.905 572.208 586.074Z" fill="#36454F"/>
<path d="M511.951 416.97C487.716 437.959 456.499 433.523 457.184 417.408C457.293 414.889 459.99 411.767 459.99 411.767C459.99 411.767 459.634 411.233 459.046 410.316C458.142 408.946 456.677 406.715 454.979 404.113C451.981 399.472 448.229 393.639 445.614 389.395C443.423 385.78 498.04 352.18 498.04 371.499C498.04 398.719 511.403 403.839 511.403 403.839C516.4 405.866 521.083 409.07 511.951 416.97Z" fill="white" stroke="#36454F" stroke-width="1.36918" stroke-miterlimit="10" stroke-linecap="round" stroke-linejoin="round"/>
<path d="M527.265 458.539C527.265 458.539 522.381 475.292 524.703 480.095" stroke="white" stroke-width="1.36918" stroke-miterlimit="10" stroke-linecap="round" stroke-linejoin="round"/>
<path d="M521.564 409.873C521.564 426.046 473.325 441.884 459.189 425.665" stroke="white" stroke-width="1.36918" stroke-miterlimit="10" stroke-linecap="round" stroke-linejoin="round"/>
<path d="M481.884 391.215C481.884 391.215 478.637 403.395 463.607 412.919C463.607 412.919 462.84 411.249 460.36 410.356C459.922 410.198 459.457 410.342 459.046 410.315C458.142 408.946 456.677 406.714 454.979 404.112C462.661 398.54 481.884 391.215 481.884 391.215Z" fill="#36454F"/>
<path d="M488.643 376.239C488.643 376.239 488.487 388.264 485.942 390.704C466.836 409.028 448.165 410.475 445.081 405.642C424.342 373.118 429.243 364.542 427.129 359.005C423.392 349.222 418.807 333.263 420.829 323.593C425.345 301.994 466.043 285.306 487.431 306.964C497.699 317.361 500.945 339.914 498.776 358.698" fill="white"/>
<path d="M488.643 376.239C488.643 376.239 488.487 388.264 485.942 390.704C466.836 409.028 448.165 410.475 445.081 405.642C424.342 373.118 429.243 364.542 427.129 359.005C423.392 349.222 418.807 333.263 420.829 323.593C425.345 301.994 466.043 285.306 487.431 306.964C497.699 317.361 500.945 339.914 498.776 358.698" stroke="#36454F" stroke-width="1.36918" stroke-miterlimit="10" stroke-linecap="round" stroke-linejoin="round"/>
<path d="M429.716 348.945C429.716 348.945 424.015 346.384 422.779 349.44" stroke="#36454F" stroke-width="1.36918" stroke-miterlimit="10" stroke-linecap="round" stroke-linejoin="round"/>
<path d="M443.562 349.078C443.562 349.078 455.435 344.108 460.77 350.138" stroke="#36454F" stroke-width="1.36918" stroke-miterlimit="10" stroke-linecap="round" stroke-linejoin="round"/>
<path d="M456.695 357.557C456.889 359.338 456.018 360.895 454.75 361.033C453.482 361.171 452.297 359.839 452.102 358.058C451.908 356.276 452.777 354.72 454.045 354.581C455.314 354.442 456.499 355.774 456.695 357.557Z" fill="#36454F"/>
<path d="M433.447 358.095C433.642 359.876 432.772 361.433 431.504 361.571C430.236 361.709 429.051 360.377 428.856 358.594C428.662 356.813 429.531 355.256 430.799 355.118C432.067 354.981 433.253 356.313 433.447 358.095Z" fill="#36454F"/>
<path d="M434.041 353.418C435.699 356.088 434.791 360.643 432.609 366.893C430.427 373.144 432.349 375.415 440.749 376.045" fill="white"/>
<path d="M434.041 353.418C435.699 356.088 434.791 360.643 432.609 366.893C430.427 373.144 432.349 375.415 440.749 376.045" stroke="#36454F" stroke-width="1.36918" stroke-miterlimit="10" stroke-linecap="round" stroke-linejoin="round"/>
<path d="M440.751 386.875C440.751 386.875 451.733 385.872 456.722 383.123" stroke="#36454F" stroke-width="1.36918" stroke-miterlimit="10" stroke-linecap="round" stroke-linejoin="round"/>
<path d="M510.122 324.797C510.12 316.659 502.099 299.971 488.013 298.098C479.932 289.633 468.391 286.523 454.398 289.739C422.068 297.171 412.226 329.092 410.804 334.383C410.667 334.875 410.608 335.147 410.608 335.147L419.262 332.95L415.53 340.23L420.068 343.224L419.028 344.376L424.282 349.439L422.639 340.19C423.653 334.208 430.521 325.866 430.521 325.866C426.518 330.67 426.012 337.081 426.012 337.081C428.726 329.969 445.182 323.44 445.182 323.44C439.852 327.761 437.014 336.229 437.014 336.229C442.088 329.986 453.959 325.941 461.552 323.794C464.118 329.977 468.182 336.425 473.988 339.998C479.458 343.364 479.267 350.31 479.267 350.31C488.776 356.529 491.565 367.24 491.565 367.24L498.19 376.304C498.19 376.304 510.133 361.581 510.122 324.797Z" fill="#36454F"/>
<path d="M482.255 352.591C480.038 347.834 488.089 334.971 493.79 336.565C496.996 337.46 501.184 343.306 501.999 349.448C502.813 355.591 498.473 367.193 493.845 369.775C490.908 371.414 488.488 366.948 488.488 366.948" fill="white"/>
<path d="M482.255 352.591C480.038 347.834 488.089 334.971 493.79 336.565C496.996 337.46 501.184 343.306 501.999 349.448C502.813 355.591 498.473 367.193 493.845 369.775C490.908 371.414 488.488 366.948 488.488 366.948" stroke="#36454F" stroke-width="1.36918" stroke-miterlimit="10" stroke-linecap="round" stroke-linejoin="round"/>
<path d="M132.95 584.979L287.647 548.814L610.334 586.074L527.265 642.896L132.95 584.979Z" fill="white"/>
<path d="M132.95 584.979L287.647 548.814L610.334 586.074" fill="white"/>
<path d="M132.95 584.979L287.647 548.814L610.334 586.074" stroke="#36454F" stroke-width="1.36918" stroke-miterlimit="10" stroke-linecap="round" stroke-linejoin="round"/>
<path d="M266.828 592.236L329.454 564.56L408.628 568.647L373.421 598.752L266.828 592.236Z" fill="white" stroke="#36454F" stroke-width="1.36918" stroke-miterlimit="10" stroke-linecap="round" stroke-linejoin="round"/>
<path d="M428.654 412.142C408.567 420.357 404.234 438.821 370.109 511.808C370.109 511.808 354.943 514.922 346.818 533.338C338.693 551.755 352.235 566.299 367.943 565.797C367.943 565.797 374.222 571.255 387.061 570.713C399.9 570.171 456.941 483.017 456.941 483.017L428.654 412.142Z" fill="#36454F"/>
<path d="M376.084 516.08C385.072 524.086 390.228 535.815 387.49 548.816" stroke="white" stroke-width="1.36918" stroke-miterlimit="10" stroke-linecap="round" stroke-linejoin="round"/>
<path d="M384.751 519.926C384.751 519.926 395.795 522.334 397.495 536.476" stroke="white" stroke-width="1.36918" stroke-miterlimit="10" stroke-linecap="round" stroke-linejoin="round"/>
<path d="M417.062 478.581C417.062 478.581 408.628 459.965 411.833 437.957" stroke="white" stroke-width="1.36918" stroke-miterlimit="10" stroke-linecap="round" stroke-linejoin="round"/>
<path d="M415.483 459.964C414.644 465.714 420.587 496.324 420.548 528.523" stroke="white" stroke-width="1.36918" stroke-miterlimit="10" stroke-linecap="round" stroke-linejoin="round"/>
<path d="M565.622 418.169C590.751 430.797 593.738 469.643 570.027 516.08C553.286 548.864 530.17 597.263 515.546 600.513C500.922 603.764 486.666 594.652 486.666 594.652C486.666 594.652 474.335 594.074 470.619 585.317C460.433 561.31 486.327 531.107 496.513 538.343C496.513 538.343 529.042 467.599 534.971 463.144" fill="#36454F"/>
<path d="M468.288 570.75C464.916 554.231 490.915 534.731 496.512 538.343C496.512 538.343 515.831 539.426 518.72 552.786" stroke="white" stroke-width="1.36918" stroke-miterlimit="10" stroke-linecap="round" stroke-linejoin="round"/>
<path d="M539.061 574.282C550.371 554.329 570.026 516.081 570.026 516.081" stroke="white" stroke-width="1.36918" stroke-miterlimit="10" stroke-linecap="round" stroke-linejoin="round"/>
<path d="M496.512 538.343C496.512 538.343 510.053 530.248 520.165 537.906" stroke="white" stroke-width="1.36918" stroke-miterlimit="10" stroke-linecap="round" stroke-linejoin="round"/>
<path d="M501.077 528.523C501.077 528.523 508.557 512.123 516.172 496.99C523.787 481.856 541.107 459.622 548.33 458.539" stroke="white" stroke-width="1.36918" stroke-miterlimit="10" stroke-linecap="round" stroke-linejoin="round"/>
<path d="M358.384 558.035C356.809 557.953 355.235 557.556 353.729 556.761C330.412 544.617 312.352 524.545 301.453 510.141C293.882 500.132 289.774 492.848 289.774 492.848L295.361 468.915C295.361 468.915 300.618 482.552 321.745 496.066C342.857 509.58 367.968 513.961 376.087 527.502C383.275 539.496 370.611 558.651 358.384 558.035Z" fill="white"/>
<path d="M358.384 558.035C356.809 557.953 355.235 557.556 353.729 556.761C330.412 544.617 312.352 524.545 301.453 510.141C293.882 500.132 289.774 492.848 289.774 492.848L295.361 468.915C295.361 468.915 300.618 482.552 321.745 496.066C342.857 509.58 367.968 513.961 376.087 527.502C383.275 539.496 370.611 558.651 358.384 558.035Z" stroke="#36454F" stroke-width="1.36918" stroke-miterlimit="10" stroke-linecap="round" stroke-linejoin="round"/>
<path d="M305.669 491.446C305.669 491.446 302.78 504.218 295.167 501.355C291.04 499.803 283.143 487.531 281.648 481.35L305.669 491.446Z" fill="white" stroke="#36454F" stroke-width="1.36918" stroke-miterlimit="10" stroke-linecap="round" stroke-linejoin="round"/>
<path d="M272.114 412.881L278.328 409.666C278.328 409.666 295.898 409.822 306.796 418.679C316.696 426.726 321.709 439.34 321.709 439.34C321.709 439.34 360.178 418.102 399.451 430.289L415.482 519.578L341.832 524.437L295.866 480.728L272.114 412.881Z" fill="white" stroke="#36454F" stroke-width="1.36918" stroke-miterlimit="10" stroke-linecap="round" stroke-linejoin="round"/>
<path d="M420.548 523.148C420.548 523.148 411.908 522.888 400.353 523.271C382.882 523.819 358.743 525.791 347.708 532.212L347.187 532.034L337.083 528.515C337.083 528.515 337.014 528.42 336.878 528.214C335.015 525.448 319.996 503.911 298.568 495.135L268.227 410.355C268.227 410.355 299.732 411.766 316.929 440.176L325.568 443.298C325.568 443.298 376.981 428.073 405.761 433.549L420.548 523.148Z" fill="#FFF4BC"/>
<path opacity="0.3" d="M336.874 528.214C335.012 525.448 319.992 503.911 298.564 495.135L268.223 410.355C268.223 410.355 299.728 411.766 316.925 440.176L336.874 528.214Z" fill="#DAAF00"/>
<path opacity="0.3" d="M400.349 523.271C382.879 523.819 358.74 525.791 347.704 532.212L347.184 532.034L327.002 446.378C327.002 446.378 343.512 442.669 348.594 444.544C348.594 444.544 382.154 469.316 400.349 523.271Z" fill="#DAAF00"/>
<path d="M420.544 523.148C420.544 523.148 411.905 522.888 400.349 523.271C382.878 523.819 358.739 525.791 347.704 532.212L347.184 532.034L337.079 528.515C337.079 528.515 337.011 528.42 336.874 528.214C335.012 525.448 319.992 503.911 298.564 495.135L268.223 410.355C268.223 410.355 299.728 411.766 316.925 440.176L325.564 443.298C325.564 443.298 376.977 428.073 405.757 433.549L420.544 523.148Z" stroke="#36454F" stroke-width="1.36918" stroke-miterlimit="10" stroke-linecap="round" stroke-linejoin="round"/>
<path d="M325.56 443.301L345.376 525.492" stroke="#36454F" stroke-width="1.36918" stroke-miterlimit="10" stroke-linecap="round" stroke-linejoin="round"/>
<path d="M337.081 528.523L317.832 446.382" stroke="#36454F" stroke-width="1.36918" stroke-miterlimit="10" stroke-linecap="round" stroke-linejoin="round"/>
<path d="M288.173 492.976C283.773 491.752 274.917 465.337 278.977 453.97C278.977 453.97 283.796 445.603 285.757 445.031C288.831 444.134 301.207 444.395 300.608 446.478C299.224 451.293 289.729 451.212 289.729 451.212L286.647 456.851L286.78 459.964C286.78 459.964 291.249 456.706 292.898 456.793C293.738 456.838 298.126 458.988 301.602 460.829C304.578 462.405 306.394 463.256 305.729 464.689C303.527 469.425 294.135 466.102 294.135 466.102L290.611 471.417C290.611 471.417 294.018 472.007 295.515 472.18C297.151 472.369 309.397 480.591 309.022 481.623C307.561 485.649 295.808 481.295 295.808 481.295L293.725 483.027C293.725 483.027 302.388 485.267 303.267 485.59C304.646 486.098 309.919 490.159 309.837 490.62C309.203 494.177 301.93 491.561 301.93 491.561L295.568 491.302C295.568 491.302 294.284 492.544 292.165 493.059" fill="white"/>
<path d="M288.173 492.976C283.773 491.752 274.917 465.337 278.977 453.97C278.977 453.97 283.796 445.603 285.757 445.031C288.831 444.134 301.207 444.395 300.608 446.478C299.224 451.293 289.729 451.212 289.729 451.212L286.647 456.851L286.78 459.964C286.78 459.964 291.249 456.706 292.898 456.793C293.738 456.838 298.126 458.988 301.602 460.829C304.578 462.405 306.394 463.256 305.729 464.689C303.527 469.425 294.135 466.102 294.135 466.102L290.611 471.417C290.611 471.417 294.018 472.007 295.515 472.18C297.151 472.369 309.397 480.591 309.022 481.623C307.561 485.649 295.808 481.295 295.808 481.295L293.725 483.027C293.725 483.027 302.388 485.267 303.267 485.59C304.646 486.098 309.919 490.159 309.837 490.62C309.203 494.177 301.93 491.561 301.93 491.561L295.568 491.302C295.568 491.302 294.284 492.544 292.165 493.059" stroke="#36454F" stroke-width="1.36918" stroke-miterlimit="10" stroke-linecap="round" stroke-linejoin="round"/>
<path d="M286.779 459.964C286.779 459.964 282.717 463.417 281.608 464.411C280.499 465.405 280.812 468.588 280.812 468.588" stroke="#36454F" stroke-width="1.36918" stroke-miterlimit="10" stroke-linecap="round" stroke-linejoin="round"/>
<path d="M283.803 475.592C283.777 479.079 286.133 481.182 287.205 482.305C288.277 483.428 285.49 486.485 288.565 488.677" stroke="#36454F" stroke-width="1.36918" stroke-miterlimit="10" stroke-linecap="round" stroke-linejoin="round"/>
<path d="M486.606 585.829C477.912 588.198 468.465 572.918 456.936 556.241V556.228C449.323 545.219 440.807 533.595 431.018 526.065C430.237 525.476 429.443 524.901 428.649 524.353L434.372 495.642C446.257 501.871 453.623 511.853 465.959 522.108C485.812 538.634 503.406 548.779 508.28 556.091C513.155 563.402 501.503 581.763 486.606 585.829Z" fill="white"/>
<mask id="mask0_368_2380" style="mask-type:luminance" maskUnits="userSpaceOnUse" x="428" y="495" width="82" height="92">
<path d="M486.606 585.829C477.912 588.198 468.465 572.918 456.936 556.241V556.228C449.323 545.219 440.807 533.595 431.018 526.065C430.237 525.476 429.443 524.901 428.649 524.353L434.372 495.642C446.257 501.871 453.623 511.853 465.959 522.108C485.812 538.634 503.406 548.779 508.28 556.091C513.155 563.402 501.503 581.763 486.606 585.829Z" fill="white"/>
</mask>
<g mask="url(#mask0_368_2380)">
<path opacity="0.4" d="M456.936 556.227C449.324 545.219 440.807 533.595 431.018 526.064C432.77 526.037 434.112 525.859 434.81 525.489C434.81 525.489 450.282 538.086 456.936 556.227Z" fill="#92E3A9"/>
</g>
<path d="M486.606 585.829C477.912 588.198 468.465 572.918 456.936 556.241V556.228C449.323 545.219 440.807 533.595 431.018 526.065C430.237 525.476 429.443 524.901 428.649 524.353L434.372 495.642C446.257 501.871 453.623 511.853 465.959 522.108C485.812 538.634 503.406 548.779 508.28 556.091C513.155 563.402 501.503 581.763 486.606 585.829Z" stroke="#36454F" stroke-width="1.36918" stroke-miterlimit="10" stroke-linecap="round" stroke-linejoin="round"/>
<path d="M437.59 523.271C437.11 524.27 436.138 524.982 434.81 525.489C434.509 525.612 434.194 525.708 433.866 525.804C433.797 525.818 433.701 525.831 433.605 525.859C424.418 528.255 403.744 523.271 403.744 523.271C403.744 523.271 390.202 516.836 389.381 515.316C388.874 514.344 388.258 512.701 387.861 511.619C387.642 510.976 387.491 510.538 387.491 510.538C387.491 510.538 382.617 507.827 382.07 505.663C381.536 503.5 380.44 502.952 383.425 502.542C386.41 502.145 402.648 502.542 402.648 502.542L385.054 495.367C385.054 495.367 373.403 489.493 372.321 487.426C371.239 485.345 369.884 483.989 375.84 484.811C381.796 485.619 394.803 489.411 394.803 489.411L404.99 491.575L394.803 487.234C394.803 487.234 374.758 484.811 378.551 478.581C378.551 478.581 386.136 478.581 389.929 478.581C393.721 478.581 405.852 480.005 409.152 481.018C412.465 482.031 434.372 495.641 434.372 495.641" fill="white"/>
<mask id="mask1_368_2380" style="mask-type:luminance" maskUnits="userSpaceOnUse" x="371" y="478" width="67" height="49">
<path d="M437.59 523.27C437.11 524.269 436.138 524.981 434.81 525.488C434.509 525.611 434.194 525.707 433.866 525.803C433.797 525.817 433.701 525.83 433.605 525.858C424.418 528.254 403.744 523.27 403.744 523.27C403.744 523.27 390.202 516.835 389.381 515.315C388.874 514.343 388.258 512.7 387.861 511.618C387.642 510.975 387.491 510.537 387.491 510.537C387.491 510.537 382.617 507.826 382.07 505.662C381.536 503.499 380.44 502.951 383.425 502.541C386.41 502.144 402.648 502.541 402.648 502.541L385.054 495.366C385.054 495.366 373.403 489.492 372.321 487.425C371.239 485.344 369.884 483.988 375.84 484.81C381.796 485.618 394.803 489.41 394.803 489.41L404.99 491.574L394.803 487.233C394.803 487.233 374.758 484.81 378.551 478.58C378.551 478.58 386.136 478.58 389.929 478.58C393.721 478.58 405.852 480.004 409.152 481.017C412.465 482.03 434.372 495.64 434.372 495.64" fill="white"/>
</mask>
<g mask="url(#mask1_368_2380)">
<path opacity="0.4" d="M433.606 525.859C424.418 528.255 403.744 523.271 403.744 523.271C403.744 523.271 390.203 516.836 389.381 515.316C388.874 514.344 388.258 512.701 387.861 511.619L404.483 513.481C404.483 513.481 402.484 516.726 404.483 520.3C406.332 523.613 427.389 526.981 433.606 525.859Z" fill="#92E3A9"/>
</g>
<path d="M437.59 523.271C437.11 524.27 436.138 524.982 434.81 525.489C434.509 525.612 434.194 525.708 433.866 525.804C433.797 525.818 433.701 525.831 433.605 525.859C424.418 528.255 403.744 523.271 403.744 523.271C403.744 523.271 390.202 516.836 389.381 515.316C388.874 514.344 388.258 512.701 387.861 511.619C387.642 510.976 387.491 510.538 387.491 510.538C387.491 510.538 382.617 507.827 382.07 505.663C381.536 503.5 380.44 502.952 383.425 502.542C386.41 502.145 402.648 502.542 402.648 502.542L385.054 495.367C385.054 495.367 373.403 489.493 372.321 487.426C371.239 485.345 369.884 483.989 375.84 484.811C381.796 485.619 394.803 489.411 394.803 489.411L404.99 491.575L394.803 487.234C394.803 487.234 374.758 484.811 378.551 478.581C378.551 478.581 386.136 478.581 389.929 478.581C393.721 478.581 405.852 480.005 409.152 481.018C412.465 482.031 434.372 495.641 434.372 495.641" stroke="#36454F" stroke-width="1.36918" stroke-miterlimit="10" stroke-linecap="round" stroke-linejoin="round"/>
<path d="M387.489 510.536L407.499 513.477" stroke="#36454F" stroke-width="1.36918" stroke-miterlimit="10" stroke-linecap="round" stroke-linejoin="round"/>
<path d="M188.092 571.792L238.224 586.901L329.975 565.968C329.975 565.968 273.935 550.017 273.409 550.4C272.882 550.784 188.092 571.792 188.092 571.792Z" fill="#92E3A9"/>
<mask id="mask2_368_2380" style="mask-type:luminance" maskUnits="userSpaceOnUse" x="188" y="550" width="142" height="37">
<path d="M188.092 571.792L238.224 586.901L329.975 565.968C329.975 565.968 273.935 550.017 273.409 550.4C272.882 550.784 188.092 571.792 188.092 571.792Z" fill="white"/>
</mask>
<g mask="url(#mask2_368_2380)">
<path opacity="0.3" d="M188.092 571.792L238.224 586.901L329.975 565.968C329.975 565.968 273.935 550.017 273.409 550.4C272.882 550.784 188.092 571.792 188.092 571.792Z" fill="black" fill-opacity="0.7"/>
</g>
<path d="M188.092 571.792L238.224 586.901L329.975 565.968C329.975 565.968 273.935 550.017 273.409 550.4C272.882 550.784 188.092 571.792 188.092 571.792Z" stroke="#36454F" stroke-width="1.36918" stroke-miterlimit="10" stroke-linecap="round" stroke-linejoin="round"/>
<path d="M188.812 554.135C185.298 554.378 184.415 567.064 188.091 571.793L269.08 554.988L275.578 539.62L188.812 554.135Z" fill="#92E3A9"/>
<mask id="mask3_368_2380" style="mask-type:luminance" maskUnits="userSpaceOnUse" x="185" y="539" width="91" height="33">
<path d="M188.812 554.134C185.298 554.378 184.415 567.063 188.091 571.792L269.08 554.987L275.578 539.619L188.812 554.134Z" fill="white"/>
</mask>
<g mask="url(#mask3_368_2380)">
<path opacity="0.3" d="M188.812 554.134C185.298 554.378 184.415 567.063 188.091 571.792L269.08 554.987L275.578 539.619L188.812 554.134Z" fill="black" fill-opacity="0.7"/>
</g>
<path d="M188.812 554.135C185.298 554.378 184.415 567.064 188.091 571.793L269.08 554.988L275.578 539.62L188.812 554.135Z" stroke="#36454F" stroke-width="1.36918" stroke-miterlimit="10" stroke-linecap="round" stroke-linejoin="round"/>
<path d="M326.032 553.952C326.032 553.952 324.826 560.628 325.608 564.728L238.127 584.531L192.014 570.978C192.014 570.978 187.22 562.499 191.397 555.935L275.659 541.634L326.032 553.952Z" fill="white" stroke="#36454F" stroke-width="1.36918" stroke-miterlimit="10" stroke-linecap="round" stroke-linejoin="round"/>
<path d="M188.812 554.135L275.577 539.619L329.454 553.27L238.835 571.329L188.812 554.135Z" fill="#FFF4BC" stroke="#36454F" stroke-width="1.36918" stroke-miterlimit="10" stroke-linecap="round" stroke-linejoin="round"/>
<path d="M191.889 562.241L237.773 575.897L312.866 560.785" stroke="#36454F" stroke-width="1.36918" stroke-miterlimit="10" stroke-linecap="round" stroke-linejoin="round"/>
<path d="M325.356 562.18L244.604 579.411" stroke="#36454F" stroke-width="1.36918" stroke-miterlimit="10" stroke-linecap="round" stroke-linejoin="round"/>
<path d="M192.979 567.616C193.667 567.686 227.564 578.123 227.564 578.123" stroke="#36454F" stroke-width="1.36918" stroke-miterlimit="10" stroke-linecap="round" stroke-linejoin="round"/>
<path d="M318.757 559.019L325.184 557.978" stroke="#36454F" stroke-width="1.36918" stroke-miterlimit="10" stroke-linecap="round" stroke-linejoin="round"/>
<path d="M236.273 580.656L232.876 579.892" stroke="#36454F" stroke-width="1.36918" stroke-miterlimit="10" stroke-linecap="round" stroke-linejoin="round"/>
<path d="M191.397 555.937C191.397 555.937 197.612 562.507 192.015 570.98C192.015 570.98 186.835 564.075 191.397 555.937Z" fill="#36454F"/>
<mask id="mask4_368_2380" style="mask-type:luminance" maskUnits="userSpaceOnUse" x="189" y="555" width="6" height="16">
<path d="M191.397 555.936C191.397 555.936 197.612 562.506 192.015 570.979C192.015 570.979 186.835 564.074 191.397 555.936Z" fill="white"/>
</mask>
<g mask="url(#mask4_368_2380)">
<path opacity="0.3" d="M191.397 555.936C191.397 555.936 197.612 562.506 192.015 570.979C192.015 570.979 186.835 564.074 191.397 555.936Z" fill="white" fill-opacity="0.7"/>
</g>
<path d="M191.397 555.937C191.397 555.937 197.612 562.507 192.015 570.98C192.015 570.98 186.835 564.075 191.397 555.937Z" stroke="#36454F" stroke-width="1.36918" stroke-miterlimit="10" stroke-linecap="round" stroke-linejoin="round"/>
<path d="M378.799 575.897L466.359 579.493L457.82 609.631L350.118 605.524L378.799 575.897Z" fill="white"/>
<mask id="mask5_368_2380" style="mask-type:luminance" maskUnits="userSpaceOnUse" x="350" y="575" width="117" height="35">
<path d="M378.799 575.897L466.359 579.493L457.82 609.631L350.118 605.524L378.799 575.897Z" fill="white"/>
</mask>
<g mask="url(#mask5_368_2380)">
<path opacity="0.4" d="M378.799 575.897L466.359 579.493L457.82 609.631L350.118 605.524L378.799 575.897Z" fill="#FFF4BC"/>
</g>
<path d="M378.799 575.897L466.359 579.493L457.82 609.631L350.118 605.524L378.799 575.897Z" stroke="#36454F" stroke-width="1.36918" stroke-miterlimit="10" stroke-linecap="round" stroke-linejoin="round"/>
<path d="M331.714 289.726C329.812 293.335 327.689 296.757 325.371 299.97C312.9 317.316 294.794 328.909 274.97 333.556C265.132 335.861 254.866 336.452 244.648 335.183C234.57 333.94 224.546 330.873 215.029 325.856C213.127 324.854 211.274 323.783 209.482 322.662C207.695 321.554 205.965 320.383 204.297 319.162C202.265 317.69 200.325 316.136 198.46 314.504C198.451 314.5 198.447 314.485 198.437 314.481C198.322 314.385 198.208 314.289 198.103 314.176C198.08 314.152 198.062 314.141 198.062 314.141C187.115 304.478 179.021 292.356 174.173 279.067C172.184 273.619 170.733 267.96 169.882 262.191C167.239 244.627 169.986 226.081 178.899 209.172C192.09 184.149 215.823 168.282 241.746 164.148C259.548 161.3 278.407 163.988 295.583 173.044C311.809 181.597 324.192 194.6 332.015 209.765C344.547 233.99 345.406 263.753 331.714 289.726Z" fill="#FFC900" fill-opacity="0.42"/>
<g opacity="0.6">
<path d="M331.715 289.732C329.812 293.333 327.69 296.756 325.376 299.973L323.705 298.659L320.83 297.139L317.804 295.551L318.311 291.895C318.311 291.895 318.311 291.895 318.146 288.596C317.968 285.296 320.351 287.993 322.322 286.994C324.267 285.967 325.814 282.941 325.814 282.941C325.814 282.941 327.21 278.546 326.731 276.78C326.252 275.013 324.13 270.837 324.13 270.837L319.228 277.642L315.189 277.327L311.164 275.219L310.657 269.81L308.658 268.77L307.823 265.662L297.02 262.636C297.02 262.636 297.02 262.636 295.788 260.473C294.556 258.309 289.585 257.2 289.585 257.2L290.804 254.38C290.804 254.38 290.804 254.38 292.721 251.231C294.651 248.082 296.65 253.312 296.65 253.312L298.937 254.503L303.181 250.943C303.181 250.943 303.181 250.943 304.304 245.836L311.218 246.233C311.218 246.233 310.726 243.728 313.026 242.81C315.326 241.907 314.313 236.909 313.437 235.061C312.533 233.226 309.384 234.705 309.384 234.705C309.384 234.705 305.865 229.351 305.386 227.215C304.907 225.093 312.095 225.791 315.175 223.697C318.242 221.615 317.202 217.275 315.696 217.179C314.203 217.07 318.639 207.458 327.197 210.101C329.579 210.84 331.085 210.58 332.016 209.758C344.544 233.993 345.407 263.759 331.715 289.732Z" fill="white"/>
<path d="M271.841 252.695C268.911 256.378 268.911 256.378 268.911 256.378C268.911 256.378 267.665 253.407 265.885 255.023C264.106 256.638 263.202 257.46 263.202 257.46L261.217 263.019L257.657 265.319L255.48 264.182L253.426 263.087L251.194 261.91L249.058 265.962L247.319 269.248C248.634 271.809 250.455 273.698 250.455 273.698L254.234 280.366L258.738 282.735C261.504 282.79 264.448 283.419 264.448 283.419L267.611 285.076L266.488 291.936C266.488 291.936 264.106 295.81 262.517 294.742C260.915 293.688 260.915 293.688 260.915 293.688L258.314 302.697L258.204 307.654C258.204 307.654 256.657 308.297 255.096 308.818C253.522 309.338 254.521 309.064 251.249 310.077C247.977 311.09 248.237 311.049 245.581 311.802C242.924 312.555 239.077 314.842 239.077 314.842L239.31 319.607L233.053 320.524L229.548 318.662L230.41 315.65L230.821 310.94L230.342 307.421L228.836 304.313L233.053 300.493L232.122 298.097L229.725 293.332L224.66 296.071L222.058 297.467L216.171 294.825L215.527 291.251L213.528 284.802L211.693 280.804L208.435 276.395L207.613 272.603L209.448 269.125L210.42 267.29L207.422 263.251L206.6 260.376L201.548 255.789C201.548 255.789 203.013 255.694 202.684 253.653C202.356 251.613 205.573 248.177 205.573 248.177C207.394 249.135 212.857 252.942 212.857 252.942L217.636 253.599C217.69 253.599 218.594 253.571 219.525 251.791C220.484 249.97 223.331 247.232 223.331 247.232C223.331 247.232 221.127 239.578 222.702 238.551C224.262 237.497 225.878 232.513 225.878 232.513L227.138 230.117C227.138 230.117 224.167 228.817 223.605 227.242C223.044 225.654 215.719 227.762 215.719 227.762L210.667 231.267L206.805 234.334L205.08 237.607C205.08 237.607 201.562 233.376 201.548 235.745C201.534 238.113 199.96 242.878 199.96 242.878C199.96 242.878 200.685 243.261 199.727 245.096C198.755 246.917 197.728 246.835 195.565 247.095C193.401 247.355 187.404 246.534 187.404 246.534C187.404 246.534 186.035 251.6 186.98 252.476C187.911 253.325 187.911 253.325 187.911 253.325C187.911 253.325 186.446 257.008 184.994 256.241C183.529 255.461 181.462 254.379 181.462 254.379L176.519 256.378L171.097 262.43L169.879 262.183C167.236 244.631 169.988 226.078 178.902 209.169C192.087 184.154 215.828 168.285 241.747 164.15C242.062 165.547 242.404 166.807 242.404 166.807L241.076 173.57L239.323 176.911L237.817 179.773L235.695 183.798L240.98 188.809L239.816 194.738L236.873 196.586L236.024 201.036L241.076 210.908L242.5 214.783C242.5 214.783 240.925 218.288 241.281 220.697C241.281 220.697 241.897 224.394 244.595 225.859C247.292 227.311 250.838 229.049 250.838 229.049L250.551 234.553L249.332 235.977L251.358 241.879C257.533 244.302 256.945 246.328 257.533 244.302C258.136 242.289 258.136 242.289 258.136 242.289L262.339 240.77L267.693 247.164C267.693 247.164 269.349 246.945 270.842 248.834C272.348 250.723 274.785 249.012 271.841 252.695Z" fill="white"/>
<path d="M199.274 300.384C199.425 302.329 196.96 304.766 196.96 304.766L198.973 305.82L199.589 311.242L198.069 314.145C187.116 304.478 179.024 292.361 174.177 279.066L175.273 273.261L180.106 272.576C180.106 272.576 184.432 269.701 186.349 270.468C188.266 271.262 190.019 275.904 190.019 275.904C190.019 275.904 191.429 282.257 191.21 282.133L191.182 282.12L191.1 282.174L191.21 282.133L193.181 283.174L193.743 285.679L190.991 290.882L186.582 290.896C186.582 290.896 185.706 290.43 185.624 292.717C185.541 295.017 187.91 296.729 187.91 296.729L192.675 295.51C193.948 290.581 193.948 290.581 193.948 290.581L198.631 289.664C198.631 289.664 197.96 292.69 199.055 293.265C200.164 293.853 200.164 293.853 200.164 293.853L200.821 297.468C200.821 297.468 199.124 298.44 199.274 300.384Z" fill="white"/>
<path d="M221.921 308.128C221.498 306.961 221.32 305.934 218.402 304.398C215.494 302.866 215.642 303.415 214.512 304.683C213.375 305.947 212.066 306.66 210.157 306.233C208.248 305.804 209.242 307.968 209.242 307.968L209.7 313.811L204.297 319.161C205.965 320.382 207.695 321.553 209.482 322.66L210.636 319.129L219.619 321.8C217.713 321.232 218.838 318.628 218.838 318.628L216.918 317.616C216.918 317.616 222.349 309.285 221.921 308.128Z" fill="white"/>
<path d="M278.491 277.732L275.546 274.761L272.185 275.826L270.748 278.551L269.713 280.516L271.103 283.19L273.863 286.512L275.434 283.532C275.434 283.532 279.774 283.561 282.044 281.025C284.314 278.487 278.491 277.732 278.491 277.732Z" fill="white"/>
<path d="M269.848 264.328L275.324 267.216C275.324 267.216 275.324 267.216 275.537 265.927C275.749 264.639 277.022 263.109 277.022 263.109L272.826 258.679L269.848 264.328Z" fill="white"/>
<path d="M267.979 328.066L266.4 325.759L264.572 324.795L258.967 324.8L255.779 330.847C255.779 330.847 252.732 330.432 248.716 330.084C244.706 329.727 245.697 331.382 245.697 331.382L244.649 335.181C254.866 336.451 265.134 335.859 274.971 333.555C273.357 332.409 271.383 331.345 271.383 331.345L267.979 328.066Z" fill="white"/>
</g>
<path d="M331.714 289.726C329.812 293.335 327.689 296.757 325.371 299.97C312.9 317.317 294.794 328.909 274.97 333.556C265.132 335.861 254.866 336.452 244.648 335.183C234.57 333.94 224.546 330.873 215.029 325.856C213.127 324.854 211.274 323.783 209.482 322.662C207.695 321.554 205.965 320.383 204.297 319.162C202.265 317.69 200.325 316.136 198.46 314.504C198.451 314.5 198.447 314.485 198.437 314.481C198.322 314.385 198.208 314.289 198.103 314.176C198.08 314.152 198.062 314.141 198.062 314.141C187.115 304.478 179.021 292.356 174.173 279.067C172.184 273.619 170.733 267.96 169.882 262.191C167.239 244.627 169.986 226.081 178.899 209.172C192.09 184.149 215.823 168.282 241.746 164.148C259.548 161.3 278.407 163.988 295.583 173.044C311.809 181.597 324.192 194.6 332.015 209.765C344.547 233.99 345.406 263.753 331.714 289.726Z" stroke="#2C3E50" stroke-width="1.36918" stroke-miterlimit="10" stroke-linecap="round" stroke-linejoin="round"/>
<path d="M274.97 333.556C265.132 335.86 254.866 336.451 244.648 335.182L245.695 331.383C245.695 331.383 244.704 329.727 248.714 330.085C252.73 330.432 255.778 330.847 255.778 330.847L258.965 324.802L264.571 324.797L266.399 325.761L267.977 328.068L271.38 331.347C271.38 331.347 273.355 332.41 274.97 333.556Z" stroke="#2C3E50" stroke-width="1.36918" stroke-miterlimit="10" stroke-linecap="round" stroke-linejoin="round"/>
<path d="M332.018 209.763C331.089 210.583 329.586 210.841 327.204 210.103C318.645 207.455 314.2 217.072 315.701 217.179C317.207 217.276 318.248 221.612 315.178 223.697C312.095 225.788 304.912 225.091 305.384 227.216C305.866 229.345 309.378 234.7 309.378 234.7C309.378 234.7 312.527 233.223 313.431 235.067C314.32 236.915 315.333 241.907 313.027 242.815C310.73 243.727 311.222 246.239 311.222 246.239L304.3 245.834C303.187 250.944 303.187 250.944 303.187 250.944L298.938 254.506L296.659 253.304C296.659 253.304 294.657 248.085 292.726 251.231C290.811 254.374 290.811 254.374 290.811 254.374L289.584 257.194C289.584 257.194 294.554 258.305 295.796 260.469C297.028 262.628 297.028 262.628 297.028 262.628L307.824 265.665L308.668 268.764L310.661 269.815L311.166 275.213L315.196 277.325L319.227 277.646L324.138 270.834C324.138 270.834 326.26 275.019 326.735 276.78C327.22 278.545 325.823 282.94 325.823 282.94C325.823 282.94 324.273 285.969 322.32 286.99C320.362 287.998 317.974 285.301 318.145 288.599C318.308 291.893 318.308 291.893 318.308 291.893L317.81 295.546L320.837 297.143L323.708 298.656L325.374 299.97" stroke="#2C3E50" stroke-width="1.36918" stroke-miterlimit="10" stroke-linecap="round" stroke-linejoin="round"/>
<path d="M169.883 262.189L171.092 262.425L176.523 256.371L181.458 254.372C181.458 254.372 183.535 255.468 184.993 256.236C186.451 257.004 187.916 253.331 187.916 253.331C187.916 253.331 187.916 253.331 186.978 252.471C186.031 251.605 187.41 246.53 187.41 246.53C187.41 246.53 193.398 247.364 195.566 247.102C197.733 246.841 198.761 246.924 199.725 245.096C200.689 243.268 199.96 242.885 199.96 242.885C199.96 242.885 201.541 238.116 201.55 235.75C201.559 233.384 205.076 237.608 205.076 237.608L206.804 234.332L210.673 231.265L215.715 227.765C215.715 227.765 223.041 225.659 223.609 227.244C224.168 228.824 227.142 230.12 227.142 230.12L225.882 232.511C225.882 232.511 224.268 237.499 222.7 238.548C221.128 239.583 223.335 247.234 223.335 247.234C223.335 247.234 220.485 249.977 219.526 251.796C218.563 253.624 217.64 253.608 217.64 253.608L212.856 252.95C212.856 252.95 207.398 249.141 205.57 248.177C205.57 248.177 202.365 251.618 202.686 253.651C203.01 255.698 201.557 255.792 201.557 255.792L206.607 260.376L207.427 263.25L210.43 267.287L209.456 269.132L207.621 272.611L208.432 276.4L211.703 280.802L213.535 284.798L215.534 291.254L216.176 294.825L222.061 297.467L224.662 296.067L229.724 293.332L232.119 298.097L233.062 300.493L228.845 304.309L230.342 307.421L230.83 310.947L230.411 315.657L229.545 318.668L233.061 320.522L239.307 319.615L239.088 314.841C239.088 314.841 242.931 312.561 245.585 311.803C248.248 311.048 247.975 311.093 251.254 310.086C254.529 309.064 253.52 309.345 255.095 308.819C256.656 308.298 258.204 307.664 258.204 307.664L258.321 302.7L260.914 293.687C260.914 293.687 260.914 293.687 262.516 294.744C264.112 295.809 266.492 291.945 266.492 291.945L267.611 285.08L264.453 283.417C264.453 283.417 261.512 282.798 258.745 282.743L254.231 280.364L250.463 273.707C250.463 273.707 248.641 271.814 247.323 269.257L249.055 265.971L251.191 261.918L253.425 263.096L255.482 264.181L257.661 265.33L261.215 263.017L263.202 257.46C263.202 257.46 264.107 256.64 265.887 255.03C267.672 253.411 268.915 256.378 268.915 256.378C268.915 256.378 268.915 256.378 271.847 252.698C274.786 249.023 272.356 250.725 270.851 248.836C269.347 246.946 267.695 247.172 267.695 247.172L262.339 240.775L258.139 242.3C258.139 242.3 258.139 242.3 257.54 244.309C256.946 246.331 257.54 244.309 251.367 241.88L249.332 235.983L250.553 234.562L250.849 229.056C250.849 229.056 247.292 227.323 244.603 225.87C241.908 224.403 241.288 220.703 241.288 220.703C240.929 218.296 242.503 214.796 242.503 214.796L241.083 210.911L236.025 201.038L236.881 196.595L239.815 194.743L240.979 188.822L235.695 183.808L237.816 179.784L239.325 176.922L241.085 173.581L242.403 166.81C242.403 166.81 242.07 165.561 241.75 164.153" stroke="#2C3E50" stroke-width="1.36918" stroke-miterlimit="10" stroke-linecap="round" stroke-linejoin="round"/>
<path d="M198.461 314.503C198.324 314.337 198.174 314.221 198.104 314.173C198.081 314.15 198.063 314.139 198.063 314.139L199.591 311.24L198.979 305.822L196.966 304.761C196.966 304.761 199.417 302.325 199.272 300.387C199.122 298.433 200.815 297.461 200.815 297.461L200.159 293.847C200.159 293.847 200.159 293.847 199.061 293.268C197.963 292.689 198.63 289.656 198.63 289.656L193.947 290.574C193.947 290.574 193.947 290.574 192.67 295.503L187.91 296.721C187.91 296.721 185.543 295.014 185.621 292.719C185.707 290.43 186.585 290.891 186.585 290.891L190.991 290.879L193.735 285.674L193.186 283.179L191.202 282.133" stroke="#2C3E50" stroke-width="1.36918" stroke-miterlimit="10" stroke-linecap="round" stroke-linejoin="round"/>
<path d="M191.185 282.123L191.205 282.133C191.426 282.249 190.018 275.904 190.018 275.904C190.018 275.904 188.269 271.256 186.35 270.467C184.434 269.694 180.106 272.579 180.106 272.579L175.274 273.263L174.175 279.064" stroke="#2C3E50" stroke-width="1.36918" stroke-miterlimit="10" stroke-linecap="round" stroke-linejoin="round"/>
<path d="M210.638 319.129L209.483 322.66C207.697 321.552 205.966 320.381 204.298 319.16L209.701 313.811L209.244 307.967C209.244 307.967 208.25 305.804 210.158 306.232C212.067 306.661 213.376 305.946 214.514 304.682C215.642 303.415 215.495 302.864 218.404 304.398C221.32 305.935 221.499 306.961 221.922 308.127C222.351 309.284 216.921 317.616 216.921 317.616L218.84 318.628C218.84 318.628 217.715 321.232 219.622 321.8L210.638 319.129Z" stroke="#2C3E50" stroke-width="1.36918" stroke-miterlimit="10" stroke-linecap="round" stroke-linejoin="round"/>
<path d="M272.186 275.826L275.547 274.761L278.493 277.732C278.493 277.732 284.316 278.488 282.046 281.024C279.775 283.56 275.435 283.531 275.435 283.531L273.865 286.51L271.104 283.189L269.713 280.515L270.75 278.55L272.186 275.826Z" stroke="#2C3E50" stroke-width="1.36918" stroke-miterlimit="10" stroke-linecap="round" stroke-linejoin="round"/>
<path d="M277.022 263.111C277.022 263.111 275.749 264.64 275.537 265.929C275.324 267.217 275.324 267.217 275.324 267.217L269.848 264.329L272.826 258.68L277.022 263.111Z" stroke="#2C3E50" stroke-width="1.36918" stroke-miterlimit="10" stroke-linecap="round" stroke-linejoin="round"/>
</svg>
