<svg width="494" height="494" viewBox="0 0 494 494" fill="none" xmlns="http://www.w3.org/2000/svg">
<path d="M342.195 109.451V188.013L342.885 188.161C343.797 188.358 468.894 188.062 469.141 187.841C469.239 187.742 469.288 152.415 469.264 109.328L469.19 31.0128L428.714 30.9389C390.234 30.8896 388.239 30.9142 388.312 31.3084C388.386 31.7272 390.505 31.7518 428.369 31.8257L468.328 31.875V109.599V187.323L405.705 187.274L343.058 187.2L342.984 109.55L342.934 31.875L358.381 31.8257C372.891 31.7518 373.852 31.7272 373.925 31.3084C373.999 30.9142 373.113 30.8896 358.11 30.8896H342.195V109.451Z" fill="#36454F"/>
<path d="M145.557 45.6708C141.763 46.3113 138.634 49.2922 137.6 53.1846C137.033 55.4017 137.033 94.5225 137.624 96.7396C138.536 100.287 140.556 102.504 144.079 103.81C145.36 104.303 145.951 104.303 163.22 104.303H181.056L185.835 112.26C188.57 116.817 190.738 120.192 190.96 120.192C191.378 120.192 191.575 119.404 193.226 110.954L194.507 104.426L210.52 104.303C225.621 104.179 226.607 104.155 227.641 103.711C230.253 102.603 232.027 100.878 233.234 98.2424L233.923 96.7889L233.997 75.849C234.047 60.5505 233.997 54.5395 233.8 53.5541C232.913 49.4893 229.637 46.336 225.498 45.6708C223.749 45.3752 147.257 45.3998 145.557 45.6708ZM227.444 47.1982C230.253 48.5039 231.903 50.3762 232.667 53.086C233.037 54.2932 233.061 56.8059 233.012 75.5041L232.938 96.5426L232.273 97.9468C230.943 100.804 228.307 102.825 225.276 103.317C224.463 103.465 217.393 103.564 208.869 103.564C198.794 103.564 193.867 103.638 193.768 103.81C193.669 103.958 193.004 107.136 192.265 110.905C191.526 114.649 190.861 117.877 190.787 118.074C190.713 118.295 188.742 115.241 186.254 111.053L181.82 103.687L163.664 103.564L145.483 103.44L144.029 102.825C141.221 101.642 139.078 99.08 138.462 96.173C138.265 95.1876 138.216 89.2259 138.265 74.1245L138.339 53.4309L139.102 51.8296C140.31 49.2922 142.477 47.4446 145.089 46.7548C145.976 46.5084 155.041 46.4591 186.131 46.4838L226.04 46.5331L227.444 47.1982Z" fill="#36454F"/>
<path d="M168.763 71.808C167.31 72.3992 166.3 73.902 166.3 75.4786C166.3 79.4942 171.399 81.0216 173.616 77.6958C174.306 76.7104 174.38 74.8381 173.789 73.6064C173.025 71.9804 170.537 71.0936 168.763 71.808Z" fill="#36454F"/>
<path d="M185.392 72.1531C184.16 72.9907 183.865 73.3849 183.544 74.5428C182.756 77.3512 185.614 80.1842 188.472 79.4205C189.703 79.1003 191.107 77.6714 191.329 76.5382C191.822 73.9269 190.245 71.8083 187.683 71.5865C186.575 71.5126 186.23 71.5865 185.392 72.1531Z" fill="#36454F"/>
<path d="M203.252 71.7097C201.824 72.2517 200.542 74.0255 200.542 75.4789C200.542 78.0164 203.105 80.0365 205.519 79.3959C209.042 78.4598 209.658 73.6559 206.43 72.03C205.543 71.5619 204.041 71.4141 203.252 71.7097Z" fill="#36454F"/>
<path d="M355.597 47.4686C355.301 47.641 355.252 56.1402 355.252 109.426C355.252 143.398 355.35 171.335 355.449 171.507C355.621 171.753 365.845 171.803 405.779 171.753L455.887 171.679L455.961 138.717C456.01 107.406 455.985 105.756 455.591 105.829C455.172 105.903 455.148 107.652 455.074 138.373L455.025 170.817H405.631H356.237L356.287 109.525L356.361 48.2569L405.705 48.183L455.025 48.1338V72.0299C455.025 95.7536 455.025 95.9261 455.517 95.9261C456.01 95.9261 456.01 95.7536 456.01 71.6604C456.01 58.3081 455.936 47.3947 455.838 47.3947C455.714 47.3947 433.222 47.3701 405.803 47.3208C378.384 47.2962 355.794 47.3701 355.597 47.4686Z" fill="#36454F"/>
<path d="M275.237 111.989L275.311 149.015L305.169 149.089L335.051 149.139L335.174 148.597C335.248 148.276 335.273 131.623 335.248 111.57L335.174 75.1098H316.033C303.419 75.1098 296.867 75.1837 296.867 75.3562C296.867 75.5286 303.321 75.6518 315.515 75.7257L334.189 75.8489L334.263 111.989L334.312 148.153H305.242H276.173V111.939V75.7257L283.317 75.6764C287.875 75.6272 290.461 75.504 290.461 75.3562C290.461 75.2084 287.702 75.0852 282.824 75.0359L275.188 74.9866L275.237 111.989Z" fill="#36454F"/>
<path d="M379.567 77.1296C379.468 77.2035 379.395 91.8368 379.395 109.648V141.994H405.631H431.868V109.476V76.9571H405.803C391.466 76.9571 379.641 77.031 379.567 77.1296ZM431.129 109.476V141.009H405.754H380.38V109.476V77.9426H405.754H431.129V109.476Z" fill="#36454F"/>
<path d="M281.469 82.9188C281.395 83.0913 281.371 96.3204 281.395 112.309L281.469 141.378L304.971 141.452C322.216 141.477 328.547 141.428 328.794 141.23C329.089 140.984 329.139 138.323 329.089 125.513C329.015 111.052 328.991 110.092 328.597 110.018C328.178 109.944 328.153 110.781 328.153 125.218V140.516H305.242H282.332V112.062V83.6086H305.242H328.153V94.6452C328.153 100.73 328.227 105.78 328.326 105.854C328.399 105.953 328.621 105.904 328.818 105.756C329.065 105.534 329.139 103.366 329.139 94.4481C329.139 88.3632 329.065 83.2391 328.991 83.0174C328.843 82.6725 326.527 82.6232 305.218 82.6232C286.52 82.6232 281.543 82.6971 281.469 82.9188Z" fill="#36454F"/>
<path d="M292.851 96.591C292.752 96.6649 292.678 103.661 292.678 112.111V127.459L305.193 127.41L317.683 127.336V111.939V96.5418L305.341 96.4679C298.566 96.4432 292.925 96.4925 292.851 96.591ZM316.821 111.939V126.474H305.242H293.664V111.939V97.404H305.242H316.821V111.939Z" fill="#36454F"/>
<path d="M205.962 142.389C197.759 143.349 190.393 146.207 182.83 151.356C178.617 154.213 176.129 156.258 172.853 159.584C163.54 168.995 158.342 178.972 157.702 188.654C157.234 195.773 158.244 209.569 159.771 216.886C160.116 218.487 160.116 218.487 159.451 219.152C159.106 219.546 158.737 219.842 158.613 219.842C158.49 219.842 158.466 219.546 158.539 219.152L158.663 218.487L158.318 219.226C158.096 219.62 157.948 220.088 157.924 220.261C157.924 220.408 156.79 221.566 155.411 222.847C142.97 234.204 132.106 245.142 128.484 249.971C126.834 252.139 126.317 253.42 126.489 254.947C126.735 257.041 128.041 258.199 130.455 258.445C131.539 258.568 131.81 258.667 131.687 258.962C130.825 261.204 130.899 264.136 131.884 266.033C132.229 266.698 133.091 267.831 133.781 268.546L135.062 269.802L133.83 270.442C127.943 273.423 120.995 279.089 117.67 283.622C114.196 288.377 112.127 294.56 110.649 304.71C109.417 313.111 108.431 328.163 108.407 338.386V340.53L106.14 340.382C104.884 340.308 103.775 340.185 103.701 340.086C103.628 340.012 103.775 337.549 104.022 334.642C104.81 325.502 105.13 317.841 105.18 308.233C105.229 295.521 104.785 288.993 103.209 279.755C102.199 273.744 101.583 268.201 101.263 262.091C101.115 259.233 100.918 255.366 100.819 253.469L100.622 250.02L99.3164 247.138C97.2963 242.654 97.3456 242.629 97.3209 247.926C97.3209 259.11 98.3556 272.906 99.7845 280.469C100.597 284.682 101.139 289.757 101.534 296.334C101.854 301.779 101.706 317.323 101.263 323.926C100.942 328.951 100.302 337.105 100.129 338.707L99.9815 339.963L98.2078 339.865C97.247 339.815 94.4632 339.643 92.049 339.495L87.6147 339.199L85.9641 331.809C85.0526 327.744 83.4513 321.043 82.4166 316.905C79.8299 306.755 78.2779 300.325 77.2679 295.472C74.3363 281.528 71.5278 261.303 70.0744 243.763C69.9266 241.989 69.7541 241.373 68.7194 239.328C67.2413 236.323 66.0342 234.524 66.0342 235.288C66.0342 235.584 66.5762 240.683 67.2413 246.62C67.9804 253.296 68.3992 257.977 68.3253 258.889C68.1528 261.18 70.0005 275.222 71.9713 286.283C73.7697 296.482 75.0014 302.025 78.475 315.55C80.3965 322.989 84.0179 338.608 83.8947 338.83C83.8455 338.904 77.4896 338.584 69.7541 338.091C62.0433 337.623 55.6135 337.327 55.5149 337.426C55.4164 337.524 56.4757 342.131 57.8799 347.649C59.2841 353.168 61.8955 363.49 63.6938 370.609C71.3308 400.763 73.2523 408.277 73.6957 409.903C73.9421 410.839 74.1638 411.824 74.1638 412.046C74.1638 412.465 72.6857 412.489 43.7147 412.489C14.8668 412.489 13.2902 412.514 13.3641 412.908C13.438 413.327 15.1132 413.351 44.0103 413.425L74.5826 413.475L75.8636 418.599C76.5534 421.407 77.4896 425.078 77.9084 426.778C78.3025 428.477 78.7952 430.005 78.9431 430.177C79.1401 430.374 80.4951 430.571 82.8108 430.719C87.5407 431.04 147.257 434.759 157.554 435.4C162.038 435.671 166.472 435.942 167.408 436.016C168.369 436.09 171.251 436.262 173.813 436.385C176.4 436.533 185.367 437.075 193.768 437.617C214.954 438.947 215.225 438.972 217.171 438.947C218.132 438.923 224.882 438.258 232.199 437.42C239.516 436.607 254.297 434.957 265.038 433.774C275.779 432.567 284.697 431.508 284.869 431.409C285.091 431.286 285.017 430.67 284.573 428.896L283.982 426.581L282.356 426.433C281.469 426.334 272.97 425.718 263.486 425.053C254.001 424.363 243.359 423.6 239.836 423.329C236.313 423.082 229.169 422.565 223.946 422.196C218.723 421.826 214.24 421.432 213.944 421.333C213.501 421.185 213.279 420.545 212.515 417.564C212.023 415.593 211.628 413.869 211.628 413.721C211.628 413.598 212.22 413.475 212.959 413.475C214.067 413.475 214.289 413.549 214.412 413.967C214.486 414.238 214.905 414.608 215.373 414.805C218.058 415.914 235.598 417.737 244.147 417.761C248.828 417.786 249 417.761 251.045 417.071C252.203 416.677 253.434 416.209 253.779 416.037C254.321 415.766 254.642 415.79 255.996 416.234C259.79 417.466 266.54 416.456 268.782 414.337L269.398 413.746L275.31 413.967C278.562 414.091 283.81 414.263 286.963 414.362C292.678 414.509 292.728 414.534 293.368 415.15C294.575 416.258 296.497 417.367 298.197 417.884C299.527 418.303 300.512 418.402 302.951 418.402H306.031L305.883 419.215C305.563 420.742 305.415 426.039 305.686 426.039C305.834 426.039 310.465 426.31 316.008 426.654C321.526 426.999 333.203 427.714 341.949 428.256C358.725 429.29 370.871 430.03 378.409 430.473C380.922 430.621 385.11 430.892 387.746 431.04L392.5 431.335L403.882 430.325C410.114 429.759 417.801 429.044 420.905 428.748C424.033 428.453 428.295 428.059 430.389 427.886C442.461 426.802 460.863 425.029 461.134 424.93C461.38 424.831 461.43 423.821 461.38 420.446C461.306 415.372 461.553 415.667 458.473 416.8C456.01 417.712 453.029 417.909 451.378 417.293C450.295 416.874 447.141 414.189 447.141 413.672C447.141 413.573 456.158 413.45 467.17 413.425C484.759 413.351 487.173 413.302 487.173 412.982C487.173 412.662 484.71 412.612 466.702 412.539L446.23 412.489L444.628 410.568C443.101 408.72 443.027 408.597 443.347 408.006C444.752 405.32 445.614 400.344 445.22 397.314C444.85 394.579 444.333 393.126 442.387 389.332C440.884 386.425 440.391 385.07 438.396 378.369C434.898 366.668 427.975 344.742 426.62 340.998C426.029 339.396 426.029 339.298 426.349 336.81C426.793 333.312 427.507 330.084 428.689 326.217C429.281 324.32 429.749 322.201 429.823 321.166C429.946 319.516 429.921 319.368 429.33 318.777C428.985 318.432 428.468 318.136 428.172 318.136C426.669 318.136 424.403 319.861 423.615 321.61C423.368 322.127 423.097 322.571 423.023 322.571C422.949 322.571 422.186 320.427 421.324 317.816C419.279 311.583 418.589 310.13 417.505 309.613C416.766 309.268 416.569 309.243 415.978 309.539C414.992 310.031 414.278 311.091 414.302 312.076C414.327 312.815 416.076 320.033 417.283 324.344C417.554 325.281 417.702 326.02 417.604 326.02C417.53 326.02 417.111 325.798 416.692 325.551C416.175 325.231 415.46 324.246 414.5 322.546C412.381 318.728 411.149 316.954 409.154 314.884C407.01 312.667 405.951 311.977 404.719 311.977C403.414 311.977 402.798 312.643 402.798 314.071C402.798 315.377 403.02 315.845 404.892 318.629C405.631 319.762 406.197 320.723 406.148 320.772C406.099 320.846 403.832 320.107 401.147 319.171C395.777 317.274 388.362 314.86 382.104 312.988L378.039 311.78L377.103 308.849L376.192 305.942L377.276 303.602C378.729 300.547 379.197 298.748 380.355 291.58L381.341 285.593L382.671 284.066C385.479 280.839 388.091 276.232 388.756 273.349C389.199 271.477 388.977 269.63 388.115 267.979C386.883 265.54 385.159 264.629 383.04 265.269C382.375 265.466 382.351 265.442 382.351 264.481C382.351 260.243 380.478 252.262 378.31 247.162C378.163 246.842 378.507 246.694 380.306 246.349C383.04 245.807 384.814 245.019 385.553 243.984C386.194 243.097 386.489 241.102 386.095 240.412C385.898 240.043 386.218 239.624 387.869 237.973C390.185 235.707 390.973 234.278 390.973 232.504C390.973 231.272 390.357 229.893 389.544 229.252C389.15 228.957 389.175 228.883 389.544 228.267C391.071 225.877 391.54 224.104 390.973 223.02C390.579 222.33 388.879 221.542 387.352 221.394L386.021 221.246L386.194 220.211C386.415 218.709 385.849 214.718 385.258 213.683C384.297 211.934 381.907 211.022 379.049 211.318L377.547 211.466L377.522 210.431C377.497 209.076 376.857 207.869 375.871 207.278C374.911 206.687 372.841 206.637 371.117 207.155C370.452 207.352 369.836 207.524 369.762 207.524C369.688 207.524 369.54 206.933 369.442 206.194C369.245 204.445 368.53 202.794 367.668 202.104C366.584 201.267 364.662 201.513 362.273 202.819L360.425 203.804L359.686 202.499C359.267 201.784 358.578 200.774 358.109 200.232C357.37 199.395 357.149 199.271 356.188 199.271C355.449 199.271 354.636 199.518 353.601 200.06L352.099 200.848L351.655 199.838C351.409 199.271 350.793 198.384 350.3 197.867C348.723 196.167 347.048 196.34 344.24 198.458C343.353 199.124 342.614 199.641 342.589 199.592C342.54 199.542 342.392 199.148 342.195 198.705C341.801 197.719 340.618 196.685 339.879 196.685C339.017 196.685 338.13 197.522 337.662 198.754L337.219 199.887L336.431 199.271C333.031 196.685 329.754 197.99 330.198 201.759C330.247 202.351 330.272 202.843 330.247 202.843C330.198 202.843 329.631 202.572 328.966 202.228C327.439 201.439 326.01 201.144 325.024 201.415C324.064 201.661 323.842 202.301 324.039 204.198L324.162 205.504L323.275 205.282C321.526 204.888 320.097 205.011 319.358 205.652C318.742 206.194 318.668 206.391 318.668 207.894V209.52L317.683 209.347C316.18 209.076 313.914 209.199 312.46 209.618C311.056 210.037 310.169 210.899 310.169 211.909C310.169 212.673 310.958 214.373 311.647 215.112C311.918 215.383 312.14 215.678 312.14 215.752C312.14 215.802 311.401 215.974 310.49 216.146C308.642 216.467 307.583 216.935 307.361 217.501C307.09 218.24 307.213 219.226 307.706 220.211C308.272 221.295 308.1 221.566 306.819 221.566C305.76 221.566 303.567 222.231 302.385 222.946C300.98 223.734 300.635 224.695 301.276 226.124C301.522 226.69 301.867 227.257 302.015 227.331C302.606 227.7 302.237 227.971 301.177 227.971C299.601 227.971 298.344 228.538 298.32 229.252C298.271 230.46 298.394 231.075 298.985 232.061L299.576 233.095L298.443 233.366C295.462 234.13 295.043 236.692 297.285 240.24C297.729 240.954 298.098 241.57 298.098 241.644C298.098 241.718 297.655 241.989 297.137 242.26C294.427 243.639 294.501 246.226 297.26 247.581C297.975 247.926 299.354 248.32 300.34 248.468C301.35 248.616 302.212 248.763 302.261 248.813C302.311 248.837 302.089 249.232 301.793 249.65C300.414 251.597 301.128 253.395 303.567 254.134C307.287 255.316 311.426 255.341 314.628 254.233C315.663 253.888 316.919 253.592 317.412 253.592C318.324 253.592 318.348 253.617 318.2 254.257C318.102 254.651 317.979 256.277 317.905 257.903C317.782 260.736 317.806 261.106 318.915 266.353C319.531 269.359 320.097 271.995 320.171 272.192C320.27 272.438 320.171 272.561 319.876 272.561C317.831 272.561 315.983 274.015 314.678 276.675C313.889 278.252 313.766 278.769 313.766 280.173C313.766 283.844 316.131 286.406 323.398 290.52C325.492 291.727 325.69 291.9 326.084 292.959C327.118 295.792 328.596 298.921 329.68 300.522C331.035 302.542 334.558 306.237 336.578 307.765L337.983 308.824L337.859 310.45C337.564 314.293 337.736 313.973 335.593 315.032C326.552 319.491 314.382 326.635 309.553 330.306C305.932 333.065 304.084 335.011 303.025 337.204C302.508 338.313 301.917 339.717 301.744 340.357C301.596 341.022 301.375 341.54 301.276 341.54C301.177 341.54 300.143 339.126 298.96 336.169C290.289 314.613 282.578 298.083 278.587 292.343C274.374 286.308 267.723 280.789 258.78 275.838C256.144 274.384 250.404 271.576 250.084 271.576C249.936 271.576 249.764 271.453 249.665 271.305C249.493 271.009 248.852 268.053 248.951 267.93C248.975 267.905 249.665 268.299 250.454 268.841C254.371 271.453 258.46 271.403 259.79 268.743C260.726 266.796 260.184 262.978 258.288 258.248C257.819 257.016 257.45 255.982 257.499 255.957C257.524 255.908 258.115 255.612 258.78 255.292C261.022 254.183 261.934 251.794 260.948 249.576C260.653 248.911 259.569 247.532 258.312 246.251L256.194 244.034L256.686 242.235C257.45 239.451 257.696 236.766 257.524 232.997C257.277 227.109 257.943 223.734 260.874 215.802C262.599 211.17 262.599 211.17 264.274 209.396C269.497 203.977 272.675 199.986 274.916 196.093C276.468 193.359 276.764 192.078 276.616 188.654C276.518 186.412 276.345 185.525 275.581 183.283C271.714 171.902 261.17 160.348 249.764 154.953C245.502 152.932 241.486 151.849 238.21 151.849C237.027 151.849 236.682 151.725 235.746 151.011C230.573 147.069 224.02 144.212 217.048 142.857C215.028 142.462 207.859 142.167 205.962 142.389ZM249.148 182.47C250.601 184.539 252.942 187.816 254.371 189.787C259.101 196.364 261.219 201.759 261.564 208.165L261.712 210.653L259.84 215.802C256.834 224.153 256.44 226.272 256.514 233.687C256.588 241.176 256.07 242.925 251.267 251.178C247.891 256.992 246.734 258.815 244.763 261.352C241.117 266.033 237.224 268.693 232.125 269.999C228.947 270.812 224.365 270.837 220.817 270.073C212.836 268.348 203.671 263.15 196.552 256.327C191.822 251.794 190.073 248.837 187.387 240.831C185.958 236.643 185.835 236.052 186.205 235.953C187.363 235.584 188.225 235.091 188.471 234.598C188.742 234.106 188.718 234.081 188.077 234.204C187.683 234.278 186.895 234.5 186.303 234.721C184.751 235.313 183.667 234.943 181.844 233.243C178.42 230.09 175.316 223.66 174.996 219.103C174.749 215.703 175.981 213.166 178.469 211.983C181.204 210.653 184.357 212.032 187.116 215.703C188.792 217.994 188.964 218.142 189.235 217.969C189.383 217.896 189.432 217.551 189.358 217.23C189.21 216.688 189.284 216.639 189.999 216.639C191.058 216.639 192.758 215.777 193.3 214.964C193.546 214.594 194.532 212.427 195.517 210.111C196.478 207.82 197.414 205.874 197.611 205.775C197.808 205.652 199.951 204.839 202.39 203.927C213.624 199.764 223.577 195.354 228.824 192.201C232.987 189.713 240.452 183.997 244.147 180.475C245.157 179.514 246.118 178.726 246.241 178.726C246.389 178.726 247.67 180.401 249.148 182.47ZM186.156 240.338C188.742 248.271 190.491 251.572 194.014 255.267C195.246 256.548 197.241 258.445 198.449 259.455C199.68 260.49 201.454 262.042 202.39 262.929C203.351 263.84 207.884 268.127 212.491 272.463C217.097 276.823 221.162 280.641 221.532 280.962L222.197 281.553L221.162 283.499C218.28 288.87 214.856 291.21 209.387 291.456C204.903 291.678 201.134 290.372 197.168 287.219C194.211 284.903 191.501 281.257 190.294 277.981C189.9 276.872 189.9 276.848 190.541 275.912C191.575 274.384 192.019 272.512 192.019 269.728C192.019 266.92 191.748 265.269 190.417 259.381C188.939 252.828 185.121 237.752 184.604 236.446C184.53 236.249 184.53 236.101 184.604 236.101C184.677 236.101 185.367 238.023 186.156 240.338ZM365.352 246.448C366.904 246.571 369.59 246.743 371.314 246.842L374.443 247.014L374.812 248.148C375.453 250.192 375.921 252.434 376.29 255.464C376.931 260.367 378.212 263.692 380.552 266.427L381.685 267.757L381.513 272.192C381.267 278.769 380.799 282.735 379.173 292.663C378.064 299.364 377.67 300.768 376.019 303.897C373.137 309.415 368.062 313.16 361.977 314.342C358.109 315.082 352.493 314.613 348.354 313.209C342.491 311.214 336.504 307.124 332.193 302.148C328.794 298.256 326.478 292.417 322.881 278.769L322.019 275.468L323.965 273.423C327.069 270.098 328.892 266.525 328.892 263.692C328.892 263.027 328.621 260.859 328.276 258.839C327.931 256.844 327.586 254.479 327.513 253.592L327.365 251.966L332.735 250.439C342.072 247.803 346.703 246.965 355.498 246.374C357.912 246.201 362.667 246.251 365.352 246.448ZM386.341 267.141C388.633 269.679 388.534 272.783 385.997 277.488C385.085 279.213 381.883 283.77 381.71 283.598C381.685 283.548 381.809 282.07 381.981 280.321C382.178 278.547 382.424 274.704 382.498 271.773L382.671 266.427L383.311 266.181C384.395 265.762 385.356 266.082 386.341 267.141ZM145.384 270.787C145.655 274.359 145.754 274.828 146.173 275.074C146.838 275.419 149.252 275.222 150.262 274.704C151.395 274.138 151.445 274.162 151.321 275.123C151.247 275.788 151.346 276.035 151.888 276.478C153.317 277.587 155.509 276.897 158.663 274.359C159.673 273.547 161.003 272.266 161.619 271.551L162.727 270.221L162.875 273.054C163.048 276.33 163.54 278.153 164.6 279.213C165.733 280.321 166.866 280.518 168.936 280.001C171.079 279.459 173 278.326 175.193 276.306L176.893 274.729V275.493C176.893 277.168 177.977 278.646 179.578 279.188C181.45 279.804 185.86 279.311 187.979 278.227C188.545 277.932 189.038 277.735 189.063 277.784C189.063 277.833 189.457 278.621 189.925 279.582C194.975 290.225 206.677 295.497 215.447 291.111C219.364 289.141 222.665 284.214 225.129 276.651L225.991 273.965L226.459 275.616C227.321 278.745 228.38 279.952 230.253 279.952C231.238 279.952 231.484 279.829 232.568 278.745C233.381 277.932 234.12 276.774 234.958 275.074C235.598 273.694 236.264 272.586 236.411 272.561C236.559 272.561 236.929 272.857 237.274 273.202C238.284 274.286 240.994 275.936 242.669 276.503C244.443 277.094 246.438 277.094 247.719 276.478C248.557 276.084 249.567 274.31 249.567 273.251C249.567 272.881 249.69 272.561 249.838 272.561C249.961 272.561 251.932 273.473 254.198 274.606C265.801 280.395 273.438 286.406 278.045 293.378C282.504 300.079 290.042 316.535 299.305 339.741L300.783 343.486L300.291 345.777C298.812 352.527 297.433 361.47 296.127 372.876C295.733 376.497 295.388 379.527 295.388 379.601C295.388 379.675 294.969 379.921 294.477 380.143C291.89 381.202 289.131 382.779 284.426 385.883C279.622 389.036 276.567 390.81 276.345 390.539C276.296 390.49 275.212 387.879 273.956 384.775C269.299 373.245 258.632 347.058 257.204 343.609L256.169 341.121L259.495 333.386C265.9 318.407 265.924 318.383 265.604 318.062C265.432 317.89 265.259 317.865 265.087 318.038C264.939 318.186 262.623 323.433 259.938 329.739L255.06 341.17L255.257 343.289C255.553 346.59 255.972 357.429 255.972 361.962C255.972 368.959 255.307 372.137 252.794 377.359C250.626 381.794 246.315 388.667 242.964 393.003L242.496 393.569L238.456 393.052C232.618 392.338 227.518 391.968 225.671 392.141C224.587 392.239 222.394 392.88 218.896 394.161C211.505 396.821 207.736 398.078 207.613 397.954C207.539 397.881 207.416 397.486 207.317 397.043C207.169 396.279 207.219 396.23 208.426 395.565C210.397 394.506 210.815 394.111 210.471 393.742C210.2 393.471 209.855 393.594 208.574 394.259C207.687 394.727 206.948 395.072 206.874 394.998C206.825 394.924 206.209 392.633 205.544 389.899C204.312 384.947 204.312 384.898 204.829 384.75C205.1 384.651 205.962 384.036 206.701 383.37C210.544 379.921 223.453 372.137 228.233 370.363C230.327 369.599 230.869 368.885 230.253 367.678C229.809 366.865 227.691 365.682 226.607 365.682C226.237 365.682 225.917 365.608 225.917 365.534C225.917 365.436 226.459 364.623 227.149 363.711C228.405 362.036 229.341 360.213 229.366 359.499C229.366 358.711 228.405 357.799 227.567 357.799C225.301 357.824 222.788 359.918 217.492 366.249L216.925 366.939V364.278C216.9 361.445 216.531 360.189 215.595 359.893C213.944 359.376 211.407 362.529 209.879 367.037C209.436 368.343 209.288 368.614 209.214 368.146C209.017 366.668 208.377 364.943 207.958 364.697C207.145 364.278 206.529 365.116 205.494 368.023C204.977 369.501 204.386 370.757 204.213 370.806C204.016 370.831 203.105 370.609 202.144 370.314L200.419 369.747L199.656 366.668C195.788 351.369 194.581 346.738 194.31 346.22C194.113 345.851 194.063 345.358 194.162 344.989C194.261 344.644 194.334 343.437 194.359 342.279C194.384 339.914 193.965 338.707 192.881 338.115C191.723 337.475 190.27 338.263 186.599 341.49C185.417 342.525 184.012 343.757 183.47 344.225L182.534 345.063L167.827 344.151C159.747 343.658 152.528 343.19 151.814 343.116L150.508 342.969L150.582 340.875C150.632 339.47 150.558 338.731 150.385 338.657C149.991 338.534 149.819 339.101 149.646 341.072C149.548 342.008 149.4 342.845 149.301 342.895C149.203 342.944 144.818 342.722 139.546 342.402C134.274 342.057 127.08 341.638 123.557 341.417C114.098 340.85 109.54 340.53 109.417 340.407C109.269 340.259 109.86 323.187 110.131 318.999C111.141 304.685 113.285 293.624 116.118 287.958C118.63 282.933 124.74 276.995 131.613 272.881C136.22 270.147 144.497 266.23 144.916 266.624C145.015 266.698 145.236 268.595 145.384 270.787ZM320.516 274.089C320.664 274.409 321.304 276.749 321.994 279.336C322.659 281.898 323.645 285.421 324.162 287.145C324.68 288.894 325.074 290.298 325 290.298C324.95 290.298 323.571 289.486 321.945 288.5C315.244 284.46 313.52 281.405 315.515 277.242C316.377 275.419 317.289 274.384 318.398 273.891C319.555 273.399 320.245 273.473 320.516 274.089ZM376.808 311.238C377.448 313.332 378.015 315.131 378.064 315.205C378.31 315.624 375.403 319.467 373.383 321.462C368.727 326.02 363.529 328.015 357.223 327.67C350.399 327.301 344.018 325.108 340.495 321.93C338.155 319.811 338.18 319.861 338.525 314.613C338.672 312.15 338.894 310.031 338.993 309.908C339.116 309.81 339.682 310.031 340.274 310.45C343.279 312.519 348.65 314.638 352.665 315.328C356.114 315.944 361.608 315.697 364.367 314.811C366.904 313.998 368.456 313.234 370.402 311.854C371.856 310.82 374.59 308.208 375.034 307.42C375.157 307.198 375.354 307.1 375.453 307.223C375.551 307.321 376.167 309.144 376.808 311.238ZM417.431 310.721C418.614 312.027 423.22 326.266 423.836 330.454C424.083 332.154 424.23 332.573 424.6 332.622C425.019 332.72 425.043 332.597 424.896 330.922C424.797 329.912 424.501 328.286 424.23 327.325C423.959 326.34 423.738 325.207 423.738 324.812C423.738 323.63 424.699 321.364 425.585 320.477C426.62 319.467 428.024 318.949 428.542 319.368C429.108 319.836 428.985 321.733 428.271 324.073C426.472 330.01 425.733 333.287 425.216 337.721C425.068 339.076 424.6 342.131 424.206 344.496C422.703 353.389 422.407 357.405 423.097 360.287C423.615 362.48 425.955 366.372 431.005 373.442C437.386 382.336 442.337 390.589 443.569 394.358C444.505 397.24 444.579 400.541 443.791 403.694C443.446 405 442.534 407.562 442.337 407.759C442.288 407.809 441.771 407.587 441.18 407.242C440.588 406.897 439.775 406.552 439.381 406.478C438.396 406.257 436.548 406.848 435.292 407.759L434.257 408.523L433.272 408.006C430.512 406.626 429.897 406.503 423.368 406.355L417.209 406.207L416.421 401.256C415.46 395.195 413.662 382.73 412.652 375.364L411.913 369.87L410.213 366.495C408.242 362.554 407.971 361.691 407.06 356.567C406.518 353.537 406.37 351.985 406.37 349.054C406.37 345.752 406.321 345.358 405.951 345.284C405.582 345.21 405.508 345.383 405.508 346.467C405.508 347.699 405.483 347.748 404.966 347.575C404.645 347.477 404.079 347.378 403.66 347.329C402.97 347.28 402.921 347.206 402.896 346.319C402.872 345.802 402.773 344.471 402.675 343.363C402.502 341.49 402.527 341.343 403.093 340.702C403.783 339.889 405.04 339.618 407.897 339.594C409.868 339.569 410.435 339.421 410.435 338.928C410.435 338.657 409.942 338.584 408.094 338.584H405.754L406.838 337.155C408.218 335.332 408.612 335.011 410.041 334.371C411.593 333.706 413.366 333.804 414.253 334.642C414.795 335.135 414.869 335.159 415.017 334.79C415.091 334.568 415.091 334.223 415.017 334.026C414.82 333.509 413.366 332.917 412.332 332.917H411.494L410.952 329.666C410.484 326.759 410.287 326.167 409.228 324.172C407.331 320.624 406 318.358 404.941 316.855C404.128 315.697 403.931 315.229 403.931 314.269C403.906 313.135 403.931 313.086 404.67 313.012C405.606 312.914 407.208 314.121 409.252 316.461C410.952 318.407 412.356 320.649 415.239 325.97C417.776 330.7 418.047 330.873 418.466 327.892L418.737 325.97L417.185 320.058C415.042 311.928 415.042 311.879 415.781 310.967C416.495 310.13 416.84 310.081 417.431 310.721ZM389.002 316.19C396.664 318.58 405.705 321.708 406.124 322.127C406.296 322.3 406.197 322.324 405.877 322.226C404.03 321.684 392.5 320.329 385.455 319.861C383.435 319.713 381.735 319.565 381.661 319.516C381.612 319.467 381.735 319.097 381.932 318.703C382.129 318.333 382.548 317.2 382.868 316.215C383.287 314.86 383.533 314.466 383.804 314.564C384.026 314.613 386.366 315.353 389.002 316.19ZM331.356 320.156C331.701 320.846 332.513 322.127 333.154 322.989C333.942 324.024 334.238 324.591 334.016 324.64C333.844 324.714 332.489 325.108 330.986 325.527C325.542 327.104 318.792 329.739 314.653 331.932L312.781 332.917L311.524 332.129C310.859 331.686 310.243 331.316 310.194 331.267C309.775 330.971 318.915 325.157 325.197 321.708C326.897 320.797 328.72 319.787 329.262 319.467C329.804 319.146 330.37 318.9 330.493 318.9C330.641 318.875 331.011 319.442 331.356 320.156ZM402.798 334.494C405.04 334.716 406.961 334.888 407.06 334.888C407.676 334.888 404.498 338.411 403.241 339.126C402.625 339.47 402.182 339.988 401.862 340.751L401.369 341.86L399.817 339.594C398.979 338.362 398.24 337.401 398.191 337.45C398.142 337.5 398.61 340.431 399.25 343.979C399.866 347.526 400.334 350.482 400.26 350.556C400.162 350.655 384.839 351.911 375.083 352.626C350.103 354.449 332.637 355.262 331.701 354.646C331.479 354.523 331.503 353.931 331.75 352.379C331.947 351.221 332.045 350.113 331.972 349.916C331.898 349.719 330.346 348.043 328.523 346.22C326.7 344.397 325.197 342.821 325.197 342.698C325.197 342.599 325.369 342.525 325.566 342.525C325.788 342.525 327.586 342.131 329.582 341.638C331.577 341.17 334.583 340.431 336.283 340.037C347.837 337.253 359.514 335.332 370.033 334.519C372.669 334.322 375.403 334.1 376.069 334.051C379.148 333.804 398.955 334.149 402.798 334.494ZM64.0634 338.731C64.8024 338.781 75.3956 339.446 87.59 340.185C164.748 344.915 193.251 346.713 193.448 346.91C193.645 347.107 193.522 346.639 204.731 390.81C206.061 396.033 208.943 407.39 211.16 416.061C213.353 424.733 215.201 432.124 215.274 432.493C215.373 433.134 215.324 433.158 214.56 433.035C214.092 432.986 208.081 432.592 201.158 432.197C189.457 431.483 171.695 430.399 167.162 430.103C166.078 430.03 160.658 429.709 155.091 429.364C149.548 429.019 138.831 428.354 131.318 427.886C123.804 427.418 111.264 426.63 103.48 426.162C83.9686 424.979 78.5735 424.61 78.475 424.511C78.3764 424.413 77.1447 419.633 72.8089 402.512C71.3554 396.821 69.6556 390.047 68.9904 387.484C68.3253 384.898 66.5515 377.926 65.0488 371.964C63.546 366.003 61.5506 358.119 60.6144 354.473C59.6783 350.803 58.3973 345.851 57.7814 343.437C57.1655 340.998 56.6728 338.855 56.6728 338.657C56.6728 338.313 57.067 338.288 59.7029 338.436C61.3535 338.534 63.3243 338.657 64.0634 338.731ZM192.807 339.347C193.398 339.988 193.595 343.043 193.152 344.619L192.856 345.703L190.467 345.58C189.161 345.506 187.831 345.407 187.486 345.358C187.141 345.309 186.279 345.26 185.589 345.26C184.875 345.235 184.283 345.161 184.283 345.038C184.283 344.792 189.876 339.988 190.935 339.347C192.019 338.707 192.216 338.707 192.807 339.347ZM426.94 345.137C427.507 346.836 427.926 348.29 427.852 348.364C427.778 348.438 426.965 348.561 426.078 348.635C424.452 348.758 424.452 348.758 424.575 348.167C424.649 347.846 424.871 346.565 425.093 345.358C425.561 342.648 425.684 342.032 425.807 342.032C425.881 342.032 426.374 343.437 426.94 345.137ZM304.282 343.043C314.727 346.467 322.191 350.679 328.35 356.666C329.36 357.651 330.124 358.612 330.124 358.883C330.124 359.351 329.114 364.968 328.991 365.14C328.966 365.19 328.128 364.549 327.118 363.711C323.349 360.534 319.161 358.144 314.776 356.69C310.588 355.311 308.593 354.991 303.838 354.966C301.498 354.966 299.576 354.892 299.576 354.818C299.576 354.744 299.847 353.192 300.192 351.369C301.079 346.516 302.089 342.525 302.409 342.525C302.557 342.525 303.395 342.747 304.282 343.043ZM258.509 349.423C260.874 355.262 266.639 369.402 270.999 380.094C272.872 384.701 274.645 389.036 274.916 389.751L275.409 391.032L274.251 391.549C270.95 393.027 262.599 396.23 262.032 396.23C261.219 396.23 244.098 393.791 243.95 393.643C243.901 393.594 244.837 392.141 246.068 390.391C251.882 382.139 255.159 375.783 256.366 370.486C256.76 368.811 256.834 367.407 256.834 361.248C256.834 357.257 256.736 351.887 256.637 349.3C256.514 346.738 256.489 344.693 256.538 344.742C256.612 344.816 257.499 346.91 258.509 349.423ZM405.261 350.458C405.261 351.246 405.187 351.887 405.064 351.887C404.966 351.887 404.621 351.714 404.301 351.492C403.586 350.975 403.044 349.719 403.044 348.585V347.699L404.153 348.388C405.261 349.054 405.261 349.054 405.261 350.458ZM228.06 359.055C228.627 359.622 227.321 362.11 225.227 364.475C224.365 365.436 224.118 365.534 222.074 365.978C220.867 366.224 219.561 366.495 219.142 366.594L218.428 366.742L219.265 365.658C220.867 363.638 224.808 359.868 225.917 359.326C227.149 358.711 227.666 358.661 228.06 359.055ZM215.816 362.357C215.989 363.169 216.038 364.451 215.94 365.633L215.767 367.579L213.156 368.343C211.702 368.762 210.495 369.057 210.421 369.008C210.249 368.811 211.653 365.116 212.392 363.785C213.328 362.135 214.412 361.002 215.028 361.002C215.447 361.002 215.595 361.248 215.816 362.357ZM434.405 368.688C435.587 372.531 436.548 375.758 436.548 375.857C436.548 375.955 435.981 376.029 435.267 375.98L433.986 375.906L432.656 374.058C429.699 369.895 425.438 363.391 425.585 363.268C425.733 363.096 431.128 361.839 431.892 361.765C432.188 361.741 432.754 363.342 434.405 368.688ZM305.341 365.83C310.761 366.15 318.447 368.54 322.561 371.176C323.694 371.915 323.965 372.211 323.965 372.753C323.965 373.122 324.458 375.339 325.074 377.68C325.69 380.02 326.182 381.991 326.182 382.065C326.182 382.114 325.542 381.769 324.778 381.276C321.206 378.985 316.106 376.99 311.647 376.152C308.617 375.561 302.729 375.413 299.576 375.857C298.147 376.054 296.94 376.177 296.891 376.128C296.792 376.029 297.802 366.545 298 365.879C298.147 365.411 298.566 365.411 305.341 365.83ZM208.032 367.53C208.13 368.072 208.253 368.811 208.327 369.18C208.45 369.772 208.352 369.846 207.194 370.24C206.504 370.462 205.888 370.609 205.814 370.535C205.716 370.437 207.022 366.643 207.367 366.101C207.564 365.781 207.835 366.347 208.032 367.53ZM228.134 367.21C228.996 367.653 229.243 367.924 229.243 368.392C229.243 368.885 229.07 369.033 228.233 369.279C224.513 370.363 211.111 378.345 206.307 382.36C205.273 383.198 204.336 383.912 204.213 383.912C203.991 383.912 204.041 384.109 202.784 379.108C200.937 371.841 200.814 371.25 200.912 371.151C200.961 371.102 201.824 371.299 202.834 371.595L204.657 372.137L208.894 370.757C221.285 366.717 225.597 365.929 228.134 367.21ZM404.128 372.087C404.645 375.093 405.04 377.556 404.99 377.606C404.941 377.63 400.236 377.926 394.545 378.222C383.878 378.764 360.77 380.02 341.949 381.055C336.061 381.375 331.159 381.572 331.06 381.473C330.961 381.4 330.543 379.995 330.149 378.394L329.409 375.462L330.567 372.605L331.725 369.747L347.615 369.599C362.347 369.451 367.471 369.279 378.902 368.639C386.489 368.195 399.989 367.062 400.704 366.791C400.852 366.742 401.443 366.692 402.059 366.692L403.192 366.668L404.128 372.087ZM327.118 371.669C327.389 371.989 328.498 375.783 328.35 375.881C327.981 376.152 326.084 376.522 325.936 376.349C325.69 376.128 324.95 373.319 324.95 372.679C324.95 371.644 326.503 370.905 327.118 371.669ZM331.725 388.544C333.351 394.875 334.657 400.369 334.607 400.787C334.583 401.182 334.731 402.463 334.952 403.596C335.149 404.729 335.273 405.69 335.223 405.764C335.1 405.887 332.464 401.724 332.095 400.837C331.972 400.541 330.912 396.526 329.754 391.919C328.572 387.312 327.291 382.286 326.897 380.759C326.478 379.207 326.207 377.803 326.281 377.63C326.404 377.285 326.995 377.113 328.153 377.039C328.769 377.014 328.794 377.138 331.725 388.544ZM295.142 382.508C295.019 383.592 294.748 384.208 293.762 385.661C290.905 389.825 288.934 393.865 288.022 397.462C287.111 401.083 287.406 403.744 289.106 407.439C289.574 408.449 289.968 409.434 289.968 409.632C289.968 409.804 290.338 410.715 290.806 411.652C291.274 412.588 291.644 413.351 291.619 413.376C291.545 413.475 272.625 412.933 272.305 412.859C272.108 412.785 272.157 412.415 272.477 411.553C274.448 406.38 271.985 400.443 266.762 397.831C265.801 397.363 264.865 396.969 264.693 396.969C264.496 396.969 264.348 396.846 264.348 396.723C264.348 396.575 264.471 396.476 264.619 396.476C265.259 396.476 277.084 391.599 279.129 390.49C279.868 390.071 282.381 388.495 284.672 386.992C290.338 383.247 294.649 380.833 295.166 381.104C295.24 381.129 295.216 381.769 295.142 382.508ZM309.923 387.189C314.012 388.15 318.841 390.342 321.255 392.338L321.871 392.83L321.231 393.372C320.886 393.643 320.516 394.087 320.442 394.308C320.319 394.653 319.851 394.506 317.141 393.126C310.49 389.8 305.513 388.766 300.857 389.726C296.448 390.638 293.245 393.101 291.323 397.092C290.264 399.26 289.55 401.921 289.402 404.113L289.328 405.222L288.983 404.483C288.761 403.99 288.638 402.857 288.638 401.157C288.638 398.866 288.737 398.299 289.426 396.255C290.289 393.791 292.802 388.667 293.713 387.534C294.477 386.598 296.201 386.376 302.409 386.499C306.597 386.573 307.73 386.672 309.923 387.189ZM407.232 389.923C407.232 389.973 407.331 390.589 407.479 391.303L407.725 392.584L405.015 395.984C403.537 397.831 402.157 399.482 401.985 399.63C401.812 399.802 400.876 400.024 399.94 400.147C399.004 400.295 395.186 400.861 391.466 401.403C387.746 401.945 384.617 402.389 384.494 402.389C384.346 402.389 384.568 402.142 384.962 401.847C386.539 400.615 391.786 396.181 394.988 393.348L398.388 390.367L401.024 390.194C402.478 390.12 403.783 389.997 403.906 389.948C404.251 389.825 407.232 389.8 407.232 389.923ZM306.967 390.589C309.406 390.958 313.224 392.338 316.525 393.988C318.151 394.801 319.555 395.589 319.654 395.737C319.728 395.885 319.679 396.378 319.531 396.87C319.358 397.363 319.21 398.373 319.161 399.112C319.112 400.369 318.989 400.64 317.954 401.871C317.338 402.635 316.574 403.744 316.279 404.335C315.638 405.665 315.417 407.784 315.811 408.745C316.082 409.361 316.033 409.607 315.564 410.518C315.22 411.159 314.949 412.194 314.899 413.056C314.801 414.263 314.875 414.632 315.343 415.248C315.638 415.643 315.811 416.037 315.737 416.111C315.491 416.357 313.273 416.628 309.849 416.8C307.977 416.899 306.4 417.096 306.326 417.195C306.105 417.539 300.34 417.441 298.936 417.071C293.664 415.667 290.461 411.159 290.461 405.197C290.461 395.417 297.605 389.086 306.967 390.589ZM396.393 390.662C396.393 390.86 389.618 396.673 383.632 401.625C382.622 402.463 382.006 402.758 381.045 402.906C379.912 403.103 360.819 405.912 348.182 407.784L343.452 408.474L343.476 404.113C343.501 399.186 343.254 398.25 341.776 397.388C341.037 396.969 340.963 396.969 339.436 397.462C338.598 397.757 337.367 398.275 336.701 398.62C336.061 398.989 335.494 399.211 335.445 399.162C335.322 399.014 334.558 395.811 334.558 395.417C334.558 395.171 334.928 395.072 335.741 395.047C336.997 394.998 383.656 391.5 390.234 390.958C394.693 390.589 396.393 390.515 396.393 390.662ZM235.771 393.766C246.512 394.949 262.328 397.289 264.471 397.979C266.442 398.644 267.723 399.408 269.102 400.787C270.581 402.216 271.369 403.621 271.886 405.591C272.231 406.922 272.256 407.488 272.034 408.966C271.886 409.927 271.566 411.184 271.344 411.726C270.975 412.662 270.876 412.736 270.014 412.736C269.472 412.736 268.955 412.908 268.758 413.13C267.698 414.411 263.313 415.766 260.16 415.766C258.386 415.79 255.454 415.273 255.085 414.879C255.011 414.83 254.888 413.82 254.814 412.637C254.74 411.455 254.568 410.445 254.444 410.371C254.223 410.223 251.488 411.676 250.527 412.465C250.084 412.834 250.01 413.007 250.232 413.228C250.429 413.45 250.872 413.327 252.104 412.637L253.681 411.75L253.829 413.154C253.927 414.14 253.878 414.682 253.681 414.903C253.508 415.076 252.375 415.544 251.143 415.963C249.37 416.603 248.433 416.751 246.241 416.85L243.531 416.973L242.718 416.16C242.028 415.495 241.93 415.248 242.078 414.608C242.275 413.622 244.443 406.035 245.526 402.438C245.995 400.886 246.315 399.531 246.216 399.408C245.995 399.038 245.428 399.162 245.28 399.605C245.231 399.851 244.837 401.157 244.418 402.512C243.137 406.725 241.511 412.539 241.191 414.017C240.895 415.273 240.92 415.495 241.289 416.061C241.536 416.431 241.683 416.751 241.634 416.776C241.536 416.874 232.494 416.185 232.396 416.086C232.347 416.061 233.431 412.982 234.786 409.262C236.14 405.542 237.643 401.428 238.136 400.098C238.974 397.782 239.023 397.215 238.407 397.215C238.21 397.215 236.658 401.157 234.712 406.503C232.839 411.602 231.263 415.84 231.213 415.914C231.041 416.061 223.478 415.298 223.281 415.101C223.207 415.027 223.798 413.327 224.636 411.331C225.449 409.311 226.927 405.739 227.888 403.374C228.848 401.009 229.908 398.423 230.253 397.634C230.893 396.156 230.942 395.368 230.376 395.368C230.179 395.368 228.528 399.088 226.065 405.148C222.222 414.657 222.074 414.953 221.433 414.953C220.423 414.953 215.767 414.017 215.496 413.746C214.93 413.179 217.861 405.123 220.67 399.63C222.369 396.279 224.168 393.619 225.03 393.249C225.72 392.953 230.4 393.175 235.771 393.766ZM325.887 393.668C326.478 394.062 329.508 398.595 332.095 402.881C332.957 404.31 334.09 406.109 334.632 406.897C335.544 408.203 335.642 408.474 335.741 410.272C335.839 412.095 335.815 412.243 335.199 412.859C334.681 413.376 334.484 413.45 334.066 413.228C333.031 412.662 320.344 400.319 320.147 399.679C319.974 399.137 320.344 397.437 321.009 395.688C321.378 394.653 321.723 394.235 322.413 393.816C323.522 393.175 325.098 393.101 325.887 393.668ZM221.68 395.663C219.413 399.383 216.137 406.798 214.979 410.814L214.56 412.194L212.959 412.292C212.072 412.341 211.308 412.317 211.259 412.243C211.013 411.849 207.958 399.334 208.081 399.211C208.253 399.014 222 394.062 222.394 394.037C222.542 394.013 222.246 394.752 221.68 395.663ZM408.341 396.378C408.538 397.437 408.71 398.447 408.71 398.595C408.71 398.841 403.783 399.777 403.586 399.556C403.537 399.506 404.473 398.299 405.631 396.846C406.813 395.417 407.823 394.284 407.873 394.333C407.922 394.382 408.119 395.294 408.341 396.378ZM330.124 397.117C330.124 397.314 330.025 397.412 329.878 397.339C329.754 397.265 329.631 397.018 329.631 396.821C329.631 396.624 329.754 396.526 329.878 396.6C330.025 396.673 330.124 396.92 330.124 397.117ZM341.85 398.718C342.269 399.186 342.318 399.728 342.392 403.423C342.491 407.956 342.195 410.568 341.555 411.282C340.939 411.947 339.879 412.095 338.894 411.627C338.204 411.307 337.933 410.937 337.564 409.952C336.948 408.326 336.135 405 335.79 402.684C335.544 401.108 335.544 400.812 335.889 400.443C336.603 399.654 339.756 398.25 340.865 398.225C341.136 398.201 341.579 398.423 341.85 398.718ZM325.837 406.946C328.917 409.927 331.774 412.662 332.144 413.031C332.908 413.77 333.031 414.337 332.44 414.559C331.922 414.756 328.326 413.943 325.443 412.982C322.783 412.095 317.954 409.705 317.141 408.868C315.983 407.735 316.648 405.074 318.693 402.561C319.235 401.921 319.777 401.428 319.925 401.453C320.073 401.502 322.733 403.965 325.837 406.946ZM422.999 407.439C422.999 407.488 422.407 407.858 421.668 408.252C420.954 408.671 418.885 410.198 417.062 411.652C411.937 415.766 409.523 417.145 404.621 418.894C402.33 419.707 397.797 420.988 394.373 421.826L392.229 422.343L376.266 421.358C356.533 420.126 349.512 419.707 343.673 419.362C341.16 419.215 339.042 419.018 338.943 418.919C338.845 418.82 338.869 418.081 338.993 417.293C339.116 416.48 339.239 415.322 339.239 414.706V413.573L341.9 412.637C348.28 410.371 351.63 409.262 354.513 408.523C357.543 407.759 357.74 407.735 364.86 407.587C371.979 407.439 422.999 407.316 422.999 407.439ZM430.734 408.055C431.449 408.301 432.385 408.671 432.804 408.892L433.592 409.311V412.317V415.322L433.001 414.091C432.385 412.711 431.128 411.504 430.365 411.504C429.601 411.504 428.911 411.972 428.911 412.489C428.911 412.908 429.01 412.933 429.626 412.711C430.882 412.268 431.399 412.809 432.705 415.987C432.902 416.505 433.198 416.924 433.321 416.924C433.493 416.924 433.592 417.835 433.592 419.436V421.974L432.828 420.619C431.843 418.796 431.276 418.254 429.527 417.416C427.753 416.554 425.413 416.283 425.265 416.948C425.216 417.268 425.487 417.392 426.497 417.515C428.32 417.761 430.02 418.55 430.931 419.584C431.793 420.594 432.705 422.467 432.483 422.836C432.237 423.23 430.636 423.132 430.636 422.737C430.636 422.343 428.887 420.693 427.655 419.929C423.959 417.663 420.954 418.229 413.711 422.516C411.839 423.624 411.42 423.969 411.42 424.462C411.42 424.979 411.322 425.053 410.459 425.053C409.917 425.053 405.926 425.373 401.566 425.792C397.206 426.186 393.535 426.531 393.387 426.531C393.141 426.531 393.264 423.403 393.535 423.156C393.584 423.107 395.087 422.664 396.885 422.22C406.616 419.683 411.913 417.244 417.209 412.785C420.905 409.705 423.713 408.006 425.807 407.562C427.113 407.291 429.108 407.488 430.734 408.055ZM440.12 407.784C441.229 408.301 443.347 410.469 446.304 414.115C448.373 416.677 449.974 417.958 451.674 418.426C453.152 418.82 456.33 418.55 458.424 417.86C459.385 417.515 460.247 417.318 460.321 417.367C460.395 417.441 460.444 418.155 460.444 418.944C460.444 419.978 460.346 420.373 460.099 420.373C459.927 420.373 458.129 420.545 456.108 420.742C449.284 421.407 436.302 422.59 435.661 422.59C435.021 422.59 435.021 422.59 435.439 421.9C436.499 420.274 437.706 418.845 438.568 418.254C439.43 417.638 439.554 417.613 440.711 417.909C441.401 418.057 442.461 418.599 443.101 419.067C443.815 419.609 444.308 419.855 444.456 419.707C444.85 419.313 444.481 418.82 443.249 417.983C441.894 417.071 440.243 416.579 439.258 416.8C438.322 416.997 436.474 418.648 435.415 420.225L434.577 421.481V418.771C434.602 415.716 435.144 413.647 436.376 412.12C437.829 410.272 440.046 411.307 443.126 415.248C444.16 416.628 444.924 417.071 444.924 416.332C444.924 415.914 443.544 414.041 442.239 412.637C439.43 409.656 436.523 409.459 435.07 412.194L434.602 413.105L434.577 411.331C434.577 409.582 434.577 409.582 435.538 408.819C436.499 408.055 438.026 407.365 438.765 407.34C438.962 407.34 439.578 407.538 440.12 407.784ZM318.521 411.011C320.984 412.539 325.049 414.066 329.631 415.224C330.567 415.47 330.666 415.544 330.222 415.692C328.252 416.456 320.221 416.603 318.028 415.963C316.648 415.544 315.835 414.583 315.835 413.376C315.835 412.292 316.624 410.272 317.043 410.272C317.19 410.272 317.856 410.617 318.521 411.011ZM338.007 413.253C338.278 414.386 338.155 417.934 337.835 418.476C337.687 418.722 335.839 415.643 335.642 414.83C335.568 414.485 335.741 413.967 336.135 413.351C336.48 412.834 336.775 412.144 336.775 411.799C336.775 411.208 336.8 411.208 337.243 411.602C337.514 411.849 337.859 412.588 338.007 413.253ZM335.618 416.948C336.135 417.909 336.504 418.747 336.431 418.82C336.357 418.894 335.396 418.87 334.312 418.771C332.858 418.648 332.366 418.525 332.563 418.328C332.957 417.934 332.883 416.677 332.464 416.529C331.898 416.308 332.021 416.037 332.908 415.593C334.312 414.903 334.607 415.051 335.618 416.948ZM321.674 417.367C323.522 417.416 326.133 417.342 327.66 417.17C330.321 416.874 331.848 416.973 331.848 417.441C331.848 417.884 329.188 418.919 326.847 419.412C324.162 419.978 319.974 420.077 318.964 419.609C318.2 419.264 317.56 418.254 317.56 417.392C317.56 416.997 317.658 416.924 318.003 417.047C318.225 417.145 319.9 417.293 321.674 417.367ZM315.121 418.55C316.574 418.697 316.796 418.771 317.141 419.387C317.831 420.545 319.013 420.914 321.846 420.914C324.162 420.89 328.399 420.249 329.976 419.658C330.296 419.535 330.888 419.461 331.257 419.51C331.651 419.56 333.129 419.658 334.558 419.757C336.726 419.88 337.219 419.978 337.613 420.422C338.081 420.939 338.106 420.939 338.475 420.471C338.869 420.003 339.165 420.003 357.469 421.161C367.693 421.777 379.123 422.491 382.843 422.688C386.563 422.91 390.234 423.156 390.998 423.23L392.352 423.378L392.254 424.881C392.205 425.718 392.106 426.457 392.057 426.507C391.983 426.581 385.504 426.236 376.684 425.669C375.674 425.595 372.078 425.373 368.678 425.176C365.303 424.979 354.365 424.314 344.412 423.698C334.46 423.082 322.659 422.368 318.176 422.097C309.11 421.555 306.647 421.383 306.499 421.235C306.425 421.136 306.745 419.633 307.115 418.426C307.213 418.155 307.804 418.131 310.366 418.254C312.091 418.352 314.234 418.476 315.121 418.55ZM426.078 420.274C427.384 420.89 429.675 422.54 429.823 422.959C429.897 423.206 412.455 424.93 412.233 424.708C412.11 424.585 415.756 422.393 417.751 421.383C419.303 420.619 421.447 419.757 422.383 419.56C423.245 419.362 424.797 419.683 426.078 420.274ZM460.444 422.688V424.043L459.41 424.166C458.818 424.265 455.862 424.536 452.807 424.807C447.88 425.25 424.945 427.369 418.072 428.009C416.643 428.133 410.73 428.699 404.892 429.241C399.078 429.783 394.077 430.227 393.757 430.227C393.239 430.227 393.19 430.128 393.19 428.872C393.19 428.133 393.289 427.517 393.387 427.517C393.584 427.517 429.921 424.191 443.323 422.959C446.993 422.614 451.871 422.171 454.162 421.949C456.478 421.752 458.523 421.555 458.72 421.506C458.917 421.456 459.385 421.407 459.779 421.383C460.42 421.358 460.444 421.383 460.444 422.688ZM227.888 423.452C234.588 423.92 240.797 424.363 241.683 424.437C242.57 424.511 248.729 424.955 255.356 425.423C272.083 426.63 277.232 427.024 277.331 427.098C277.404 427.172 263.83 428.699 237.372 431.606C230.598 432.345 223.232 433.158 220.99 433.405C218.748 433.676 216.851 433.823 216.777 433.774C216.457 433.577 216.038 431.384 216.284 431.237C216.432 431.138 223.995 430.202 233.11 429.143C242.225 428.059 249.961 427.098 250.281 426.975C250.798 426.778 250.823 426.704 250.527 426.433C250.281 426.186 245.724 425.792 233.677 424.93C212.565 423.427 213.993 423.575 213.895 422.885C213.821 422.368 213.87 422.343 214.757 422.467C215.274 422.54 221.187 422.984 227.888 423.452ZM319.284 423.206C330.149 423.871 344.708 424.733 347.984 424.93C349.068 424.979 351.286 425.127 352.911 425.201C354.537 425.3 364.022 425.891 373.975 426.507L392.081 427.64L392.155 428.97L392.229 430.301L389.076 430.128C386.44 430.005 369.688 428.97 335.79 426.901C332.464 426.704 328.991 426.482 328.03 426.408C327.094 426.334 322.536 426.063 317.929 425.792C307.386 425.176 306.72 425.127 306.573 425.004C306.474 424.905 306.376 422.984 306.449 422.516C306.449 422.417 307.065 422.393 307.78 422.467C308.47 422.54 313.668 422.885 319.284 423.206ZM231.041 425.694C238.259 426.211 243.974 426.728 243.728 426.827C243.309 426.975 217.984 430.005 216.457 430.079C215.669 430.103 215.816 430.448 214.461 425.078L214.314 424.487L216.112 424.634C217.097 424.708 223.823 425.176 231.041 425.694ZM103.726 427.147C115.723 427.886 128.189 428.675 131.441 428.872C134.693 429.069 143.684 429.635 151.395 430.103C159.131 430.571 174.429 431.508 185.392 432.197C196.379 432.863 207.465 433.552 210.027 433.7C212.614 433.848 214.93 433.996 215.201 434.045C215.595 434.119 215.792 434.538 216.161 436.016C216.408 437.051 216.58 437.937 216.531 437.962C216.482 438.011 214.117 437.888 211.259 437.716C208.426 437.543 201.429 437.1 195.739 436.755C184.037 436.041 159.377 434.488 156.199 434.291C152.849 434.07 135.579 433.01 120.232 432.074C97.3456 430.67 90.1274 430.227 88.6986 430.103C87.9595 430.054 85.7177 429.931 83.7223 429.832C81.7515 429.734 80.0024 429.586 79.8792 429.512C79.6082 429.34 78.5982 425.891 78.746 425.718C78.8199 425.644 79.5589 425.644 80.3965 425.718C81.2341 425.768 91.7287 426.408 103.726 427.147Z" fill="#36454F"/>
<path d="M221.606 210.875C217.787 211.392 215.816 211.959 213.082 213.338C211.234 214.25 210.791 214.693 211.012 215.383C211.283 216.221 211.875 216.171 214.166 215.038C218.772 212.772 223.429 212.23 228.035 213.412C230.548 214.077 231.09 214.003 231.09 213.067C231.09 212.575 230.893 212.353 230.228 212.057C228.257 211.244 223.626 210.604 221.606 210.875Z" fill="#36454F"/>
<path d="M248.089 211.564C246.069 212.155 242.916 213.978 242.916 214.569C242.916 214.964 243.482 215.653 243.827 215.653C244.049 215.653 244.739 215.333 245.354 214.964C248.089 213.264 251.218 212.722 253.755 213.461C254.888 213.781 257.253 215.136 257.549 215.629C257.795 216.023 258.805 215.949 259.175 215.53C259.618 214.988 259.273 214.323 258.066 213.461C255.849 211.86 254.371 211.367 251.661 211.293C250.183 211.268 248.754 211.367 248.089 211.564Z" fill="#36454F"/>
<path d="M248.409 219.644C247.423 220.703 247.103 221.738 247.103 223.832C247.103 225.729 247.546 227.01 248.507 228.02C249.419 228.981 250.38 228.931 251.414 227.897C252.35 226.961 252.769 225.704 252.769 223.783C252.769 221.861 252.35 220.605 251.414 219.669C250.33 218.585 249.419 218.585 248.409 219.644Z" fill="#36454F"/>
<path d="M222.098 220.162C221.064 221.196 220.67 222.65 220.793 224.892C220.891 227.01 221.556 228.414 222.714 229.006C223.946 229.646 224.882 229.178 225.744 227.478C226.927 225.163 226.607 221.714 225.055 220.162C223.995 219.102 223.158 219.102 222.098 220.162Z" fill="#36454F"/>
<path d="M242.915 233.884C242.915 234.007 243.088 234.746 243.285 235.534C243.482 236.298 243.654 237.825 243.654 238.934C243.654 241.299 243.088 242.752 241.881 243.491C241.166 243.96 240.797 244.009 238.85 243.91C237.52 243.836 236.067 243.59 235.229 243.294C234.096 242.876 233.776 242.851 233.554 243.097C233.16 243.59 233.776 243.96 235.82 244.501C238.21 245.142 240.92 245.117 242.176 244.477C244.122 243.491 244.763 241.816 244.566 238.096C244.418 235.066 244.024 233.637 243.359 233.637C243.112 233.637 242.915 233.736 242.915 233.884Z" fill="#36454F"/>
<path d="M221.064 248.837C220.842 249.404 221.335 251.547 222 253.001C222.739 254.577 224.931 256.696 226.607 257.484C229.809 258.938 233.578 257.78 237.175 254.183C239.023 252.335 238.875 252.188 235.18 252.311C230.745 252.459 226.705 251.449 223.133 249.281C221.507 248.295 221.285 248.246 221.064 248.837ZM224.562 251.104C227.641 252.582 229.883 253.124 233.554 253.272L236.633 253.419L235.401 254.503C233.529 256.154 231.484 257.041 229.587 257.041C228.577 257.041 227.641 256.868 226.976 256.573C225.473 255.883 223.749 254.183 222.985 252.606C222.246 251.178 221.827 249.773 222.148 249.946C222.246 249.995 223.33 250.512 224.562 251.104Z" fill="#36454F"/>
<path d="M367.151 266.032C365.278 266.451 363.036 267.584 361.829 268.791C360.819 269.752 360.721 270.195 361.312 271.033C361.854 271.797 362.864 271.723 363.997 270.836C366.756 268.643 369.811 268.151 372.669 269.456C374.418 270.269 375.206 270.195 375.674 269.21C375.921 268.668 375.896 268.446 375.551 267.954C375.083 267.215 373.063 266.254 371.265 265.909C369.639 265.589 369.072 265.613 367.151 266.032Z" fill="#36454F"/>
<path d="M342.047 268.619C339.313 269.013 336.874 270.196 335.002 272.019C333.942 273.004 333.794 273.965 334.509 274.605C335.223 275.246 335.913 275.098 337.12 274.063C339.461 272.019 342.466 271.132 345.324 271.575C346.161 271.723 347.147 271.945 347.492 272.068C348.379 272.413 349.413 272.388 349.783 272.019C350.3 271.501 350.152 270.146 349.512 269.752C348.231 268.89 344.215 268.299 342.047 268.619Z" fill="#36454F"/>
<path d="M366.116 275C364.786 275.345 363.924 277.66 364.515 279.335C365.131 281.134 366.56 281.454 367.791 280.075C369.565 278.03 368.383 274.433 366.116 275Z" fill="#36454F"/>
<path d="M344.314 277.389C342.787 278.941 344.191 282.661 346.31 282.661C348.551 282.661 348.97 279.459 346.95 277.562C345.916 276.576 345.176 276.527 344.314 277.389Z" fill="#36454F"/>
<path d="M361.657 291.407C360.696 292.441 359.218 292.86 356.976 292.688C354.907 292.565 354.291 292.786 355.129 293.427C355.424 293.624 356.286 293.747 357.568 293.747C359.144 293.747 359.809 293.624 360.795 293.156C362.15 292.515 363.283 291.456 363.012 291.062C362.766 290.618 362.273 290.742 361.657 291.407Z" fill="#36454F"/>
<path d="M366.707 296.186C366.338 296.802 363.061 298.674 361.558 299.142C358.799 299.979 354.217 299.733 351.409 298.551C350.916 298.354 350.251 298.181 349.906 298.181C349.413 298.181 349.364 298.255 349.561 298.625C349.832 299.117 352.197 300.004 354.463 300.423C356.484 300.792 360.647 300.571 362.396 300.004C364.219 299.388 367.422 297.22 367.52 296.506C367.594 295.964 367.003 295.718 366.707 296.186Z" fill="#36454F"/>
<path d="M174.183 280.321C174.183 280.863 179.578 287.564 183.791 292.269C184.702 293.279 185.762 294.486 186.131 294.905C186.501 295.348 186.944 295.718 187.117 295.718C187.856 295.718 187.708 295.151 186.698 294.018C183.101 289.928 179.603 285.814 177.41 283.08C175.07 280.173 174.183 279.409 174.183 280.321Z" fill="#36454F"/>
<path d="M232.002 281.848C231.928 281.972 231.706 283.006 231.484 284.189C230.499 289.485 228.331 294.88 226.262 297.172C225.129 298.428 224.882 299.167 225.621 299.167C226.188 299.142 228.208 296.531 229.267 294.412C230.893 291.21 233.135 283.129 232.716 282.046C232.568 281.651 232.174 281.553 232.002 281.848Z" fill="#36454F"/>
<path d="M175.045 293.747C174.824 294.092 175.908 295.349 179.233 298.625C184.53 303.823 187.929 306.73 191.551 309.218C194.335 311.115 196.7 312.347 197.069 312.101C197.636 311.756 197.291 311.288 196.059 310.721C192.29 308.997 186.698 304.488 179.751 297.615C177.46 295.349 175.489 293.501 175.39 293.501C175.292 293.501 175.119 293.599 175.045 293.747Z" fill="#36454F"/>
<path d="M189.309 297.713C188.989 298.255 196.65 305.325 197.587 305.325C198.449 305.325 198.128 304.734 196.675 303.601C195.887 302.985 194.064 301.359 192.635 299.979C191.181 298.575 189.9 297.442 189.753 297.442C189.605 297.442 189.408 297.565 189.309 297.713Z" fill="#36454F"/>
<path d="M281.149 311.484C279.671 312.691 279.228 313.455 279.992 313.455C280.534 313.455 283.564 311.016 283.564 310.597C283.564 309.932 282.677 310.252 281.149 311.484Z" fill="#36454F"/>
<path d="M142.65 313.086C142.65 313.283 143.758 314.761 145.138 316.338C151.248 323.433 155.682 330.306 156.766 334.297C156.914 334.937 157.209 335.504 157.382 335.578C159.082 336.218 156.692 330.355 153.046 324.911C149.893 320.205 143.709 312.716 142.995 312.716C142.798 312.716 142.65 312.889 142.65 313.086Z" fill="#36454F"/>
<path d="M272.379 319.417C265.999 325.822 262.057 330.798 263.732 330.404C263.905 330.355 265.062 329.049 266.319 327.497C267.575 325.945 270.753 322.521 273.365 319.909C276.001 317.298 278.144 315.056 278.144 314.933C278.144 314.785 277.922 314.687 277.651 314.687C277.306 314.687 275.459 316.362 272.379 319.417Z" fill="#36454F"/>
<path d="M149.055 327.3C149.129 329.566 149.77 335.454 150.016 335.701C150.632 336.317 150.706 335.405 150.385 331.439C150.213 329.197 150.065 327.226 150.065 327.054C150.041 326.906 149.819 326.758 149.548 326.758C149.203 326.758 149.055 326.931 149.055 327.3Z" fill="#36454F"/>
<path d="M286.742 375.241C283.145 377.212 280.312 379.133 278.341 380.932C276.074 383.026 275.089 384.282 275.385 384.775C275.557 385.095 276.05 384.726 278.045 382.755C279.376 381.424 281.42 379.725 282.578 378.961C284.943 377.384 289.55 374.798 289.944 374.798C290.092 374.798 290.215 374.576 290.215 374.305C290.215 373.517 289.55 373.714 286.742 375.241Z" fill="#36454F"/>
<path d="M290.264 377.876C287.012 379.625 284.056 381.596 284.056 382.064C284.056 382.705 284.721 382.458 287.062 380.931C288.318 380.118 290.387 378.936 291.644 378.32C293.836 377.211 294.501 376.521 293.368 376.521C293.048 376.521 291.668 377.137 290.264 377.876Z" fill="#36454F"/>
<path d="M131.268 377.064C129.421 377.31 127.721 378.123 126.44 379.429C124.962 380.907 124.346 382.36 124.223 384.824C123.927 390.317 127.943 395.885 133.904 398.225C135.136 398.693 135.851 398.792 138.092 398.792C140.556 398.817 140.926 398.743 142.207 398.127C145.877 396.328 147.602 392.116 146.468 387.731C145.015 382.212 139.398 377.433 133.781 376.965C133.165 376.916 132.057 376.94 131.268 377.064ZM136.467 378.517C143.044 380.808 147.355 388.026 145.36 393.348C144.769 394.949 143.217 396.599 141.665 397.314C140.063 398.053 136.22 398.028 134.151 397.265C130.579 395.934 127.425 392.904 125.898 389.332C125.11 387.509 124.937 384.454 125.504 382.73C126.859 378.665 131.663 376.817 136.467 378.517Z" fill="#36454F"/>
<path d="M101.657 188.727C101.558 189.663 101.41 190.895 101.336 191.511C101.238 192.274 101.287 192.545 101.46 192.373C101.706 192.127 102.174 187.076 101.928 187.076C101.878 187.076 101.755 187.815 101.657 188.727Z" fill="#36454F"/>
<path d="M101.066 194.763C100.844 195.059 99.7847 203.533 99.9571 203.853C99.9818 203.952 100.524 203.829 101.164 203.607C102.248 203.213 102.273 203.188 102.15 202.351C102.076 201.883 101.928 199.912 101.854 197.966C101.755 196.044 101.608 194.467 101.509 194.467C101.411 194.467 101.214 194.615 101.066 194.763Z" fill="#36454F"/>
<path d="M101.09 206.982C99.6121 207.573 99.5629 207.623 99.4151 208.608C99.3411 209.175 99.2672 210.333 99.218 211.195L99.1687 212.771L100.77 212.722C101.657 212.673 102.421 212.624 102.47 212.574C102.692 212.328 103.061 206.76 102.839 206.563C102.716 206.465 101.928 206.637 101.09 206.982Z" fill="#36454F"/>
<path d="M98.7009 217.181C98.6269 217.772 98.5284 218.881 98.4545 219.645L98.356 221.049L99.9326 221.936C100.819 222.404 101.559 222.798 101.608 222.798C101.657 222.798 101.756 221.886 101.854 220.753C101.953 219.645 102.076 218.142 102.15 217.427L102.298 216.146H100.573H98.824L98.7009 217.181Z" fill="#36454F"/>
<path d="M97.9615 228.267C97.8876 229.4 97.7644 231.494 97.6659 232.948L97.5181 235.584L98.7498 238.121C99.4396 239.525 100.129 241.126 100.302 241.718C100.844 243.541 100.844 243.418 101.139 233.637L101.287 228.094L100.055 227.281C98.06 225.976 98.1339 225.951 97.9615 228.267Z" fill="#36454F"/>
</svg>
