<svg width="25" height="25" viewBox="0 0 25 25" fill="none" xmlns="http://www.w3.org/2000/svg">
<g id="material-symbols-light:language">
<path id="Vector" d="M12.0942 21.4385C10.8556 21.4385 9.6889 21.2018 8.59424 20.7285C7.49957 20.2551 6.54624 19.6118 5.73424 18.7985C4.9209 17.9871 4.27757 17.0338 3.80424 15.9385C3.3309 14.8438 3.09424 13.6771 3.09424 12.4385C3.09424 11.1965 3.3309 10.0288 3.80424 8.93548C4.27824 7.84214 4.92157 6.88948 5.73424 6.07748C6.54557 5.26548 7.49891 4.62281 8.59424 4.14948C9.6889 3.67548 10.8556 3.43848 12.0942 3.43848C13.3362 3.43848 14.5039 3.67514 15.5972 4.14848C16.6906 4.62248 17.6432 5.26581 18.4552 6.07848C19.2672 6.89048 19.9099 7.84281 20.3832 8.93548C20.8572 10.0288 21.0942 11.1965 21.0942 12.4385C21.0942 13.6771 20.8576 14.8438 20.3842 15.9385C19.9109 17.0331 19.2676 17.9865 18.4542 18.7985C17.6422 19.6111 16.6899 20.2545 15.5972 20.7285C14.5039 21.2018 13.3362 21.4385 12.0942 21.4385ZM12.0942 20.4465C12.6809 19.6925 13.1649 18.9521 13.5462 18.2255C13.9269 17.4988 14.2366 16.6855 14.4752 15.7855H9.71324C9.97724 16.7361 10.2932 17.5748 10.6612 18.3015C11.0292 19.0281 11.5069 19.7431 12.0942 20.4465ZM10.8212 20.2965C10.3546 19.7465 9.92857 19.0665 9.54324 18.2565C9.15791 17.4471 8.87124 16.6231 8.68324 15.7845H4.84724C5.42057 17.0285 6.2329 18.0485 7.28424 18.8445C8.33624 19.6405 9.5149 20.1245 10.8202 20.2965H10.8212ZM13.3672 20.2965C14.6726 20.1245 15.8512 19.6405 16.9032 18.8445C17.9552 18.0485 18.7676 17.0285 19.3402 15.7845H15.5062C15.2529 16.6358 14.9339 17.4665 14.5492 18.2765C14.1639 19.0858 13.7699 19.7591 13.3672 20.2965ZM4.44024 14.7845H8.47524C8.39924 14.3745 8.3459 13.9748 8.31524 13.5855C8.28324 13.1961 8.26724 12.8138 8.26724 12.4385C8.26724 12.0631 8.28291 11.6808 8.31424 11.2915C8.34557 10.9021 8.39891 10.5021 8.47424 10.0915H4.44124C4.33257 10.4381 4.24757 10.8158 4.18624 11.2245C4.1249 11.6331 4.09424 12.0378 4.09424 12.4385C4.09424 12.8398 4.12457 13.2445 4.18524 13.6525C4.24657 14.0611 4.33157 14.4385 4.44024 14.7845ZM9.47524 14.7845H14.7132C14.7892 14.3745 14.8426 13.9811 14.8732 13.6045C14.9052 13.2285 14.9212 12.8398 14.9212 12.4385C14.9212 12.0371 14.9056 11.6485 14.8742 11.2725C14.8429 10.8958 14.7896 10.5025 14.7142 10.0925H9.47424C9.39891 10.5025 9.34557 10.8958 9.31424 11.2725C9.28291 11.6485 9.26724 12.0371 9.26724 12.4385C9.26724 12.8398 9.28291 13.2285 9.31424 13.6045C9.34557 13.9811 9.3999 14.3745 9.47524 14.7845ZM15.7132 14.7845H19.7482C19.8569 14.4378 19.9419 14.0605 20.0032 13.6525C20.0646 13.2445 20.0949 12.8398 20.0942 12.4385C20.0942 12.0371 20.0639 11.6325 20.0032 11.2245C19.9419 10.8158 19.8569 10.4385 19.7482 10.0925H15.7132C15.7892 10.5025 15.8426 10.9021 15.8732 11.2915C15.9052 11.6808 15.9212 12.0631 15.9212 12.4385C15.9212 12.8138 15.9056 13.1961 15.8742 13.5855C15.8429 13.9748 15.7896 14.3748 15.7142 14.7855L15.7132 14.7845ZM15.5062 9.09248H19.3402C18.7542 7.82314 17.9516 6.80314 16.9322 6.03248C15.9122 5.26181 14.7239 4.77181 13.3672 4.56248C13.8339 5.17581 14.2536 5.87781 14.6262 6.66848C14.9982 7.45848 15.2916 8.26648 15.5062 9.09248ZM9.71324 9.09248H14.4752C14.2112 8.15381 13.8856 7.30514 13.4982 6.54648C13.1116 5.78714 12.6436 5.08181 12.0942 4.43048C11.5456 5.08181 11.0776 5.78714 10.6902 6.54648C10.3036 7.30514 9.97791 8.15381 9.71324 9.09248ZM4.84824 9.09248H8.68224C8.89691 8.26648 9.19024 7.45848 9.56224 6.66848C9.93491 5.87781 10.3546 5.17548 10.8212 4.56148C9.45191 4.77148 8.26057 5.26481 7.24724 6.04148C6.2339 6.81881 5.4339 7.83548 4.84724 9.09148L4.84824 9.09248Z" fill="black" fill-opacity="0.5"/>
</g>
</svg>
