<svg width="25" height="25" viewBox="0 0 25 25" fill="none" xmlns="http://www.w3.org/2000/svg">
<g id="ph:student">
<path id="Vector" d="M21.3314 5.72697L12.3314 2.72697C12.1775 2.67565 12.011 2.67565 11.8571 2.72697L2.85705 5.72697C2.70771 5.77675 2.57782 5.87226 2.48579 5.99997C2.39375 6.12768 2.34423 6.28111 2.34424 6.43853V13.9385C2.34424 14.1374 2.42326 14.3282 2.56391 14.4689C2.70456 14.6095 2.89533 14.6885 3.09424 14.6885C3.29315 14.6885 3.48392 14.6095 3.62457 14.4689C3.76522 14.3282 3.84424 14.1374 3.84424 13.9385V7.47916L6.9933 8.52822C6.15664 9.87991 5.89058 11.5084 6.25355 13.0561C6.61652 14.6038 7.57885 15.9441 8.92924 16.7829C7.24174 17.4448 5.78299 18.642 4.71611 20.2788C4.66063 20.3613 4.62209 20.454 4.60273 20.5515C4.58338 20.649 4.5836 20.7493 4.60337 20.8467C4.62315 20.9441 4.66209 21.0367 4.71793 21.1189C4.77377 21.2011 4.8454 21.2714 4.92865 21.3257C5.0119 21.38 5.10511 21.4172 5.20287 21.4352C5.30063 21.4531 5.40098 21.4515 5.4981 21.4303C5.59521 21.4092 5.68715 21.3689 5.76857 21.3119C5.84999 21.2549 5.91926 21.1822 5.97236 21.0982C7.38518 18.9307 9.61643 17.6885 12.0942 17.6885C14.5721 17.6885 16.8033 18.9307 18.2161 21.0982C18.3261 21.2617 18.496 21.3753 18.6892 21.4146C18.8823 21.4538 19.0831 21.4154 19.2481 21.3077C19.4132 21.2001 19.5292 21.0318 19.5712 20.8393C19.6131 20.6467 19.5776 20.4454 19.4724 20.2788C18.4055 18.642 16.9411 17.4448 15.2592 16.7829C16.6083 15.9442 17.5697 14.6047 17.9327 13.0581C18.2956 11.5116 18.0304 9.8842 17.1952 8.53291L21.3314 7.15478C21.4808 7.10503 21.6107 7.00953 21.7028 6.88182C21.7949 6.75411 21.8444 6.60066 21.8444 6.44322C21.8444 6.28578 21.7949 6.13233 21.7028 6.00462C21.6107 5.87691 21.4808 5.78141 21.3314 5.73166V5.72697ZM16.5942 11.6885C16.5944 12.4 16.426 13.1013 16.1026 13.735C15.7793 14.3687 15.3103 14.9167 14.7342 15.3341C14.158 15.7514 13.4911 16.0263 12.7882 16.136C12.0853 16.2457 11.3664 16.1872 10.6905 15.9653C10.0145 15.7433 9.40087 15.3643 8.89979 14.8593C8.39872 14.3542 8.02452 13.7376 7.8079 13.06C7.59129 12.3823 7.53843 11.663 7.65366 10.9609C7.76889 10.2589 8.04893 9.59419 8.4708 9.02135L11.8571 10.1463C12.011 10.1977 12.1775 10.1977 12.3314 10.1463L15.7177 9.02135C16.2875 9.79384 16.5947 10.7286 16.5942 11.6885ZM12.0942 8.64822L5.46611 6.43853L12.0942 4.22885L18.7224 6.43853L12.0942 8.64822Z" fill="black" fill-opacity="0.5"/>
</g>
</svg>
