<svg width="21" height="21" viewBox="0 0 21 21" fill="none" xmlns="http://www.w3.org/2000/svg">
<g id="clarity:book-line" clip-path="url(#clip0_368_2737)">
<path id="Vector" d="M5.6499 3.32715H15.6499V4.18826H5.6499V3.32715Z" fill="black" fill-opacity="0.5"/>
<path id="Vector_2" d="M16.2054 4.88314H5.57206C5.43028 4.88113 5.29038 4.85043 5.16079 4.79288C5.03121 4.73533 4.91462 4.65214 4.81805 4.54831C4.72149 4.44448 4.64696 4.32217 4.59895 4.18875C4.55095 4.05533 4.53046 3.91358 4.53873 3.77203C4.53804 3.49034 4.64436 3.2189 4.8362 3.01262C5.02804 2.80635 5.29106 2.68063 5.57206 2.66092H16.2054C16.3527 2.66092 16.494 2.60238 16.5982 2.4982C16.7024 2.39401 16.7609 2.2527 16.7609 2.10536C16.7609 1.95802 16.7024 1.81671 16.5982 1.71252C16.494 1.60834 16.3527 1.5498 16.2054 1.5498H5.57206C4.99627 1.56997 4.45083 1.81297 4.05075 2.22755C3.65068 2.64213 3.42726 3.19589 3.42761 3.77203C3.42224 3.86269 3.42224 3.95359 3.42761 4.04425C3.42226 4.08853 3.42226 4.1333 3.42761 4.17758V17.1054C3.42726 17.6815 3.65068 18.2353 4.05075 18.6498C4.45083 19.0644 4.99627 19.3074 5.57206 19.3276H16.2054C16.3527 19.3276 16.494 19.2691 16.5982 19.1649C16.7024 19.0607 16.7609 18.9194 16.7609 18.772V5.47758C16.7613 5.32644 16.704 5.18085 16.6008 5.07042C16.4976 4.95999 16.3562 4.89303 16.2054 4.88314ZM15.6498 18.2165H5.57206C5.29106 18.1968 5.02804 18.071 4.8362 17.8648C4.64436 17.6585 4.53804 17.3871 4.53873 17.1054V5.74425C4.85461 5.91851 5.21145 6.00484 5.57206 5.99425H15.6498V18.2165Z" fill="black" fill-opacity="0.5"/>
</g>
<defs>
<clipPath id="clip0_368_2737">
<rect width="20" height="20" fill="white" transform="translate(0.0942383 0.438477)"/>
</clipPath>
</defs>
</svg>
